<?xml version="1.0" encoding="UTF-8" standalone="no"?>
<svg
   version="1.1"
   viewBox="-10 0 1010 1000"
   id="svg1"
   sodipodi:docname="bb.svg"
   inkscape:version="1.4.2 (ebf0e940, 2025-05-08)"
   xmlns:inkscape="http://www.inkscape.org/namespaces/inkscape"
   xmlns:sodipodi="http://sodipodi.sourceforge.net/DTD/sodipodi-0.dtd"
   xmlns="http://www.w3.org/2000/svg"
   xmlns:svg="http://www.w3.org/2000/svg">
  <defs
     id="defs1" />
  <sodipodi:namedview
     id="namedview1"
     pagecolor="#505050"
     bordercolor="#eeeeee"
     borderopacity="1"
     inkscape:showpageshadow="0"
     inkscape:pageopacity="0"
     inkscape:pagecheckerboard="0"
     inkscape:deskcolor="#d1d1d1"
     inkscape:zoom="0.46875121"
     inkscape:cx="594.13179"
     inkscape:cy="450.13217"
     inkscape:window-width="1328"
     inkscape:window-height="747"
     inkscape:window-x="0"
     inkscape:window-y="25"
     inkscape:window-maximized="0"
     inkscape:current-layer="svg1" />
  <path
     fill="currentColor"
     d="M652 695q-6 -9 -11 -18q-20 -18 -36 -19q-40 -6 -63.5 -8.5t-40.5 -2.5q-25 0 -51 4t-49.5 6.5t-48.5 26.5q-2 7 -3 13q6 1 17 1q19 0 63 -7t72 -7q27 0 76.5 6t53.5 6q14 0 21 -1zM578 613q19 9 26 11.5t12 3.5q-2 -12 0 -17.5t5 -9.5q-11 -2 -22 -10t-21 -11t-36 -5 t-41 -2q-25 0 -44 1.5t-33.5 5.5t-25 11.5t-19.5 9.5q2 4 4.5 10.5t0.5 16.5q7 -1 15 -3q11 -6 23 -12q13 -4 31 -6.5t30 -2.5h10.5t7.5 1q10 -1 17 -1q17 0 29.5 1.5t30.5 7.5zM502 841l-60 40q-7 4 -20 16.5t-32 17.5t-39.5 7.5t-48.5 2.5q-13 0 -41 -1t-45 -1h-25 q-10 0 -17.5 -1t-21.5 -6t-29 -24.5t-24 -28t-9 -18.5q0 -11 16 -22q21 -12 30.5 -17.5t20 -8t23.5 -2.5q7 0 23 1t25 1q16 0 42 1t37 1q12 0 27 -1t32 -4t26.5 -8.5t9.5 -17.5q0 -10 -12 -10q-12 1 -18 1q-8 0 -16.5 -5.5t-32 -13.5t-23.5 -24q0 -21 24.5 -43t28 -30.5 t3.5 -16.5q0 -12 -25 -35.5t-33 -42t-13.5 -42.5t-5.5 -54q0 -69 33.5 -112.5t50 -58t35 -25t34 -18.5t30.5 -8l2 -6q-28 -17 -31 -25t-3 -18q0 -21 13 -36.5t24.5 -19t33.5 -6.5q17 4 30 7t26 18.5t13 37.5q0 9 -3.5 18t-25.5 21q-4 5 -8 9q24 5 32.5 8.5t40.5 21.5 t59 53.5t40.5 68t13.5 70.5q0 53 -14.5 86.5t-38.5 54t-24 34.5q0 7 4 16t28 31t24 42q0 15 -22.5 23t-31 14t-21.5 6q-10 -1 -14 -1q-13 0 -13 8q0 13 9.5 19t23 8.5t31.5 4t34 1.5q13 0 43.5 -1t32.5 -1q9 0 25 -1t23 -1q12 0 23 2t23.5 9.5t27.5 15.5q16 11 16 23 q0 10 -9 18t-24.5 28t-27.5 25.5t-19 6.5t-18 1q-17 -1 -28 -1q-25 0 -47.5 1t-44.5 2q-33 0 -46 -2t-33 -7.5t-33 -18t-22 -18t-23.5 -17.5t-30.5 -22zM518 502v-60h56v-36h-56v-60h-36v60h-60v36h60v60h36z"
     id="path1" />
  <path
     style="fill:#ffffff;fill-opacity:0.917647;stroke-width:2.13333"
     d="m 493.15428,500.97648 c -0.78222,-0.78222 -1.42222,-14.70218 -1.42222,-30.93325 v -29.51104 h -29.86659 -29.86659 v -17.06662 -17.06662 h 29.86659 29.86659 v -29.86659 -29.86659 h 18.13329 18.13328 v 29.86659 29.86659 h 27.73326 27.73326 v 17.06662 17.06662 h -27.73326 -27.73326 v 30.93326 30.93325 h -16.71107 c -9.19108,0 -17.35106,-0.64 -18.13328,-1.42222 z"
     id="path2"
     transform="translate(-10)" />
  <path
     style="fill:#ffffff;fill-opacity:0.917647;stroke-width:2.13333"
     d="m 395.63609,620.26506 c -0.0529,-3.22666 -1.29214,-8.6688 -2.75381,-12.09366 -2.61665,-6.1311 -2.49196,-6.3197 8.0962,-12.24584 33.06027,-18.50367 46.82199,-21.3563 103.55355,-21.46532 41.70062,-0.0801 74.43017,2.68851 86.39977,7.3087 3.51999,1.35869 11.42359,5.63376 17.56356,9.50015 6.13998,3.86639 13.55414,7.6298 16.47593,8.36312 5.09867,1.27968 5.18595,1.57775 2.16972,7.41048 -1.72844,3.34245 -3.14263,9.00484 -3.14263,12.5831 0,3.57825 -1.08336,6.50592 -2.4075,6.50592 -1.32411,0 -11.16409,-3.71242 -21.86661,-8.24983 -29.77385,-12.62285 -37.69649,-13.90789 -85.59227,-13.88301 -50.75796,0.0264 -73.09105,3.51008 -94.91973,14.80643 -17.74003,9.18048 -23.44376,9.53363 -23.57618,1.45976 z"
     id="path3"
     transform="translate(-10)" />
  <path
     style="fill:#ffffff;fill-opacity:0.917647;stroke-width:2.13333"
     d="m 360.69774,690.66488 c 1.64733,-7.35885 13.55157,-18.11842 27.96114,-25.27251 8.2245,-4.0833 20.53001,-6.896 47.99988,-10.97144 50.48828,-7.49046 98.57071,-7.50134 150.3756,-0.034 43.40057,6.25588 54.67427,11.08012 66.50185,28.45749 l 7.13788,10.48715 -15.38418,0.63176 c -8.46131,0.34747 -32.3133,-1.51518 -53.00443,-4.13923 -55.48259,-7.03629 -106.46031,-6.74663 -157.5317,0.89513 -21.36474,3.19678 -47.06296,5.81233 -57.10716,5.81233 h -18.26217 z"
     id="path4"
     transform="translate(-10)" />
</svg>
