<?xml version="1.0" standalone="no"?>
<!DOCTYPE svg PUBLIC "-//W3C//DTD SVG 1.1//EN" "http://www.w3.org/Graphics/SVG/1.1/DTD/svg11.dtd" >
<svg xmlns="http://www.w3.org/2000/svg" xmlns:xlink="http://www.w3.org/1999/xlink" version="1.1" viewBox="-10 0 1010 1000">
   <path fill="currentColor"
d="M652 695q-6 -9 -11 -18q-20 -18 -36 -19q-40 -6 -63.5 -8.5t-40.5 -2.5q-25 0 -51 4t-49.5 6.5t-48.5 26.5q-2 7 -3 13q6 1 17 1q19 0 63 -7t72 -7q27 0 76.5 6t53.5 6q14 0 21 -1zM578 613q19 9 26 11.5t12 3.5q-2 -12 0 -17.5t5 -9.5q-11 -2 -22 -10t-21 -11t-36 -5
t-41 -2q-25 0 -44 1.5t-33.5 5.5t-25 11.5t-19.5 9.5q2 4 4.5 10.5t0.5 16.5q7 -1 15 -3q11 -6 23 -12q13 -4 31 -6.5t30 -2.5h10.5t7.5 1q10 -1 17 -1q17 0 29.5 1.5t30.5 7.5zM502 841l-60 40q-7 4 -20 16.5t-32 17.5t-39.5 7.5t-48.5 2.5q-13 0 -41 -1t-45 -1h-25
q-10 0 -17.5 -1t-21.5 -6t-29 -24.5t-24 -28t-9 -18.5q0 -11 16 -22q21 -12 30.5 -17.5t20 -8t23.5 -2.5q7 0 23 1t25 1q16 0 42 1t37 1q12 0 27 -1t32 -4t26.5 -8.5t9.5 -17.5q0 -10 -12 -10q-12 1 -18 1q-8 0 -16.5 -5.5t-32 -13.5t-23.5 -24q0 -21 24.5 -43t28 -30.5
t3.5 -16.5q0 -12 -25 -35.5t-33 -42t-13.5 -42.5t-5.5 -54q0 -69 33.5 -112.5t50 -58t35 -25t34 -18.5t30.5 -8l2 -6q-28 -17 -31 -25t-3 -18q0 -21 13 -36.5t24.5 -19t33.5 -6.5q17 4 30 7t26 18.5t13 37.5q0 9 -3.5 18t-25.5 21q-4 5 -8 9q24 5 32.5 8.5t40.5 21.5
t59 53.5t40.5 68t13.5 70.5q0 53 -14.5 86.5t-38.5 54t-24 34.5q0 7 4 16t28 31t24 42q0 15 -22.5 23t-31 14t-21.5 6q-10 -1 -14 -1q-13 0 -13 8q0 13 9.5 19t23 8.5t31.5 4t34 1.5q13 0 43.5 -1t32.5 -1q9 0 25 -1t23 -1q12 0 23 2t23.5 9.5t27.5 15.5q16 11 16 23
q0 10 -9 18t-24.5 28t-27.5 25.5t-19 6.5t-18 1q-17 -1 -28 -1q-25 0 -47.5 1t-44.5 2q-33 0 -46 -2t-33 -7.5t-33 -18t-22 -18t-23.5 -17.5t-30.5 -22zM518 502v-60h56v-36h-56v-60h-36v60h-60v36h60v60h36z" />
</svg>
