<?xml version="1.0" encoding="UTF-8" standalone="no"?>
<svg
   version="1.1"
   viewBox="-10 0 1010 1000"
   id="svg1"
   sodipodi:docname="bk.svg"
   inkscape:version="1.4.2 (ebf0e940, 2025-05-08)"
   xmlns:inkscape="http://www.inkscape.org/namespaces/inkscape"
   xmlns:sodipodi="http://sodipodi.sourceforge.net/DTD/sodipodi-0.dtd"
   xmlns="http://www.w3.org/2000/svg"
   xmlns:svg="http://www.w3.org/2000/svg">
  <defs
     id="defs1" />
  <sodipodi:namedview
     id="namedview1"
     pagecolor="#505050"
     bordercolor="#eeeeee"
     borderopacity="1"
     inkscape:showpageshadow="0"
     inkscape:pageopacity="0"
     inkscape:pagecheckerboard="0"
     inkscape:deskcolor="#d1d1d1"
     inkscape:zoom="0.51904051"
     inkscape:cx="388.21633"
     inkscape:cy="521.15393"
     inkscape:window-width="1256"
     inkscape:window-height="702"
     inkscape:window-x="0"
     inkscape:window-y="25"
     inkscape:window-maximized="0"
     inkscape:current-layer="svg1" />
  <path
     fill="currentColor"
     d="M476 632v-109v1q-11 -44 -27 -65q-19 -17 -28.5 -29t-18 -18.5t-35.5 -23.5t-44.5 -25.5t-42.5 -8.5q-34 0 -49.5 3t-43 21.5t-36 46.5t-8.5 47q0 16 3.5 31t7.5 32t10.5 31t21 37.5t27.5 38.5t29 30q22 -8 52 -16t66 -14t57.5 -8t58.5 -2zM658 644q14 2 47 10.5t55 17.5 q19 -18 28.5 -29t27 -38.5t24 -42.5t10 -31t6.5 -33t3 -27q0 -18 -8.5 -46t-35 -46t-45.5 -21.5t-48 -3.5q-26 0 -41.5 7.5t-42 24t-38 26t-25 25t-28.5 32.5q-13 21 -21 55v-1v109q36 0 59.5 2.5t72.5 9.5zM622 754q13 1 50 9t38 8q4 0 2.5 -6.5t1.5 -9.5q-5 -9 -9 -19 q-10 -4 -62 -12t-86 -8t-56 -2l-116 6q-63 9 -83 13t-20 15q0 1 3.5 5.5t1.5 11t3 6.5q13 -1 50 -9t59 -10.5t47 -2.5q11 0 25 0.5t31 0.5h32t28 -1q13 0 29 2t31 3zM564 388q3 -20 6 -41q0 -16 -9 -30.5t-24 -22.5t-35 -8q-43 0 -57 24.5t-14 38.5q0 8 3 19.5t4 19.5 q6 22 23.5 47.5t39.5 54.5q5 -9 31.5 -43t31.5 -59zM639 821q14 0 47.5 8t57.5 15v-5q-8 -9 -2.5 -19.5t-31.5 -19.5q-53 -9 -78.5 -13.5t-46.5 -5.5t-48 -1h-34h-36q-43 0 -53.5 1t-43 6.5t-68.5 11.5t-36 20q0 1 2 7q2 3 -2.5 9.5t-3.5 8.5q9 -3 52.5 -13t52.5 -10l136 -2 zM526 150h74v50h-75v58q11 -5 29 6t28.5 23.5t16.5 70.5q3 4 7 8q11 -28 51 -42.5t73 -14.5q31 0 61.5 11t44.5 19t31.5 26.5t26 47t8.5 67.5q0 45 -23 90q-19 33 -29 52l-80 104q-9 18 -14 29.5t-5 23.5q0 6 2 13.5t25.5 17.5t25.5 24q4 28 -26 40.5t-52 23t-50.5 16 t-72.5 13.5t-101 8t-104.5 -9t-72.5 -13q-26 -6 -50.5 -17.5t-50.5 -22.5q-28 -15 -24 -39q2 -12 26 -24t26 -22q3 -16 -4.5 -31.5t-15.5 -30.5q-9 -22 -41 -57t-54.5 -75.5t-29.5 -61.5t-7 -52q0 -41 8 -68t26.5 -46.5t30.5 -26.5t44 -18.5t64 -11.5q34 0 63.5 11t41 21 t16.5 25q2 -3 5 -6q7 -58 18 -71t28.5 -24.5t28.5 -6.5v-58h-74v-50h74v-73h52v73zM445 606v-85v1q-8 -34 -21 -51q-15 -14 -26 -27.5t-33 -24.5q-20 -14 -36.5 -21.5t-36.5 -7.5q-13 0 -30 1t-40 16t-29.5 38t-6.5 36q0 9 1.5 18t5.5 25.5t9.5 28t19.5 36.5q9 13 18.5 24 t22.5 23q4 -1 33.5 -8.5t46.5 -12.5q28 -4 49 -6.5t53 -2.5zM659 615q21 5 41 10t39 11q10 -10 20.5 -21t22 -30t17.5 -31t9.5 -28.5t5.5 -26t2 -19.5q0 -13 -6.5 -35.5t-27.5 -36t-35.5 -16t-36.5 -2.5q-18 0 -29.5 4t-35 18.5t-30.5 20t-18 18.5q-12 10 -21.5 22.5 t-18.5 48.5v-1v85q37 0 62 3.5t40 5.5zM542 379q4 -20 4 -26q0 -7 -5 -19q-6 -9 -16 -12.5t-23 -3.5q-16 0 -25 2.5t-15 13t-6 22.5t4 23q4 18 21.5 40t19.5 28q3 -6 20.5 -28t20.5 -40z"
     id="path1" />
  <path
     style="fill:#ffffff;fill-opacity:0.917647;stroke-width:1.92663"
     d="m 233.83192,652.57099 c -17.72203,-18.56329 -31.78912,-38.15113 -48.70184,-67.81527 -12.788,-22.42954 -16.44898,-32.44617 -24.65417,-67.45506 -6.1504,-26.24177 -6.68166,-30.75987 -5.77683,-49.12911 2.18134,-44.28363 16.26728,-72.19496 46.02379,-91.19621 19.81599,-12.65366 34.01205,-18.68607 48.36047,-20.55009 21.07591,-2.73799 52.77534,-2.23814 66.88429,1.05467 14.05869,3.28107 38.04564,16.06488 73.76831,39.31469 20.06781,13.06098 27.23677,19.24442 48.76311,42.0596 27.28827,28.92212 32.3747,37.10011 41.96246,67.46778 4.9554,15.6954 5.04973,17.01799 5.04973,70.80371 v 54.80956 h -21.68642 c -50.36058,0 -141.81566,15.93425 -194.70765,33.92398 -7.45252,2.53475 -14.59615,4.60866 -15.87473,4.60866 -1.27857,0 -10.01331,-8.05361 -19.41052,-17.89691 z m 79.24576,-26.54824 c 40.74865,-10.84813 93.78428,-19.0292 123.7861,-19.09477 l 17.82135,-0.0389 v -44.9384 c 0,-42.17293 -0.28004,-45.76174 -4.55055,-58.31756 -7.15257,-21.02939 -12.13204,-29.20276 -27.92264,-45.83244 -23.7043,-24.96389 -26.92434,-27.58604 -53.86965,-43.86722 -30.90074,-18.67116 -42.32972,-22.99678 -63.93445,-24.19775 -38.4317,-2.13637 -62.19994,5.80071 -85.08687,28.41361 -11.25339,11.11865 -13.33436,14.33496 -16.8578,26.05512 -8.37073,27.84392 -8.33166,45.60282 0.1771,80.48707 4.79322,19.65131 21.75661,54.95828 34.86388,72.56441 9.82752,13.20066 34.08603,38.53616 36.88484,38.52238 1.14548,-0.006 18.55539,-4.39561 38.68869,-9.75552 z"
     id="path2"
     transform="translate(-10)" />
  <path
     style="fill:#ffffff;fill-opacity:0.917647;stroke-width:1.92663"
     d="m 487.46443,457.15707 c -27.91052,-39.02495 -36.58247,-56.61441 -42.32927,-85.85712 -5.16301,-26.27206 -4.28008,-32.82823 7.32555,-54.39591 12.31985,-22.89495 30.16586,-31.13255 63.78287,-29.44174 32.16385,1.61771 54.45,18.93711 61.75794,47.99438 1.71476,6.81811 1.36452,13.46296 -1.81617,34.45664 -3.31062,21.85129 -5.16244,28.47368 -11.58303,41.42259 -6.84527,13.8054 -49.87414,74.32574 -53.80992,75.68396 -0.86911,0.29991 -11.3667,-13.13834 -23.32797,-29.8628 z m 58.7572,-60.31332 c 2.5524,-5.03691 6.10378,-17.15495 7.89196,-26.92896 3.05295,-16.68713 3.05224,-18.40225 -0.0117,-28.1223 -5.48072,-17.38685 -18.16991,-23.90306 -46.43435,-23.84517 -21.25246,0.0435 -29.9248,4.10192 -36.50228,17.08195 -6.51884,12.86431 -6.66373,29.40789 -0.41779,47.70427 5.21471,15.27558 6.95601,18.22552 26.18627,44.36245 l 14.31242,19.4528 15.1674,-20.27351 c 8.34206,-11.15042 17.25572,-24.39461 19.80811,-29.43153 z"
     id="path3"
     transform="translate(-10)" />
  <path
     style="fill:#ffffff;fill-opacity:0.917647;stroke-width:1.92663"
     d="M 754.06276,665.6435 C 715.25371,650.62555 623.92431,634.51666 565.94812,632.46337 l -30.34445,-1.07466 v -52.49357 c 0,-50.32735 0.19948,-53.18198 4.83415,-69.17523 2.65878,-9.17491 7.54174,-22.05992 10.85102,-28.63335 5.95611,-11.83101 34.5079,-45.8572 52.96935,-63.12547 16.58471,-15.51283 72.05956,-50.56022 92.0862,-58.17738 20.20796,-7.68612 75.41369,-6.21987 97.95095,2.60155 25.73048,10.0713 50.21737,30.28148 59.94272,49.47355 14.19392,28.01033 16.79335,60.16723 8.23551,101.87886 -8.55188,41.68243 -14.8542,55.98403 -44.44528,100.8579 -16.70878,25.33831 -43.64494,55.96561 -49.02065,55.7381 -1.74431,-0.0738 -8.46951,-2.1844 -14.94488,-4.69017 z m 13.71411,-48.55045 c 16.12277,-18.34456 37.01852,-51.10873 44.52086,-69.80793 5.1359,-12.8009 14.22735,-54.80899 14.22735,-65.73904 0,-11.89406 -5.59006,-36.31694 -10.86765,-47.48046 -6.08989,-12.88182 -19.70097,-25.05601 -38.27302,-34.23264 -12.61316,-6.23228 -17.62683,-7.54064 -35.76207,-9.3324 -38.29022,-3.78307 -52.66514,0.33847 -95.25904,27.31248 -16.1067,10.2001 -26.14152,18.48717 -41.67718,34.4183 -22.48139,23.05368 -25.82131,28.34473 -33.23198,52.64562 -4.76456,15.62384 -5.02436,18.67207 -5.02436,58.94947 v 42.47366 l 27.4545,1.21459 c 44.33442,1.96137 102.61248,12.31653 142.0891,25.24718 4.76842,1.5619 10.3684,2.66511 12.44441,2.45158 2.076,-0.21355 10.78759,-8.36773 19.35908,-18.12041 z"
     id="path4"
     transform="translate(-10)" />
  <path
     style="fill:#ffffff;fill-opacity:0.917647;stroke-width:1.92663"
     d="m 297.40286,764.7367 c 0.7388,-3.69398 0.0683,-8.07201 -1.78507,-11.65608 -6.21141,-12.01155 0.14595,-16.75766 29.15293,-21.76426 44.42024,-7.66692 73.77738,-10.8572 125.25947,-13.61213 96.17461,-5.14653 183.39316,0.2551 251.39822,15.56961 12.14693,2.73545 12.82694,3.19919 16.85803,11.49637 2.44701,5.03669 4.20052,12.33084 4.20052,17.4731 0,8.18546 -0.31514,8.74969 -4.33492,7.76143 -2.38421,-0.58615 -19.37134,-4.15293 -37.74918,-7.92617 -53.24632,-10.93226 -76.15721,-12.58831 -174.60889,-12.62113 -95.73651,-0.0319 -95.5587,-0.0466 -164.15746,13.512 -21.38031,4.22582 -40.34559,7.68332 -42.14507,7.68332 -2.62451,0 -3.03771,-1.17041 -2.08858,-5.91606 z"
     id="path5"
     transform="translate(-10)" />
  <path
     style="fill:#ffffff;fill-opacity:0.917647;stroke-width:1.92663"
     d="M 739.82665,839.61132 C 687.4479,824.75446 673.57611,822.4911 622.3021,820.43569 c -27.33877,-1.09593 -93.99158,-1.51081 -150.27729,-0.9354 -111.69543,1.14185 -103.124,0.33368 -167.50448,15.79337 -16.09852,3.86574 -29.70939,6.58926 -30.24638,6.05227 -0.53699,-0.53699 0.35189,-3.54486 1.97528,-6.68417 1.91365,-3.70058 2.55,-8.18281 1.80954,-12.74573 -2.40242,-14.80437 3.90884,-17.17443 81.25808,-30.51472 l 57.79895,-9.96849 77.89577,-0.71131 c 44.30545,-0.40458 88.99676,0.16341 103.63889,1.31717 32.26688,2.54255 124.71078,18.32221 137.9799,23.55241 14.25034,5.61695 15.11114,6.65425 13.64354,16.44089 -0.77743,5.18434 -0.33758,10.62538 1.14912,14.21459 1.32479,3.19832 2.07526,6.063 1.66772,6.36598 -0.40755,0.30297 -6.37639,-1.04758 -13.26409,-3.00123 z"
     id="path6"
     transform="translate(-10)" />
</svg>
