<?xml version="1.0" standalone="no"?>
<!DOCTYPE svg PUBLIC "-//W3C//DTD SVG 1.1//EN" "http://www.w3.org/Graphics/SVG/1.1/DTD/svg11.dtd" >
<svg xmlns="http://www.w3.org/2000/svg" xmlns:xlink="http://www.w3.org/1999/xlink" version="1.1" viewBox="-10 0 1010 1000">
   <path fill="currentColor"
d="M476 632v-109v1q-11 -44 -27 -65q-19 -17 -28.5 -29t-18 -18.5t-35.5 -23.5t-44.5 -25.5t-42.5 -8.5q-34 0 -49.5 3t-43 21.5t-36 46.5t-8.5 47q0 16 3.5 31t7.5 32t10.5 31t21 37.5t27.5 38.5t29 30q22 -8 52 -16t66 -14t57.5 -8t58.5 -2zM658 644q14 2 47 10.5t55 17.5
q19 -18 28.5 -29t27 -38.5t24 -42.5t10 -31t6.5 -33t3 -27q0 -18 -8.5 -46t-35 -46t-45.5 -21.5t-48 -3.5q-26 0 -41.5 7.5t-42 24t-38 26t-25 25t-28.5 32.5q-13 21 -21 55v-1v109q36 0 59.5 2.5t72.5 9.5zM622 754q13 1 50 9t38 8q4 0 2.5 -6.5t1.5 -9.5q-5 -9 -9 -19
q-10 -4 -62 -12t-86 -8t-56 -2l-116 6q-63 9 -83 13t-20 15q0 1 3.5 5.5t1.5 11t3 6.5q13 -1 50 -9t59 -10.5t47 -2.5q11 0 25 0.5t31 0.5h32t28 -1q13 0 29 2t31 3zM564 388q3 -20 6 -41q0 -16 -9 -30.5t-24 -22.5t-35 -8q-43 0 -57 24.5t-14 38.5q0 8 3 19.5t4 19.5
q6 22 23.5 47.5t39.5 54.5q5 -9 31.5 -43t31.5 -59zM639 821q14 0 47.5 8t57.5 15v-5q-8 -9 -2.5 -19.5t-31.5 -19.5q-53 -9 -78.5 -13.5t-46.5 -5.5t-48 -1h-34h-36q-43 0 -53.5 1t-43 6.5t-68.5 11.5t-36 20q0 1 2 7q2 3 -2.5 9.5t-3.5 8.5q9 -3 52.5 -13t52.5 -10l136 -2
zM526 150h74v50h-75v58q11 -5 29 6t28.5 23.5t16.5 70.5q3 4 7 8q11 -28 51 -42.5t73 -14.5q31 0 61.5 11t44.5 19t31.5 26.5t26 47t8.5 67.5q0 45 -23 90q-19 33 -29 52l-80 104q-9 18 -14 29.5t-5 23.5q0 6 2 13.5t25.5 17.5t25.5 24q4 28 -26 40.5t-52 23t-50.5 16
t-72.5 13.5t-101 8t-104.5 -9t-72.5 -13q-26 -6 -50.5 -17.5t-50.5 -22.5q-28 -15 -24 -39q2 -12 26 -24t26 -22q3 -16 -4.5 -31.5t-15.5 -30.5q-9 -22 -41 -57t-54.5 -75.5t-29.5 -61.5t-7 -52q0 -41 8 -68t26.5 -46.5t30.5 -26.5t44 -18.5t64 -11.5q34 0 63.5 11t41 21
t16.5 25q2 -3 5 -6q7 -58 18 -71t28.5 -24.5t28.5 -6.5v-58h-74v-50h74v-73h52v73zM445 606v-85v1q-8 -34 -21 -51q-15 -14 -26 -27.5t-33 -24.5q-20 -14 -36.5 -21.5t-36.5 -7.5q-13 0 -30 1t-40 16t-29.5 38t-6.5 36q0 9 1.5 18t5.5 25.5t9.5 28t19.5 36.5q9 13 18.5 24
t22.5 23q4 -1 33.5 -8.5t46.5 -12.5q28 -4 49 -6.5t53 -2.5zM659 615q21 5 41 10t39 11q10 -10 20.5 -21t22 -30t17.5 -31t9.5 -28.5t5.5 -26t2 -19.5q0 -13 -6.5 -35.5t-27.5 -36t-35.5 -16t-36.5 -2.5q-18 0 -29.5 4t-35 18.5t-30.5 20t-18 18.5q-12 10 -21.5 22.5
t-18.5 48.5v-1v85q37 0 62 3.5t40 5.5zM542 379q4 -20 4 -26q0 -7 -5 -19q-6 -9 -16 -12.5t-23 -3.5q-16 0 -25 2.5t-15 13t-6 22.5t4 23q4 18 21.5 40t19.5 28q3 -6 20.5 -28t20.5 -40z" />
</svg>
