<?xml version="1.0" encoding="UTF-8" standalone="no"?>
<svg
   version="1.1"
   viewBox="-10 0 1010 1000"
   id="svg1"
   sodipodi:docname="bn.svg"
   inkscape:version="1.4.2 (ebf0e940, 2025-05-08)"
   xmlns:inkscape="http://www.inkscape.org/namespaces/inkscape"
   xmlns:sodipodi="http://sodipodi.sourceforge.net/DTD/sodipodi-0.dtd"
   xmlns="http://www.w3.org/2000/svg"
   xmlns:svg="http://www.w3.org/2000/svg">
  <defs
     id="defs1" />
  <sodipodi:namedview
     id="namedview1"
     pagecolor="#505050"
     bordercolor="#eeeeee"
     borderopacity="1"
     inkscape:showpageshadow="0"
     inkscape:pageopacity="0"
     inkscape:pagecheckerboard="0"
     inkscape:deskcolor="#d1d1d1"
     inkscape:zoom="0.45197854"
     inkscape:cx="408.20522"
     inkscape:cy="521.04243"
     inkscape:window-width="1264"
     inkscape:window-height="696"
     inkscape:window-x="0"
     inkscape:window-y="25"
     inkscape:window-maximized="0"
     inkscape:current-layer="svg1" />
  <path
     fill="currentColor"
     d="M918 920h-618q0 -71 8.5 -99t30.5 -60l114 -126q19 -30 29 -48t19 -45q-6 0 -12 -1q-35 28 -69 55q-13 7 -46.5 19.5t-49 25.5t-28.5 38t-26.5 38t-22 21t-20.5 8q-11 0 -23.5 -12.5t-21.5 -12.5q-6 0 -13 3.5t-14 3.5q-20 0 -42 -22t-29 -50q-2 -13 -3 -19t-1 -11 q0 -43 36.5 -109t51 -106.5t27 -73.5t33 -59.5t24.5 -34.5t6 -22q3 -21 -7 -39.5t-15.5 -29.5t-11 -25t-5.5 -20q0 -11 9 -15t21 2q10 7 21 12.5t32 23t31 24.5t20.5 14.5t21.5 4.5q12 -3 18 -18q6 -21 8 -27.5t3.5 -24.5t8.5 -25t13 -7q12 0 29.5 34.5t22 40.5t15 22 t18.5 21.5t17.5 7.5t16.5 2q19 -1 30 -1q5 0 19 2q30 7 50.5 17t51 31t50 42.5t47 60t42.5 68.5t36 86t30.5 94.5t15 85t7.5 71.5t2 53q0 25 -2 48.5t-6 62.5zM273 407q6 -5 11.5 -10.5t10.5 -11.5t18 -13.5t17 -12.5l20 -16q3 -4 -3 -11q-18 -19 -32 -19q-6 0 -12.5 3 t-16 8t-15 11t-12.5 18.5t-11 31.5t-13 39q3 1 6 1q12 -5 32 -18zM139 633q11 -4 17 -8.5t12.5 -18t6.5 -33.5q0 -7 -13.5 -2t-20.5 15.5t-8.5 19.5t-1.5 17q0 7 1.5 9.5t6.5 0.5zM232 696q10 -6 17.5 -19.5t7.5 -23.5q0 -6 -3.5 -10t-8.5 -4t-12.5 10.5t-9.5 14.5 q-6 6 -11.5 14.5t-5.5 16.5q0 6 9 6t17 -5zM335 222q-9 3 -24 22t-15 27q0 3 3 3t10 -3l43 -26q7 -3 14 -7t10 -16q-3 -1 -6 -3h-10q-13 0 -25 3zM538 398q-5 1 -9 2q-3 6 -8.5 31t-14 46.5t-8.5 26.5q0 3 3 2t9 -6.5t16 -17t13 -24.5t5 -19.5t2 -12.5q0 -11 -8 -28z M506 222q17 9 31 13t32 11.5t40.5 25.5t41 32t35 34.5t36.5 55.5t33.5 68t26 73.5t20.5 92.5t12 76.5t5 38.5t1 33q0 15 -1 51t-1 48h49v-46v-16q0 -46 -6 -108.5t-12.5 -97.5t-24 -88.5t-30 -82.5t-39 -67t-44 -58.5t-44.5 -36.5q-25 -17 -47.5 -30.5t-38 -17t-27.5 -3.5 t-19 -1h-29z"
     id="path1" />
  <path
     style="fill:#ffffff;fill-opacity:0.917647;stroke-width:2.21249"
     d="m 246.69313,422.51537 c 0,-0.64752 1.43928,-4.622 3.1984,-8.83217 1.75912,-4.21017 5.75486,-17.25979 8.87942,-28.99916 6.30392,-23.68468 13.74269,-38.98742 24.15273,-49.68609 7.24356,-7.44439 34.85891,-21.92999 41.80733,-21.92999 9.82946,0 34.85475,19.04411 34.75166,26.44583 -0.0513,3.68169 -22.11237,22.4894 -37.86898,32.28439 -5.30859,3.30005 -17.11915,13.15825 -26.24569,21.90711 -16.2461,15.5738 -37.91034,29.98739 -45.07233,29.98739 -1.9814,0 -3.60254,-0.52979 -3.60254,-1.17731 z"
     id="path2"
     transform="translate(-10)" />
  <path
     style="fill:#ffffff;fill-opacity:0.917647;stroke-width:2.21249"
     d="m 142.70589,619.57647 c 0,-15.74787 3.91651,-27.84911 11.72119,-36.21619 6.07434,-6.51204 19.72034,-13.64297 26.10769,-13.64297 4.55742,0 4.73977,0.68744 3.37457,12.72184 -2.0928,18.44821 -12.39456,38.31466 -22.86475,44.09359 -4.61036,2.54465 -10.62263,5.30578 -13.36059,6.13586 -4.81207,1.4589 -4.97811,1.02222 -4.97811,-13.09213 z"
     id="path3"
     transform="translate(-10)" />
  <path
     style="fill:#ffffff;fill-opacity:0.917647;stroke-width:2.21249"
     d="m 217.17917,697.0623 c -2.61581,-6.81668 11.04604,-30.38578 29.24965,-50.46081 9.50376,-10.48078 20.17676,-6.35583 20.17676,7.79802 0,8.60514 -13.00622,32.14983 -21.22094,38.4155 -9.51819,7.25988 -26.09174,9.75559 -28.20547,4.24729 z"
     id="path4"
     transform="translate(-10)" />
  <path
     style="fill:#ffffff;fill-opacity:0.917647;stroke-width:2.21249"
     d="m 306.43048,270.94242 c 0,-9.8292 26.92876,-42.69694 39.17367,-47.81319 3.93062,-1.64232 14.14792,-2.98604 22.70511,-2.98604 14.17456,0 15.55852,0.40065 15.55852,4.50405 0,6.55948 -6.5081,11.6402 -39.8249,31.09034 -28.46759,16.6192 -37.6124,20.316 -37.6124,15.20484 z"
     id="path5"
     transform="translate(-10)" />
  <path
     style="fill:#ffffff;fill-opacity:0.917647;stroke-width:2.21249"
     d="m 829.75888,815.85732 c 1.73847,-65.88473 1.39861,-70.18177 -12.46813,-157.64023 C 803.92907,573.94415 796.19547,542.36283 775.04839,485.7141 749.97102,418.53688 710.10104,349.55924 678.83588,319.26022 c -14.30473,-13.8627 -76.33815,-61.09969 -89.20612,-67.92837 -6.69279,-3.55168 -22.36394,-9.99386 -34.82478,-14.31595 -12.46083,-4.32209 -25.40392,-9.43875 -28.76242,-11.37037 -5.71886,-3.28914 -4.09936,-3.42828 25.51951,-2.19248 21.72716,0.90653 35.92337,2.64897 45.35613,5.56701 25.62251,7.92637 99.41149,55.6315 119.33432,77.15054 25.05601,27.06349 63.95111,82.97895 80.20998,115.30959 17.51674,34.83191 43.33173,109.88712 56.31254,163.72458 12.42687,51.54006 21.37199,138.94012 23.71978,231.75879 l 1.46903,58.07798 h -24.88331 -24.88332 z"
     id="path6"
     transform="translate(-10)" />
  <path
     style="fill:#ffffff;fill-opacity:0.917647;stroke-width:2.21249"
     d="m 507.76747,504.55849 c 0,-0.54806 3.53675,-10.75319 7.85945,-22.67806 5.96706,-16.46109 23.11547,-77.16195 23.11547,-81.82266 0,-0.38639 2.04205,-0.70253 4.53789,-0.70253 5.9427,0 10.94957,11.87529 10.94957,25.97022 0,14.783 -7.79312,41.38999 -15.33272,52.34842 -9.88534,14.36785 -31.12966,32.71516 -31.12966,26.88461 z"
     id="path7"
     transform="translate(-10)" />
</svg>
