<?xml version="1.0" standalone="no"?>
<!DOCTYPE svg PUBLIC "-//W3C//DTD SVG 1.1//EN" "http://www.w3.org/Graphics/SVG/1.1/DTD/svg11.dtd" >
<svg xmlns="http://www.w3.org/2000/svg" xmlns:xlink="http://www.w3.org/1999/xlink" version="1.1" viewBox="-10 0 1010 1000">
   <path fill="currentColor"
d="M918 920h-618q0 -71 8.5 -99t30.5 -60l114 -126q19 -30 29 -48t19 -45q-6 0 -12 -1q-35 28 -69 55q-13 7 -46.5 19.5t-49 25.5t-28.5 38t-26.5 38t-22 21t-20.5 8q-11 0 -23.5 -12.5t-21.5 -12.5q-6 0 -13 3.5t-14 3.5q-20 0 -42 -22t-29 -50q-2 -13 -3 -19t-1 -11
q0 -43 36.5 -109t51 -106.5t27 -73.5t33 -59.5t24.5 -34.5t6 -22q3 -21 -7 -39.5t-15.5 -29.5t-11 -25t-5.5 -20q0 -11 9 -15t21 2q10 7 21 12.5t32 23t31 24.5t20.5 14.5t21.5 4.5q12 -3 18 -18q6 -21 8 -27.5t3.5 -24.5t8.5 -25t13 -7q12 0 29.5 34.5t22 40.5t15 22
t18.5 21.5t17.5 7.5t16.5 2q19 -1 30 -1q5 0 19 2q30 7 50.5 17t51 31t50 42.5t47 60t42.5 68.5t36 86t30.5 94.5t15 85t7.5 71.5t2 53q0 25 -2 48.5t-6 62.5zM273 407q6 -5 11.5 -10.5t10.5 -11.5t18 -13.5t17 -12.5l20 -16q3 -4 -3 -11q-18 -19 -32 -19q-6 0 -12.5 3
t-16 8t-15 11t-12.5 18.5t-11 31.5t-13 39q3 1 6 1q12 -5 32 -18zM139 633q11 -4 17 -8.5t12.5 -18t6.5 -33.5q0 -7 -13.5 -2t-20.5 15.5t-8.5 19.5t-1.5 17q0 7 1.5 9.5t6.5 0.5zM232 696q10 -6 17.5 -19.5t7.5 -23.5q0 -6 -3.5 -10t-8.5 -4t-12.5 10.5t-9.5 14.5
q-6 6 -11.5 14.5t-5.5 16.5q0 6 9 6t17 -5zM335 222q-9 3 -24 22t-15 27q0 3 3 3t10 -3l43 -26q7 -3 14 -7t10 -16q-3 -1 -6 -3h-10q-13 0 -25 3zM538 398q-5 1 -9 2q-3 6 -8.5 31t-14 46.5t-8.5 26.5q0 3 3 2t9 -6.5t16 -17t13 -24.5t5 -19.5t2 -12.5q0 -11 -8 -28z
M506 222q17 9 31 13t32 11.5t40.5 25.5t41 32t35 34.5t36.5 55.5t33.5 68t26 73.5t20.5 92.5t12 76.5t5 38.5t1 33q0 15 -1 51t-1 48h49v-46v-16q0 -46 -6 -108.5t-12.5 -97.5t-24 -88.5t-30 -82.5t-39 -67t-44 -58.5t-44.5 -36.5q-25 -17 -47.5 -30.5t-38 -17t-27.5 -3.5
t-19 -1h-29z" />
</svg>
