<?xml version="1.0" standalone="no"?>
<!DOCTYPE svg PUBLIC "-//W3C//DTD SVG 1.1//EN" "http://www.w3.org/Graphics/SVG/1.1/DTD/svg11.dtd" >
<svg xmlns="http://www.w3.org/2000/svg" xmlns:xlink="http://www.w3.org/1999/xlink" version="1.1" viewBox="-10 0 1010 1000">
   <path fill="currentColor"
d="M228 757q10 -45 23 -69.5t38 -55t45 -42t59 -24.5q3 -2 6 -5q-19 -12 -37 -24q-15 -14 -23.5 -44t-8.5 -55q0 -11 2 -23t16.5 -37.5t30 -38t32 -15t31.5 -4.5q2 -2 5 -4q-16 -7 -31 -14q-12 -10 -18 -27.5t-6 -35.5q0 -17 3.5 -29t19.5 -29.5t31.5 -27.5t51.5 -10
q37 0 53.5 9.5t36 31t19.5 56.5q0 41 -24 62q-25 10 -31 13q2 3 5 5q16 2 33 3q14 3 31.5 16.5t31 42t15 37t1.5 19.5q0 27 -7.5 55.5t-22.5 42t-25 18.5t-15 8q4 3 23.5 9.5t41 18.5t45 41t38 57.5t22 60t8.5 44.5t1 32q0 9 -1 32t-1 39h-554q0 -18 -0.5 -35t-0.5 -33
q0 -21 1 -35.5t6 -35.5z" />
</svg>
