<?xml version="1.0" standalone="no"?>
<!DOCTYPE svg PUBLIC "-//W3C//DTD SVG 1.1//EN" "http://www.w3.org/Graphics/SVG/1.1/DTD/svg11.dtd" >
<svg xmlns="http://www.w3.org/2000/svg" xmlns:xlink="http://www.w3.org/1999/xlink" version="1.1" viewBox="-10 0 1010 1000">
   <path fill="currentColor"
d="M565 134q6 15 6 29q0 16 -9 28l-24 18q-4 7 -4 18q0 17 16.5 70.5t18.5 63.5t4.5 82t10.5 72q3 0 13.5 -20.5t23.5 -72.5t18 -66.5t24.5 -43t19.5 -45.5q0 -10 -3 -17.5t-13 -16.5t-15 -21.5t-5 -27.5q0 -16 12.5 -37.5t49.5 -21.5q36 0 49.5 22.5t13.5 38.5
q0 10 -1.5 15.5t-6 16.5t-17 18.5t-18.5 23t-8.5 28t-2.5 31.5v25t1 27q0 31 -1 60t-2 56q0 48 10 48q6 0 16.5 -15t25 -46.5t21.5 -43t36.5 -42.5t27.5 -38q-2 -8 -10.5 -18t-11 -17.5t-4 -15t-1.5 -14.5q0 -14 13 -37.5t47 -23.5t47 22.5t13 37.5q0 16 -6.5 29t-23.5 24.5
t-25.5 21.5t-13.5 34q-6 42 -12.5 84.5t-10 70.5t-19.5 54q-29 40 -44.5 63t-19.5 45t-6 34t-2 22q0 16 4 29.5t15 26t11 23.5q0 17 -7 26.5t-20 24t-40 18t-53 6.5q-99 21 -174 21q-74 0 -175 -21q-36 -4 -58 -7t-36 -18.5t-20 -25.5t-6 -24q0 -9 12 -25t15 -27t3 -27
q0 -9 -2 -23t-6 -34.5t-24 -49t-38 -56t-23 -61t-10.5 -73.5t-9 -68t-15.5 -42.5t-27 -23.5t-21.5 -22t-6.5 -29q0 -15 13 -37.5t47 -22.5t44.5 18t13 25.5t2.5 17.5q0 15 -6 32q-11 17 -21 33q-1 6 30.5 42.5t44.5 61.5t36 67q10 14 16 14q10 0 10 -48q0 -39 -1 -66t-2 -50
v-27t1 -25q0 -18 -2 -30.5t-9 -29t-19 -24t-15 -14.5t-6 -18t-3 -18q0 -15 13.5 -37.5t49.5 -22.5q37 0 49.5 21.5t12.5 38.5q0 14 -5 26.5t-15.5 23t-13 16.5t-2.5 17q0 15 19 42.5t33.5 73.5t38.5 122q5 9 8 9q6 0 7.5 -72t5.5 -93t20 -65t16 -60q0 -8 -2 -13.5t-12 -11
t-16 -13.5t-6 -25q0 -13 7 -30t25 -27t40 -10q24 0 41.5 9.5t25.5 29.5zM363 613q-58 8 -93.5 16t-35.5 19q0 4 4.5 6.5t6.5 10t8 7.5q13 0 27.5 -4t28.5 -8q46 -5 84.5 -6.5t105.5 -1.5q66 0 103.5 1.5t83.5 6.5l54 12q6 0 8.5 -7.5t7.5 -10t5 -6.5q0 -10 -40 -19
t-82.5 -15t-72.5 -8t-66 -2q-74 0 -137 9zM638 736q7 1 40 6t44 5q2 0 4 -1q-3 -9 1 -13.5t4 -9.5q0 -13 -42 -19t-57.5 -7.5t-42.5 -2.5t-39 -1h-51q-33 0 -58.5 0.5t-79 7t-72.5 10t-19 15.5q0 4 4.5 8.5t1.5 10.5q1 3 3 5l84 -12q60 -7 97 -7h40h33.5t28.5 -1q19 0 38 2z
M637 807q14 0 47.5 8t57.5 15v-5q-8 -9 -2.5 -19.5t-31.5 -19.5q-53 -9 -78.5 -13.5t-46.5 -5.5t-48 -1h-34h-36q-43 0 -53.5 1t-43 6.5t-68.5 11.5t-36 20q0 1 2 7q2 3 -2.5 9.5t-3.5 8.5q9 -3 52.5 -13t52.5 -10l136 -2z" />
</svg>
