<?xml version="1.0" encoding="UTF-8" standalone="no"?>
<svg
   version="1.1"
   viewBox="-10 0 1010 1000"
   id="svg1"
   sodipodi:docname="bq.svg"
   inkscape:version="1.4.2 (ebf0e940, 2025-05-08)"
   xmlns:inkscape="http://www.inkscape.org/namespaces/inkscape"
   xmlns:sodipodi="http://sodipodi.sourceforge.net/DTD/sodipodi-0.dtd"
   xmlns="http://www.w3.org/2000/svg"
   xmlns:svg="http://www.w3.org/2000/svg">
  <defs
     id="defs1" />
  <sodipodi:namedview
     id="namedview1"
     pagecolor="#505050"
     bordercolor="#eeeeee"
     borderopacity="1"
     inkscape:showpageshadow="0"
     inkscape:pageopacity="0"
     inkscape:pagecheckerboard="0"
     inkscape:deskcolor="#d1d1d1"
     inkscape:zoom="0.44884942"
     inkscape:cx="522.44693"
     inkscape:cy="686.19895"
     inkscape:window-width="1328"
     inkscape:window-height="683"
     inkscape:window-x="0"
     inkscape:window-y="25"
     inkscape:window-maximized="0"
     inkscape:current-layer="svg1" />
  <path
     fill="currentColor"
     d="M565 134q6 15 6 29q0 16 -9 28l-24 18q-4 7 -4 18q0 17 16.5 70.5t18.5 63.5t4.5 82t10.5 72q3 0 13.5 -20.5t23.5 -72.5t18 -66.5t24.5 -43t19.5 -45.5q0 -10 -3 -17.5t-13 -16.5t-15 -21.5t-5 -27.5q0 -16 12.5 -37.5t49.5 -21.5q36 0 49.5 22.5t13.5 38.5 q0 10 -1.5 15.5t-6 16.5t-17 18.5t-18.5 23t-8.5 28t-2.5 31.5v25t1 27q0 31 -1 60t-2 56q0 48 10 48q6 0 16.5 -15t25 -46.5t21.5 -43t36.5 -42.5t27.5 -38q-2 -8 -10.5 -18t-11 -17.5t-4 -15t-1.5 -14.5q0 -14 13 -37.5t47 -23.5t47 22.5t13 37.5q0 16 -6.5 29t-23.5 24.5 t-25.5 21.5t-13.5 34q-6 42 -12.5 84.5t-10 70.5t-19.5 54q-29 40 -44.5 63t-19.5 45t-6 34t-2 22q0 16 4 29.5t15 26t11 23.5q0 17 -7 26.5t-20 24t-40 18t-53 6.5q-99 21 -174 21q-74 0 -175 -21q-36 -4 -58 -7t-36 -18.5t-20 -25.5t-6 -24q0 -9 12 -25t15 -27t3 -27 q0 -9 -2 -23t-6 -34.5t-24 -49t-38 -56t-23 -61t-10.5 -73.5t-9 -68t-15.5 -42.5t-27 -23.5t-21.5 -22t-6.5 -29q0 -15 13 -37.5t47 -22.5t44.5 18t13 25.5t2.5 17.5q0 15 -6 32q-11 17 -21 33q-1 6 30.5 42.5t44.5 61.5t36 67q10 14 16 14q10 0 10 -48q0 -39 -1 -66t-2 -50 v-27t1 -25q0 -18 -2 -30.5t-9 -29t-19 -24t-15 -14.5t-6 -18t-3 -18q0 -15 13.5 -37.5t49.5 -22.5q37 0 49.5 21.5t12.5 38.5q0 14 -5 26.5t-15.5 23t-13 16.5t-2.5 17q0 15 19 42.5t33.5 73.5t38.5 122q5 9 8 9q6 0 7.5 -72t5.5 -93t20 -65t16 -60q0 -8 -2 -13.5t-12 -11 t-16 -13.5t-6 -25q0 -13 7 -30t25 -27t40 -10q24 0 41.5 9.5t25.5 29.5zM363 613q-58 8 -93.5 16t-35.5 19q0 4 4.5 6.5t6.5 10t8 7.5q13 0 27.5 -4t28.5 -8q46 -5 84.5 -6.5t105.5 -1.5q66 0 103.5 1.5t83.5 6.5l54 12q6 0 8.5 -7.5t7.5 -10t5 -6.5q0 -10 -40 -19 t-82.5 -15t-72.5 -8t-66 -2q-74 0 -137 9zM638 736q7 1 40 6t44 5q2 0 4 -1q-3 -9 1 -13.5t4 -9.5q0 -13 -42 -19t-57.5 -7.5t-42.5 -2.5t-39 -1h-51q-33 0 -58.5 0.5t-79 7t-72.5 10t-19 15.5q0 4 4.5 8.5t1.5 10.5q1 3 3 5l84 -12q60 -7 97 -7h40h33.5t28.5 -1q19 0 38 2z M637 807q14 0 47.5 8t57.5 15v-5q-8 -9 -2.5 -19.5t-31.5 -19.5q-53 -9 -78.5 -13.5t-46.5 -5.5t-48 -1h-34h-36q-43 0 -53.5 1t-43 6.5t-68.5 11.5t-36 20q0 1 2 7q2 3 -2.5 9.5t-3.5 8.5q9 -3 52.5 -13t52.5 -10l136 -2z"
     id="path1" />
  <path
     style="fill:#ffffff;fill-opacity:0.917647;stroke-width:2.22792"
     d="m 255.09669,662.80581 c -2.50052,-4.90143 -5.42132,-8.91168 -6.49068,-8.91168 -3.93979,0 -4.66047,-7.43409 -1.10187,-11.36629 9.05477,-10.00542 74.56528,-23.45597 163.54686,-33.57929 39.13971,-4.45288 166.86876,-3.74454 203.85455,1.13049 67.8064,8.93745 128.65351,20.76702 143.46701,27.89208 11.03851,5.30936 13.72469,10.7294 7.75072,15.63905 -2.60512,2.14099 -6.39047,7.091 -8.4119,11.00001 -2.02144,3.90902 -4.15824,7.1073 -4.74846,7.1073 -0.59022,0 -14.34973,-2.91214 -30.57667,-6.47142 -48.92469,-10.73133 -78.76017,-12.46589 -214.42079,-12.46589 -137.28303,0 -169.41895,1.89783 -210.22188,12.41494 -34.33643,8.85036 -36.98865,8.70176 -42.64689,-2.3893 z"
     id="path2"
     transform="translate(-10)" />
  <path
     style="fill:#ffffff;fill-opacity:0.917647;stroke-width:2.22792"
     d="m 287.48212,747.59715 c -0.80165,-1.29709 -0.82662,-3.3792 -0.0555,-4.6269 0.77112,-1.24771 -0.6225,-5.54434 -3.09695,-9.54807 -3.79262,-6.13658 -4.07644,-8.12707 -1.80772,-12.67767 3.77595,-7.57381 13.71447,-9.94826 75.98482,-18.15381 50.67615,-6.67774 58.58022,-7.12489 142.22439,-8.04589 52.34609,-0.57638 102.11295,0.0133 121.69097,1.44194 40.50953,2.95602 89.01321,9.94312 103.49188,14.90831 13.26438,4.54878 17.33298,11.31401 11.8431,19.69262 -2.01185,3.07047 -3.65791,7.62307 -3.65791,10.11689 0,3.89332 -1.42709,4.53423 -10.09626,4.53423 -5.55295,0 -26.85742,-2.45539 -47.34327,-5.45642 -66.7715,-9.78153 -84.92888,-10.7902 -170.66786,-9.48085 -44.25263,0.6758 -90.48498,2.33163 -102.73853,3.67962 -23.46501,2.58136 -98.3171,12.80209 -108.39894,14.80142 -3.25307,0.64511 -6.57057,0.11168 -7.37222,-1.18542 z"
     id="path3"
     transform="translate(-10)" />
  <path
     style="fill:#ffffff;fill-opacity:0.917647;stroke-width:2.22792"
     d="m 270.69212,828.52338 c 0,-0.62949 1.2532,-3.33438 2.7849,-6.01088 1.53169,-2.67649 2.7849,-9.37788 2.7849,-14.89198 0,-9.66868 0.35695,-10.20066 10.02563,-14.94146 6.91248,-3.38936 29.19852,-8.10401 71.77028,-15.18312 l 61.74464,-10.26729 99.77947,0.84335 99.77945,0.84335 46.78629,8.26461 c 49.80615,8.79806 74.58308,15.11121 79.80655,20.33467 2.23123,2.23124 2.87664,6.22938 2.10736,13.0545 -0.67553,5.9931 -0.13771,10.43847 1.37603,11.37401 1.36672,0.84468 2.48493,2.80247 2.48493,4.35065 0,2.00286 -10.7651,0.082 -37.31764,-6.65869 -20.5247,-5.21045 -45.83942,-10.59863 -56.25494,-11.97372 -12.79922,-1.68979 -63.7093,-2.26876 -157.06827,-1.78622 l -138.13096,0.71394 -40.10253,9.43307 c -22.0564,5.18819 -42.85959,10.38092 -46.22931,11.53941 -3.36973,1.15848 -6.12678,1.5913 -6.12678,0.9618 z"
     id="path4"
     transform="translate(-10)" />
</svg>
