<?xml version="1.0" standalone="no"?>
<!DOCTYPE svg PUBLIC "-//W3C//DTD SVG 1.1//EN" "http://www.w3.org/Graphics/SVG/1.1/DTD/svg11.dtd" >
<svg xmlns="http://www.w3.org/2000/svg" xmlns:xlink="http://www.w3.org/1999/xlink" version="1.1" viewBox="-10 0 1010 1000">
   <path fill="currentColor"
d="M447 779q-12 -8 -25.5 13.5t-22 26.5t-19.5 11t-23 6h-135h-25q-26 0 -36.5 2t-10.5 10q0 4 6 12q22 24 48 24h174q12 0 39 -23.5t36.5 -27.5t15 -15.5t5.5 -32.5q0 -8 -5 -8q-7 2 -12 3.5t-10 -1.5zM524 785q0 22 5 33t18.5 16.5t35.5 27.5t37 22h174q14 0 25 -5.5
t20 -16t9 -14.5q0 -5 -11.5 -8.5t-38.5 -3.5h-22h-135q-13 0 -25 -7t-19 -11t-20.5 -25.5t-21.5 -16t-16.5 3t-9.5 -2.5q-5 0 -5 8zM656 713q-3 -5 -5 -10q-23 -12 -52.5 -14.5t-51.5 -4t-46 -1.5q-25 0 -46.5 1.5t-51.5 4t-52 13.5q-3 6 -6 11q29 17 67.5 23.5t88.5 6.5
q55 0 89.5 -5.5t65.5 -24.5zM443 606q-9 0 -20.5 4.5t-26.5 9.5q-4 11 -10 23t-17 21q3 0 12.5 -2t33 -6.5t51.5 -4.5h35h17q14 0 33.5 1t36.5 4q23 6 30 7t11 1q-9 -7 -16 -20t-13 -24q-7 -2 -19 -8t-22 -6h-29.5t-28.5 -1q-14 0 -28.5 0.5t-29.5 0.5zM593 587
q19 8 47.5 -32t32 -58.5t3.5 -26.5v-12q0 -29 -10 -54t-27 -51.5t-33 -41.5t-33 -27t-38 -17t-36 -10q-25 6 -42 10t-34.5 16.5t-33.5 27.5t-33 41.5t-27 52t-10 54.5q0 17 3.5 36.5t32 58.5t47.5 33q34 -10 48 -12.5t39 -2.5h13q32 0 49.5 2.5t41.5 12.5zM466 160
q-7 8 -7 24q0 9 8 19.5t33 10.5t33 -9.5t8 -21.5q0 -15 -5.5 -22t-15 -9.5t-18.5 -5.5q-14 2 -22.5 4.5t-13.5 9.5zM518 502h-36v-60h-60v-36h60v-60h36v60h56v36h-56v60zM502 841l-60 40q-7 4 -20 16.5t-32 17.5t-39.5 7.5t-48.5 2.5q-13 0 -41 -1t-45 -1h-25
q-10 0 -17.5 -1t-21.5 -6t-29 -24.5t-24 -28t-9 -18.5q0 -11 16 -22q21 -12 30.5 -17.5t20 -8t23.5 -2.5q7 0 23 1t25 1q16 0 42 1t37 1q12 0 27 -1t32 -4t26.5 -8.5t9.5 -17.5q0 -10 -12 -10q-12 1 -18 1q-8 0 -16.5 -5.5t-32 -13.5t-23.5 -24q0 -21 24.5 -43t28 -30.5
t3.5 -16.5q0 -12 -25 -35.5t-33 -42t-13.5 -42.5t-5.5 -54q0 -69 33.5 -112.5t50 -58t35 -25t34 -18.5t30.5 -8l2 -6q-28 -17 -31 -25t-3 -18q0 -21 13 -36.5t24.5 -19t33.5 -6.5q17 4 30 7t26 18.5t13 37.5q0 9 -3.5 18t-25.5 21q-4 5 -8 9q24 5 32.5 8.5t40.5 21.5
t59 53.5t40.5 68t13.5 70.5q0 53 -14.5 86.5t-38.5 54t-24 34.5q0 7 4 16t28 31t24 42q0 15 -22.5 23t-31 14t-21.5 6q-10 -1 -14 -1q-13 0 -13 8q0 13 9.5 19t23 8.5t31.5 4t34 1.5q13 0 43.5 -1t32.5 -1q9 0 25 -1t23 -1q12 0 23 2t23.5 9.5t27.5 15.5q16 11 16 23
q0 10 -9 18t-24.5 28t-27.5 25.5t-19 6.5t-18 1q-17 -1 -28 -1q-25 0 -47.5 1t-44.5 2q-33 0 -46 -2t-33 -7.5t-33 -18t-22 -18t-23.5 -17.5t-30.5 -22z" />
</svg>
