<?xml version="1.0" encoding="UTF-8" standalone="no"?>
<svg
   version="1.1"
   viewBox="-10 0 1010 1000"
   id="svg1"
   sodipodi:docname="wb.svg"
   inkscape:version="1.4.2 (ebf0e940, 2025-05-08)"
   xmlns:inkscape="http://www.inkscape.org/namespaces/inkscape"
   xmlns:sodipodi="http://sodipodi.sourceforge.net/DTD/sodipodi-0.dtd"
   xmlns="http://www.w3.org/2000/svg"
   xmlns:svg="http://www.w3.org/2000/svg">
  <defs
     id="defs1" />
  <sodipodi:namedview
     id="namedview1"
     pagecolor="#505050"
     bordercolor="#eeeeee"
     borderopacity="1"
     inkscape:showpageshadow="0"
     inkscape:pageopacity="0"
     inkscape:pagecheckerboard="0"
     inkscape:deskcolor="#d1d1d1"
     inkscape:zoom="0.29504875"
     inkscape:cx="635.48821"
     inkscape:cy="798.17319"
     inkscape:window-width="1336"
     inkscape:window-height="644"
     inkscape:window-x="80"
     inkscape:window-y="25"
     inkscape:window-maximized="0"
     inkscape:current-layer="svg1" />
  <path
     fill="currentColor"
     d="M447 779q-12 -8 -25.5 13.5t-22 26.5t-19.5 11t-23 6h-135h-25q-26 0 -36.5 2t-10.5 10q0 4 6 12q22 24 48 24h174q12 0 39 -23.5t36.5 -27.5t15 -15.5t5.5 -32.5q0 -8 -5 -8q-7 2 -12 3.5t-10 -1.5zM524 785q0 22 5 33t18.5 16.5t35.5 27.5t37 22h174q14 0 25 -5.5 t20 -16t9 -14.5q0 -5 -11.5 -8.5t-38.5 -3.5h-22h-135q-13 0 -25 -7t-19 -11t-20.5 -25.5t-21.5 -16t-16.5 3t-9.5 -2.5q-5 0 -5 8zM656 713q-3 -5 -5 -10q-23 -12 -52.5 -14.5t-51.5 -4t-46 -1.5q-25 0 -46.5 1.5t-51.5 4t-52 13.5q-3 6 -6 11q29 17 67.5 23.5t88.5 6.5 q55 0 89.5 -5.5t65.5 -24.5zM443 606q-9 0 -20.5 4.5t-26.5 9.5q-4 11 -10 23t-17 21q3 0 12.5 -2t33 -6.5t51.5 -4.5h35h17q14 0 33.5 1t36.5 4q23 6 30 7t11 1q-9 -7 -16 -20t-13 -24q-7 -2 -19 -8t-22 -6h-29.5t-28.5 -1q-14 0 -28.5 0.5t-29.5 0.5zM593 587 q19 8 47.5 -32t32 -58.5t3.5 -26.5v-12q0 -29 -10 -54t-27 -51.5t-33 -41.5t-33 -27t-38 -17t-36 -10q-25 6 -42 10t-34.5 16.5t-33.5 27.5t-33 41.5t-27 52t-10 54.5q0 17 3.5 36.5t32 58.5t47.5 33q34 -10 48 -12.5t39 -2.5h13q32 0 49.5 2.5t41.5 12.5zM466 160 q-7 8 -7 24q0 9 8 19.5t33 10.5t33 -9.5t8 -21.5q0 -15 -5.5 -22t-15 -9.5t-18.5 -5.5q-14 2 -22.5 4.5t-13.5 9.5zM518 502h-36v-60h-60v-36h60v-60h36v60h56v36h-56v60zM502 841l-60 40q-7 4 -20 16.5t-32 17.5t-39.5 7.5t-48.5 2.5q-13 0 -41 -1t-45 -1h-25 q-10 0 -17.5 -1t-21.5 -6t-29 -24.5t-24 -28t-9 -18.5q0 -11 16 -22q21 -12 30.5 -17.5t20 -8t23.5 -2.5q7 0 23 1t25 1q16 0 42 1t37 1q12 0 27 -1t32 -4t26.5 -8.5t9.5 -17.5q0 -10 -12 -10q-12 1 -18 1q-8 0 -16.5 -5.5t-32 -13.5t-23.5 -24q0 -21 24.5 -43t28 -30.5 t3.5 -16.5q0 -12 -25 -35.5t-33 -42t-13.5 -42.5t-5.5 -54q0 -69 33.5 -112.5t50 -58t35 -25t34 -18.5t30.5 -8l2 -6q-28 -17 -31 -25t-3 -18q0 -21 13 -36.5t24.5 -19t33.5 -6.5q17 4 30 7t26 18.5t13 37.5q0 9 -3.5 18t-25.5 21q-4 5 -8 9q24 5 32.5 8.5t40.5 21.5 t59 53.5t40.5 68t13.5 70.5q0 53 -14.5 86.5t-38.5 54t-24 34.5q0 7 4 16t28 31t24 42q0 15 -22.5 23t-31 14t-21.5 6q-10 -1 -14 -1q-13 0 -13 8q0 13 9.5 19t23 8.5t31.5 4t34 1.5q13 0 43.5 -1t32.5 -1q9 0 25 -1t23 -1q12 0 23 2t23.5 9.5t27.5 15.5q16 11 16 23 q0 10 -9 18t-24.5 28t-27.5 25.5t-19 6.5t-18 1q-17 -1 -28 -1q-25 0 -47.5 1t-44.5 2q-33 0 -46 -2t-33 -7.5t-33 -18t-22 -18t-23.5 -17.5t-30.5 -22z"
     id="path1" />
  <path
     id="path2"
     style="fill:#ffffff;fill-opacity:0.917647;stroke-width:1.72953"
     d="M 508.91602 147.1543 C 506.39067 147.26814 503.63618 147.80278 499.49219 148.67578 C 486.25618 151.46418 483.16998 152.87133 477.89844 158.52539 C 472.61653 164.19058 470.31345 171.16106 470.18555 181.86914 C 469.99476 197.84245 478.71232 208.40804 495.50977 212.55859 C 503.42713 214.51493 528.94827 212.28949 535.5293 209.06836 C 544.7172 204.57127 549.92609 194.85658 549.96289 182.14648 C 550.01796 163.11669 544.78362 156.47362 524.99609 150.46289 C 516.69701 147.94193 513.12492 146.96456 508.91602 147.1543 z M 508.48242 258.21289 C 500.22743 258.51557 457.58453 270.18292 448.8125 274.53906 C 422.62806 287.5421 388.55516 319.15593 369.45703 348.16602 C 353.74778 372.02839 338.22131 404.62003 333.86914 422.87109 C 331.35901 433.39744 330.36455 443.46544 330.36523 458.32617 C 330.36696 496.09461 333.86596 507.37381 355.84375 540.47852 C 370.06996 561.90717 387.12243 580.48284 396.36328 584.61719 C 403.90897 587.99312 409.63515 587.27902 437.57031 579.48633 C 460.3407 573.13435 461.81996 572.95195 497.26172 572.08789 C 542.7186 570.9797 563.425 573.0565 587.60156 581.14648 C 609.94967 588.62462 614.55423 588.69472 625.07422 581.72656 C 639.71317 572.03013 671.1321 527.20759 680.12109 503.19531 C 683.58711 493.93658 683.97153 489.73791 683.98633 460.91992 C 684.00253 429.35527 683.9273 428.70975 678.45898 413.01953 C 658.17628 354.82276 611.50418 296.83029 568.15039 275.95703 C 558.25259 271.1916 513.93629 258.01292 508.48242 258.21289 z M 491.1875 344.92383 L 509.7793 345.41602 L 528.37109 345.90625 L 528.84375 375.74023 L 529.31836 405.57422 L 556.94922 405.57422 L 584.58203 405.57422 L 584.58203 423.73438 L 584.58203 441.89453 L 556.94922 441.89453 L 529.31836 441.89453 L 528.84375 471.72852 L 528.37109 501.56445 L 509.7793 502.05469 L 491.1875 502.54492 L 491.1875 472.2207 L 491.1875 441.89453 L 461.78516 441.89453 L 432.38281 441.89453 L 432.38281 423.73438 L 432.38281 405.57422 L 461.78516 405.57422 L 491.1875 405.57422 L 491.1875 375.25 L 491.1875 344.92383 z M 574.20312 606.04688 L 508.04883 606.58594 L 441.89453 607.125 L 424.01172 613.87891 C 409.46469 619.37342 405.81065 621.46616 404.43359 625.0918 C 399.82332 637.23007 392.20501 650.96514 386.85352 656.78906 C 383.57573 660.35622 381.38827 663.27158 381.99219 663.26758 C 382.5961 663.26393 394.76458 660.82392 409.0332 657.84375 C 434.66302 652.49065 435.71777 652.41594 496.375 651.63867 C 563.50796 650.77842 584.28599 652.09527 612.89062 659.02539 C 637.33216 664.94691 637.67015 664.8805 630.56055 655.56641 C 627.32434 651.32677 621.3152 641.63534 617.20703 634.0293 L 609.73828 620.19922 L 591.9707 613.12305 L 574.20312 606.04688 z M 579.31445 686.65625 C 536.21377 683.3079 484.83123 683.31022 441.41602 686.66406 C 389.08208 690.70688 363.89118 696.81601 358.77734 706.70508 C 357.40513 709.35864 356.2832 711.94592 356.2832 712.45508 C 356.2832 714.2485 376.33499 723.37574 390.00977 727.80664 C 412.57349 735.11775 433.87093 738.56647 476.48633 741.81055 C 492.32612 743.01635 564.43549 741.29232 582.85156 739.26758 C 608.33044 736.46633 630.91612 730.35704 649.85352 721.14453 L 666.08203 713.25 L 662.9043 707.80859 C 656.51092 696.86162 632.50508 690.78795 579.31445 686.65625 z M 568.83203 775.99219 C 567.33783 775.95363 565.55633 776.72883 562.10938 778.2832 C 555.9733 781.05018 553.94518 781.19184 546.17578 779.39844 C 534.84875 776.78385 533.97435 777.93011 535.03516 794.00195 C 536.63455 818.23363 541.22934 825.32364 563.31055 837.63867 C 568.96601 840.79281 581.47683 850.61664 591.11133 859.46875 C 600.74583 868.32087 611.9739 877.22943 616.0625 879.26562 C 623.43163 882.93558 624.35266 882.96324 722.07812 882.51367 L 820.66211 882.06055 L 828.44531 878.02344 C 837.34786 873.40609 849.48679 862.23447 854.68555 853.87305 C 857.96308 848.60163 858.01984 847.93354 855.4375 845.08008 C 848.8258 837.77424 844.15108 837.42675 738.50977 836.37305 L 637.33203 835.36328 L 624.6543 828.58984 C 605.60117 818.41109 600.91557 814.29458 589.23047 797.46875 C 583.34438 788.99313 576.41544 780.49618 573.83398 778.58594 C 571.533 776.88325 570.32623 776.03074 568.83203 775.99219 z M 479.00391 777.85547 C 478.24564 777.87505 477.28923 778.09614 476.02734 778.47266 C 470.58025 780.09792 459.80864 780.03169 452.24609 778.32617 C 445.26432 776.75163 440.35163 780.78459 428.30078 797.98242 C 416.98135 814.13647 410.93042 819.40472 393.22266 828.51758 L 379.91992 835.36328 L 276.00391 836.27148 C 169.62245 837.2022 163.9374 837.58564 161.48047 843.98828 C 158.18959 852.56419 171.01347 867.87767 189.03711 876.89453 L 201.25391 883.00781 L 299.08984 882.5332 L 396.92773 882.06055 L 405.875 876.00781 C 410.79653 872.67846 423.63816 862.7614 434.41211 853.9707 C 445.18606 845.18001 458.24427 835.45138 463.42969 832.35156 C 470.318 828.23375 473.94903 824.58685 476.90625 818.81445 C 481.4572 809.93116 484.64047 787.55089 482.26562 781.13477 C 481.38097 778.74466 480.6721 777.81239 479.00391 777.85547 z "
     transform="translate(-10)" />
</svg>
