<?xml version="1.0" standalone="no"?>
<!DOCTYPE svg PUBLIC "-//W3C//DTD SVG 1.1//EN" "http://www.w3.org/Graphics/SVG/1.1/DTD/svg11.dtd" >
<svg xmlns="http://www.w3.org/2000/svg" xmlns:xlink="http://www.w3.org/1999/xlink" version="1.1" viewBox="-10 0 1010 1000">
   <path fill="currentColor"
d="M722 852q-4 -6 -8 -11q-36 -12 -75 -12q-22 0 -67 -3t-73 -3q-29 0 -72 4t-66 4q-25 0 -59 8q-12 6 -23 13q43 18 98.5 26t123.5 8q134 0 221 -34zM476 632v-109v1q-11 -44 -27 -65q-19 -17 -28.5 -29t-18 -18.5t-35.5 -23.5t-44.5 -25.5t-42.5 -8.5q-34 0 -49.5 3
t-43 21.5t-36 46.5t-8.5 47q0 16 3.5 31t7.5 32t10.5 31t21 37.5t27.5 38.5t29 30q22 -8 52 -16t66 -14t57.5 -8t58.5 -2zM658 644q14 2 47 10.5t55 17.5q19 -18 28.5 -29t27 -38.5t24 -42.5t10 -31t6.5 -33t3 -27q0 -18 -8.5 -46t-35 -46t-45.5 -21.5t-48 -3.5
q-26 0 -41.5 7.5t-42 24t-38 26t-25 25t-28.5 32.5q-13 21 -21 55v-1v109q36 0 59.5 2.5t72.5 9.5zM618 786l88 15v-4q-11 -11 -8 -14q4 -4 4 -8q0 -10 -20.5 -15t-57.5 -10t-55 -5q-12 0 -23.5 0.5t-23.5 0.5h-15q-7 -1 -10 -1q-9 1 -18 1h-14h-20q-15 0 -28.5 0.5t-25 4
t-56.5 10t-45 16.5q0 3 5 10q3 3 -1.5 8t-7.5 9q11 -1 51.5 -10t56.5 -11.5t31.5 -3.5t36.5 -1h35q30 0 51 0.5t70 7.5zM373 669q-47 9 -81 16.5t-34 22.5q0 7 5 12q7 11 11.5 17.5t9.5 6.5q11 0 24 -6.5t28 -10t38 -6t52 -2.5q17 0 35.5 0.5t37.5 0.5h33t32 -1q26 0 48.5 2
t51.5 9q16 7 26 10.5t21 3.5q6 0 10 -11t7 -15t3 -10q0 -15 -43 -25q-37 -7 -73 -14q-29 -8 -58.5 -11t-59.5 -6q-45 4 -70 6.5t-54 10.5zM562 387l6 -40q0 -9 -1.5 -14t-13 -25t-51.5 -20q-42 0 -55.5 24t-13.5 38q0 9 3 20t6 24.5t20.5 38.5t38.5 53q4 -7 30 -40t31 -59z
M526 150h74v50h-75v58q11 -5 29 6t28.5 23.5t16.5 70.5q3 4 7 8q11 -28 51 -42.5t73 -14.5q31 0 61.5 11t44.5 19t31.5 26.5t26 47t8.5 67.5q0 45 -23 90q-19 33 -29 52l-80 104q-9 18 -14 29.5t-5 23.5q0 6 2 13.5t25.5 17.5t25.5 24q4 28 -26 40.5t-52 23t-50.5 16
t-72.5 13.5t-101 8t-104.5 -9t-72.5 -13q-26 -6 -50.5 -17.5t-50.5 -22.5q-28 -15 -24 -39q2 -12 26 -24t26 -22q3 -16 -4.5 -31.5t-15.5 -30.5q-9 -22 -41 -57t-54.5 -75.5t-29.5 -61.5t-7 -52q0 -41 8 -68t26.5 -46.5t30.5 -26.5t44 -18.5t64 -11.5q34 0 63.5 11t41 21
t16.5 25q2 -3 5 -6q7 -58 18 -71t28.5 -24.5t28.5 -6.5v-58h-74v-50h74v-73h52v73z" />
</svg>
