<?xml version="1.0" standalone="no"?>
<!DOCTYPE svg PUBLIC "-//W3C//DTD SVG 1.1//EN" "http://www.w3.org/Graphics/SVG/1.1/DTD/svg11.dtd" >
<svg xmlns="http://www.w3.org/2000/svg" xmlns:xlink="http://www.w3.org/1999/xlink" version="1.1" viewBox="-10 0 1010 1000">
   <path fill="currentColor"
d="M918 920h-618q0 -71 8.5 -99t30.5 -60l114 -126q19 -30 29 -48t19 -45q-6 0 -12 -1q-35 28 -69 55q-13 7 -46.5 19.5t-49 25.5t-28.5 38t-26.5 38t-22 21t-20.5 8q-11 0 -23.5 -12.5t-21.5 -12.5q-6 0 -13 3.5t-14 3.5q-20 0 -42 -22t-29 -50q-2 -13 -3 -19t-1 -11
q0 -43 36.5 -109t51 -106.5t27 -73.5t33 -59.5t24.5 -34.5t6 -22q3 -21 -7 -39.5t-15.5 -29.5t-11 -25t-5.5 -20q0 -11 9 -15t21 2q10 7 21 12.5t32 23t31 24.5t20.5 14.5t21.5 4.5q12 -3 18 -18q6 -21 8 -27.5t3.5 -24.5t8.5 -25t13 -7q12 0 29.5 34.5t22 40.5t15 22
t18.5 21.5t17.5 7.5t16.5 2q19 -1 30 -1q5 0 19 2q30 7 50.5 17t51 31t50 42.5t47 60t42.5 68.5t36 86t30.5 94.5t15 85t7.5 71.5t2 53q0 25 -2 48.5t-6 62.5zM867 698q-12 -90 -35 -155.5t-38 -97.5t-37.5 -63t-40.5 -57q-20 -24 -38 -33.5t-42.5 -29.5t-41.5 -20
q-14 0 -28 2t-32 4q-6 0 -19 6t-18 6q-6 0 -13 -9.5t-15 -37.5t-20 -40t-17 -12q-7 0 -19 19.5t-18.5 25.5t-17 20.5t-19 21t-15.5 12t-13.5 8.5t-23.5 4t-35 13t-34.5 59.5t-25 71t-47.5 92t-39 104.5q0 16 4.5 31t10.5 20.5t16 7.5q11 2 22 -4.5t17 -10.5q4 -7 18 -17
t24 -10q7 0 12 6q3 4 -6 21t-9 24q5 0 11 -1q44 -70 55.5 -79.5t48 -23.5t52 -24t31 -22t31 -25t52.5 -64t44 -51q5 0 5 11q0 40 -3.5 64t-13 65t-17.5 75q-11 34 -35 63q-56 60 -111 120q-13 18 -19.5 35.5t-13.5 48.5h522v-67v-13q0 -38 -6 -94zM255 419q0 -29 1 -38.5
t8 -27.5q4 -15 7 -21t15.5 -15t36.5 -9q25 0 25 18q0 8 -8 15t-19 15q-10 12 -16 18.5t-10.5 16.5t-16.5 19t-16 11q-4 -1 -7 -2zM159 587q4 -7 15 -15t17 -8q4 0 4 5q0 7 -0.5 14t-6 19t-10.5 16.5t-19 10.5q-4 2 -6 -1t-2 -10q0 -17 8 -31zM348 198q-16 -10 -31.5 -20.5
t-30.5 -16.5q-2 5 -4 9q11 53 11 63q0 6 7 6q6 0 12.5 -2.5t16 -9.5t16.5 -16.5t3 -12.5z" />
</svg>
