<?xml version="1.0" encoding="UTF-8" standalone="no"?>
<svg
   version="1.1"
   viewBox="-10 0 1010 1000"
   id="svg1"
   sodipodi:docname="wn.svg"
   inkscape:version="1.4.2 (ebf0e940, 2025-05-08)"
   xmlns:inkscape="http://www.inkscape.org/namespaces/inkscape"
   xmlns:sodipodi="http://sodipodi.sourceforge.net/DTD/sodipodi-0.dtd"
   xmlns="http://www.w3.org/2000/svg"
   xmlns:svg="http://www.w3.org/2000/svg">
  <defs
     id="defs1" />
  <sodipodi:namedview
     id="namedview1"
     pagecolor="#505050"
     bordercolor="#eeeeee"
     borderopacity="1"
     inkscape:showpageshadow="0"
     inkscape:pageopacity="0"
     inkscape:pagecheckerboard="0"
     inkscape:deskcolor="#d1d1d1"
     inkscape:zoom="0.56619088"
     inkscape:cx="283.47331"
     inkscape:cy="545.75235"
     inkscape:window-width="1368"
     inkscape:window-height="693"
     inkscape:window-x="0"
     inkscape:window-y="25"
     inkscape:window-maximized="0"
     inkscape:current-layer="svg1" />
  <path
     fill="currentColor"
     d="M918 920h-618q0 -71 8.5 -99t30.5 -60l114 -126q19 -30 29 -48t19 -45q-6 0 -12 -1q-35 28 -69 55q-13 7 -46.5 19.5t-49 25.5t-28.5 38t-26.5 38t-22 21t-20.5 8q-11 0 -23.5 -12.5t-21.5 -12.5q-6 0 -13 3.5t-14 3.5q-20 0 -42 -22t-29 -50q-2 -13 -3 -19t-1 -11 q0 -43 36.5 -109t51 -106.5t27 -73.5t33 -59.5t24.5 -34.5t6 -22q3 -21 -7 -39.5t-15.5 -29.5t-11 -25t-5.5 -20q0 -11 9 -15t21 2q10 7 21 12.5t32 23t31 24.5t20.5 14.5t21.5 4.5q12 -3 18 -18q6 -21 8 -27.5t3.5 -24.5t8.5 -25t13 -7q12 0 29.5 34.5t22 40.5t15 22 t18.5 21.5t17.5 7.5t16.5 2q19 -1 30 -1q5 0 19 2q30 7 50.5 17t51 31t50 42.5t47 60t42.5 68.5t36 86t30.5 94.5t15 85t7.5 71.5t2 53q0 25 -2 48.5t-6 62.5zM867 698q-12 -90 -35 -155.5t-38 -97.5t-37.5 -63t-40.5 -57q-20 -24 -38 -33.5t-42.5 -29.5t-41.5 -20 q-14 0 -28 2t-32 4q-6 0 -19 6t-18 6q-6 0 -13 -9.5t-15 -37.5t-20 -40t-17 -12q-7 0 -19 19.5t-18.5 25.5t-17 20.5t-19 21t-15.5 12t-13.5 8.5t-23.5 4t-35 13t-34.5 59.5t-25 71t-47.5 92t-39 104.5q0 16 4.5 31t10.5 20.5t16 7.5q11 2 22 -4.5t17 -10.5q4 -7 18 -17 t24 -10q7 0 12 6q3 4 -6 21t-9 24q5 0 11 -1q44 -70 55.5 -79.5t48 -23.5t52 -24t31 -22t31 -25t52.5 -64t44 -51q5 0 5 11q0 40 -3.5 64t-13 65t-17.5 75q-11 34 -35 63q-56 60 -111 120q-13 18 -19.5 35.5t-13.5 48.5h522v-67v-13q0 -38 -6 -94zM255 419q0 -29 1 -38.5 t8 -27.5q4 -15 7 -21t15.5 -15t36.5 -9q25 0 25 18q0 8 -8 15t-19 15q-10 12 -16 18.5t-10.5 16.5t-16.5 19t-16 11q-4 -1 -7 -2zM159 587q4 -7 15 -15t17 -8q4 0 4 5q0 7 -0.5 14t-6 19t-10.5 16.5t-19 10.5q-4 2 -6 -1t-2 -10q0 -17 8 -31zM348 198q-16 -10 -31.5 -20.5 t-30.5 -16.5q-2 5 -4 9q11 53 11 63q0 6 7 6q6 0 12.5 -2.5t16 -9.5t16.5 -16.5t3 -12.5z"
     id="path1" />
  <path
     style="fill:#ffffff;stroke-width:1.76619"
     d="m 362.9518,869.29755 c 0,-3.73964 6.96855,-29.26573 11.63829,-42.63156 8.18536,-23.4283 16.02337,-33.63984 72.82701,-94.88066 29.79928,-32.12704 58.39435,-63.68121 63.54459,-70.12032 5.15023,-6.43914 13.68108,-20.45016 18.95743,-31.1356 8.62665,-17.47034 10.67322,-24.05546 20.30958,-65.34899 19.85535,-85.08365 24.64932,-114.82396 24.62654,-152.77533 -0.0112,-18.73133 -1.06964,-22.96045 -5.74623,-22.96045 -5.13622,0 -15.11912,11.44882 -47.38462,54.34277 -15.54092,20.66017 -33.17083,42.81768 -39.17755,49.23887 -12.97181,13.86691 -41.4989,37.05799 -64.90417,52.76378 -15.81629,10.61331 -24.30429,14.67888 -73.42416,35.16858 -35.0665,14.62752 -37.31167,16.7748 -70.75974,67.67421 -17.0632,25.96582 -20.67249,30.46675 -24.43128,30.46675 -2.42569,0 -4.41034,-0.51221 -4.41034,-1.13825 0,-0.62605 3.57653,-8.94075 7.94785,-18.47713 4.37132,-9.53638 7.94785,-18.90129 7.94785,-20.81091 0,-4.55961 -8.08531,-10.80344 -13.92615,-10.7544 -9.55319,0.0802 -30.50154,12.89032 -39.64433,24.24283 -5.30967,6.59296 -27.64832,18.05704 -35.23723,18.08357 -19.90924,0.0696 -30.73755,-14.24255 -34.70656,-45.87282 -2.14221,-17.07192 1.13688,-36.64622 9.85227,-58.81251 8.04812,-20.46918 12.61027,-29.59848 35.09657,-70.23162 29.49883,-53.30488 36.62834,-68.94673 54.68378,-119.97392 18.42652,-52.07591 23.93876,-64.63989 34.64569,-78.96746 9.55963,-12.79229 26.44093,-21.06665 48.40329,-23.72483 17.87411,-2.16337 21.7046,-3.7556 37.97306,-15.78427 12.51887,-9.25629 24.3527,-21.05315 33.55986,-33.45499 3.24527,-4.37132 8.89628,-11.12699 12.5578,-15.01261 3.66152,-3.88561 11.67212,-14.55201 17.80135,-23.7031 6.1292,-9.15108 13.28417,-18.21363 15.89994,-20.13899 4.48408,-3.30056 5.01106,-3.33347 9.21982,-0.57579 14.75409,9.66725 23.1506,23.62686 33.62195,55.89811 9.64005,29.70929 16.8745,40.62234 26.92924,40.62234 2.18709,0 10.15267,-2.45343 17.70131,-5.45207 10.49315,-4.16833 20.38083,-6.28545 41.99295,-8.99145 45.29634,-5.67143 49.46488,-4.6053 84.12065,21.51429 11.2908,8.50972 26.39171,18.8798 33.55758,23.04464 20.7053,12.03397 35.58329,27.99291 65.76968,70.54814 40.85267,57.59199 49.45521,73.11112 70.76038,127.65295 25.37035,64.94881 38.60604,110.9147 48.68474,169.07599 8.49882,49.04411 10.79543,77.85683 11.8607,148.80141 l 0.97466,64.90744 H 622.80882 c -213.22347,0 -259.85702,-0.41575 -259.85702,-2.31664 z M 185.15259,621.50012 c 9.95744,-6.55967 19.45345,-27.18304 20.32417,-44.13988 0.7663,-14.92345 -1.19755,-16.71117 -12.68778,-11.54982 -11.38471,5.11397 -23.1059,16.59029 -27.69959,27.12093 -4.9488,11.34472 -6.06801,34.00819 -1.80995,36.65085 2.97192,1.84445 11.70083,-1.38087 21.87315,-8.08208 z m 99.68128,-208.05271 c 10.81892,-7.96444 17.19523,-15.19417 22.29459,-25.2786 4.8162,-9.52445 22.91812,-29.89011 35.27474,-39.68603 14.4111,-11.42463 18.27928,-18.50529 15.38566,-28.16331 -2.84254,-9.48754 -9.66615,-12.73699 -26.62846,-12.68067 -16.45446,0.0546 -25.53746,2.51731 -36.35763,9.85765 -11.69442,7.93342 -14.14126,11.89841 -22.15612,35.90292 -6.01436,18.01299 -7.17215,23.98845 -8.06428,41.62038 -0.57293,11.32325 -0.55572,21.85415 0.0382,23.402 1.87809,4.89426 9.28319,3.0719 20.21325,-4.97434 z"
     id="path2"
     transform="translate(-10)" />
  <path
     style="fill:#ffffff;stroke-width:1.76619"
     d="m 303.96353,231.81228 c -2.3073,-15.32691 -10.15516,-58.69348 -10.72456,-59.26288 -0.35545,-0.35545 0.15365,-2.94097 1.13134,-5.74558 l 1.77763,-5.0993 9.11683,4.57524 c 17.52183,8.79324 52.38847,32.69057 52.38847,35.90666 0,7.0956 -21.25391,27.21018 -34.8255,32.95868 -3.12587,1.32401 -8.45465,2.4073 -11.84175,2.4073 -5.59318,0 -6.23766,-0.5268 -7.02246,-5.74012 z"
     id="path3"
     transform="translate(-10)" />
</svg>
