<?xml version="1.0" standalone="no"?>
<!DOCTYPE svg PUBLIC "-//W3C//DTD SVG 1.1//EN" "http://www.w3.org/Graphics/SVG/1.1/DTD/svg11.dtd" >
<svg xmlns="http://www.w3.org/2000/svg" xmlns:xlink="http://www.w3.org/1999/xlink" version="1.1" viewBox="-10 0 1010 1000">
   <path fill="currentColor"
d="M228 757q10 -45 23 -69.5t38 -55t45 -42t59 -24.5q3 -2 6 -5q-19 -12 -37 -24q-15 -14 -23.5 -44t-8.5 -55q0 -11 2 -23t16.5 -37.5t30 -38t32 -15t31.5 -4.5q2 -2 5 -4q-16 -7 -31 -14q-12 -10 -18 -27.5t-6 -35.5q0 -17 3.5 -29t19.5 -29.5t31.5 -27.5t51.5 -10
q37 0 53.5 9.5t36 31t19.5 56.5q0 41 -24 62q-25 10 -31 13q2 3 5 5q16 2 33 3q14 3 31.5 16.5t31 42t15 37t1.5 19.5q0 27 -7.5 55.5t-22.5 42t-25 18.5t-15 8q4 3 23.5 9.5t41 18.5t45 41t38 57.5t22 60t8.5 44.5t1 32q0 9 -1 32t-1 39h-554q0 -18 -0.5 -35t-0.5 -33
q0 -21 1 -35.5t6 -35.5zM441 206q-13 17 -13 37q0 6 1.5 13.5t4.5 14t12.5 13t12.5 9.5l27 27q-33 14 -44.5 22t-22 14.5t-19.5 17t-16 26.5t-10.5 25.5t-3.5 20.5q0 13 6 27t15.5 30t22 27t28 22.5t23.5 16.5l-63 30q-27 13 -44 25.5t-35.5 36t-27 44t-14.5 49t-7 42.5
t-1 32v23h449v-23q0 -18 -1 -32t-7 -42t-14.5 -48.5t-26.5 -43.5t-35 -36.5t-45 -26.5l-63 -30q12 -8 24.5 -16.5t21.5 -17.5t15.5 -16t14 -19t13.5 -26t6 -28q0 -11 -5 -23.5t-10.5 -25.5t-13.5 -22.5t-24 -19.5t-23 -15.5t-23.5 -12.5t10.5 -34q12 -10 24 -21q6 -15 6 -31
q0 -20 -16.5 -41t-49.5 -21q-14 0 -32 7t-27 20z" />
</svg>
