<?xml version="1.0" encoding="UTF-8" standalone="no"?>
<svg
   version="1.1"
   viewBox="-10 0 1010 1000"
   id="svg1"
   sodipodi:docname="wp.svg"
   inkscape:version="1.4.2 (ebf0e940, 2025-05-08)"
   xmlns:inkscape="http://www.inkscape.org/namespaces/inkscape"
   xmlns:sodipodi="http://sodipodi.sourceforge.net/DTD/sodipodi-0.dtd"
   xmlns="http://www.w3.org/2000/svg"
   xmlns:svg="http://www.w3.org/2000/svg">
  <defs
     id="defs1" />
  <sodipodi:namedview
     id="namedview1"
     pagecolor="#505050"
     bordercolor="#eeeeee"
     borderopacity="1"
     inkscape:showpageshadow="0"
     inkscape:pageopacity="0"
     inkscape:pagecheckerboard="0"
     inkscape:deskcolor="#d1d1d1"
     inkscape:zoom="1.2903804"
     inkscape:cx="649.80837"
     inkscape:cy="699.79363"
     inkscape:window-width="1144"
     inkscape:window-height="705"
     inkscape:window-x="157"
     inkscape:window-y="61"
     inkscape:window-maximized="0"
     inkscape:current-layer="svg1" />
  <path
     fill="currentColor"
     d="M228 757q10 -45 23 -69.5t38 -55t45 -42t59 -24.5q3 -2 6 -5q-19 -12 -37 -24q-15 -14 -23.5 -44t-8.5 -55q0 -11 2 -23t16.5 -37.5t30 -38t32 -15t31.5 -4.5q2 -2 5 -4q-16 -7 -31 -14q-12 -10 -18 -27.5t-6 -35.5q0 -17 3.5 -29t19.5 -29.5t31.5 -27.5t51.5 -10 q37 0 53.5 9.5t36 31t19.5 56.5q0 41 -24 62q-25 10 -31 13q2 3 5 5q16 2 33 3q14 3 31.5 16.5t31 42t15 37t1.5 19.5q0 27 -7.5 55.5t-22.5 42t-25 18.5t-15 8q4 3 23.5 9.5t41 18.5t45 41t38 57.5t22 60t8.5 44.5t1 32q0 9 -1 32t-1 39h-554q0 -18 -0.5 -35t-0.5 -33 q0 -21 1 -35.5t6 -35.5zM441 206q-13 17 -13 37q0 6 1.5 13.5t4.5 14t12.5 13t12.5 9.5l27 27q-33 14 -44.5 22t-22 14.5t-19.5 17t-16 26.5t-10.5 25.5t-3.5 20.5q0 13 6 27t15.5 30t22 27t28 22.5t23.5 16.5l-63 30q-27 13 -44 25.5t-35.5 36t-27 44t-14.5 49t-7 42.5 t-1 32v23h449v-23q0 -18 -1 -32t-7 -42t-14.5 -48.5t-26.5 -43.5t-35 -36.5t-45 -26.5l-63 -30q12 -8 24.5 -16.5t21.5 -17.5t15.5 -16t14 -19t13.5 -26t6 -28q0 -11 -5 -23.5t-10.5 -25.5t-13.5 -22.5t-24 -19.5t-23 -15.5t-23.5 -12.5t10.5 -34q12 -10 24 -21q6 -15 6 -31 q0 -20 -16.5 -41t-49.5 -21q-14 0 -32 7t-27 20z"
     id="path1" />
  <path
     style="fill:#ffffff;fill-opacity:1;stroke-width:0.97711"
     d="m 285.20679,788.28349 c 4.0338,-26.63208 11.71976,-59.41321 17.69798,-75.48313 9.32553,-25.06772 27.25759,-51.75602 49.87066,-74.22253 16.66681,-16.55879 33.08359,-26.53115 82.03852,-49.83428 17.19714,-8.18603 33.39663,-15.96812 35.99888,-17.29352 l 4.73137,-2.4098 -12.92571,-9.21938 c -41.88306,-29.87341 -54.57807,-43.51614 -70.86135,-76.1514 -8.97474,-17.98732 -10.70131,-24.26968 -10.60726,-38.59584 0.072,-10.96234 0.30391,-12.32935 3.5644,-21.00787 10.84096,-28.85568 18.86452,-43.406 30.41326,-55.15295 11.50511,-11.70257 47.45753,-33.94637 71.47324,-44.22058 4.29928,-1.83929 8.24254,-3.76454 8.76279,-4.27836 1.3517,-1.33495 -23.32964,-25.96565 -34.16765,-34.09751 -14.6207,-10.97008 -17.14676,-14.32638 -20.46014,-27.18494 -4.98,-19.32635 -1.33481,-36.73225 11.145,-53.2177 7.09675,-9.3746 15.56758,-15.3754 28.56789,-20.23774 26.05579,-9.74532 52.81027,-7.31378 70.40754,6.39889 8.62661,6.72229 18.55251,22.08897 22.27043,34.47775 1.88659,6.2865 2.09251,8.68406 1.63644,19.05365 -0.36649,8.3331 -1.17477,13.96475 -2.71679,18.92928 l -2.19509,7.06704 -13.6333,11.90529 c -19.55245,17.0742 -27.03741,26.70276 -27.09138,34.84996 -0.0352,5.30996 1.56901,6.88615 12.00751,11.79806 5.47581,2.57668 13.03391,6.80846 16.79578,9.40395 3.76187,2.59548 13.92099,9.45821 22.57583,15.25051 16.95123,11.34471 26.24752,20.0876 32.5583,30.62011 4.70248,7.84831 18.05711,40.67984 19.9725,49.10117 3.74215,16.45299 0.45687,31.21331 -12.24174,55.00049 -7.9297,14.85403 -14.07659,23.04274 -28.15876,37.51224 -13.49041,13.86148 -23.7463,22.1818 -42.2858,34.30535 -5.75271,3.76187 -10.34917,7.19589 -10.21437,7.63117 0.13481,0.43526 17.16475,8.84491 37.84432,18.68811 39.91625,18.99961 52.60727,25.81733 65.60124,35.24158 21.45247,15.55901 49.20606,49.31705 61.84897,75.22989 9.83937,20.16672 19.78532,57.20481 24.33755,90.6316 l 0.49901,3.66416 H 507.42233 284.5778 Z"
     id="path2"
     transform="translate(-10)" />
  <path
     style="fill:#ffffff;fill-opacity:1;stroke-width:2.70281"
     d="m 285.14654,821.63878 v -27.04382 l 222.30619,0.69141 222.30619,0.69141 0.77357,26.35241 0.77357,26.3524 H 508.2263 285.14654 Z"
     id="path3"
     transform="translate(-10)" />
  <path
     style="fill:#ffffff;fill-opacity:1;stroke-width:2.70281"
     d="m 289.4448,772.66131 c 12.60319,-66.14411 30.97842,-101.57252 72.00172,-138.82312 13.36804,-12.13868 27.49519,-20.56315 66.89462,-39.89141 l 49.94763,-24.50292 -7.82337,-5.65672 c -44.35022,-32.0676 -62.60341,-51.2628 -77.47718,-81.47574 -11.56324,-23.48827 -12.93997,-39.78941 -5.18462,-61.38828 7.79149,-21.69955 19.28992,-41.98957 28.92091,-51.03357 9.80688,-9.20918 40.75003,-28.98154 62.3487,-39.8402 9.29092,-4.67097 16.89257,-9.60746 16.89257,-10.96997 0,-1.36251 -11.53081,-13.18336 -25.62402,-26.26855 -23.10163,-21.44929 -25.92305,-25.12745 -28.66169,-37.36496 -8.09775,-36.1846 20.24824,-69.09024 63.34853,-73.53858 40.61134,-4.19146 73.42683,29.75858 67.86337,70.20968 -1.75518,12.76166 -3.70275,15.88169 -20.78105,33.29149 -21.9558,22.382 -23.61481,24.69306 -23.67002,32.97322 -0.0281,4.21444 2.69774,7.68508 8.49117,10.81124 19.29334,10.41078 55.64636,35.93575 65.13268,45.73235 13.48668,13.92778 30.02396,53.71365 30.12597,72.47792 0.16717,30.7475 -28.95805,72.74326 -73.38459,105.81345 -10.77746,8.02254 -19.59538,15.14163 -19.59538,15.82023 0,0.67859 20.98057,11.68371 46.62349,24.45581 25.64292,12.77211 50.88041,26.42909 56.08333,30.34886 25.85054,19.47535 56.71675,59.96089 67.31961,88.29959 6.02316,16.09835 14.98657,50.44875 17.82106,68.29549 l 1.82442,11.48694 H 507.3286 285.77454 Z"
     id="path4"
     transform="translate(-10)" />
  <path
     style="fill:#ffffff;fill-opacity:1;stroke-width:1.58264"
     d="m 285.66605,822.18013 v -26.11352 h 221.33054 221.33053 l 1.02183,15.43072 c 0.56201,8.48689 1.02552,20.23797 1.03003,26.11351 l 0.008,10.6828 H 508.0266 285.66605 Z"
     id="path5"
     transform="translate(-10)" />
  <path
     style="fill:#ffffff;fill-opacity:1;stroke-width:1.58264"
     d="m 286.53647,785.38381 c 11.49067,-67.26437 23.11734,-95.36943 55.08841,-133.16485 20.77839,-24.56372 35.6709,-34.47195 95.5787,-63.59003 21.10843,-10.25971 38.35634,-19.23888 38.32869,-19.95371 -0.0276,-0.71485 -5.191,-4.84628 -11.47412,-9.18096 -18.1733,-12.53767 -40.93143,-31.41953 -48.00551,-39.82902 -9.28895,-11.04246 -17.4332,-24.23027 -25.70581,-41.62483 -6.54236,-13.75645 -7.24864,-16.40353 -7.83704,-29.37288 -0.60631,-13.36386 -0.29052,-15.17617 5.05723,-29.02325 8.63336,-22.35461 17.77468,-38.76009 26.83184,-48.15381 10.46586,-10.85476 37.01147,-28.34198 62.086,-40.89986 10.81958,-5.41868 19.67196,-10.34195 19.67196,-10.94059 0,-1.96473 -23.32799,-24.84773 -36.11887,-35.42988 -16.17047,-13.37816 -19.88616,-20.9196 -19.99193,-40.57606 -0.0675,-12.53704 0.36717,-14.42476 5.89742,-25.61448 9.55546,-19.33416 24.7563,-30.30873 49.17299,-35.5015 14.02902,-2.9836 28.60112,-2.01139 41.35056,2.75878 12.29847,4.60145 23.74482,15.94313 31.0108,30.72724 5.22035,10.62185 5.43356,11.75675 5.35212,28.48747 -0.057,11.7178 -0.83457,19.03744 -2.37396,22.34829 -1.25902,2.70787 -8.51641,10.44058 -16.12753,17.18381 -20.68612,18.32727 -28.9811,31.26639 -24.91492,38.86411 0.92429,1.72706 6.08443,5.36318 11.46696,8.08028 5.38255,2.7171 17.28486,9.94519 26.44959,16.06241 37.37077,24.94406 43.09538,31.58082 57.0014,66.08402 7.91855,19.64724 8.58709,22.29707 8.57066,33.97055 -0.0149,10.57655 -0.85062,14.70019 -5.076,25.04597 -13.63223,33.37838 -36.19428,59.54067 -73.53075,85.26418 -7.62931,5.25632 -14.23505,10.14523 -14.67942,10.86423 -0.44438,0.71901 18.84455,10.9318 42.86427,22.6951 43.8908,21.49485 57.19456,29.2458 70.35772,40.99132 19.46954,17.37271 43.39868,48.7967 53.02656,69.63501 8.4582,18.30663 18.22518,54.4457 22.21827,82.2103 l 1.08116,7.51753 H 507.34327 285.52262 Z"
     id="path6"
     transform="translate(-10)" />
  <path
     style="fill:#ffffff;fill-opacity:1;stroke-width:1.58264"
     d="m 285.66605,789.86389 c 0,-3.69921 8.44033,-43.64251 12.06626,-57.10278 7.86305,-29.18938 19.87225,-51.69567 41.50161,-77.77763 22.16969,-26.73353 36.86582,-36.69388 97.96966,-66.39921 21.10843,-10.26174 38.37896,-19.00735 38.37896,-19.43466 0,-0.42731 -9.5661,-7.90356 -21.25797,-16.61389 -35.61837,-26.53532 -47.53134,-40.35146 -63.78943,-73.98017 -6.84039,-14.14884 -7.46054,-16.44195 -8.042,-29.73652 -0.59116,-13.5165 -0.27807,-15.31679 5.07388,-29.17475 8.68765,-22.49519 18.1101,-39.39385 27.0993,-48.60115 10.17595,-10.42283 33.79651,-25.97785 60.2985,-39.70878 11.22038,-5.81339 20.7193,-10.83282 21.10871,-11.15429 1.12883,-0.93188 -24.94517,-26.7715 -37.27125,-36.93623 -14.77885,-12.18742 -18.65277,-20.36636 -18.75626,-39.59975 -0.0674,-12.533 0.36819,-14.42684 5.8872,-25.5938 7.31693,-14.80477 17.55938,-24.54249 31.81905,-30.25103 29.81747,-11.93675 58.63828,-8.50096 76.22406,9.08684 11.8261,11.82747 18.79018,26.91723 19.49171,42.2346 0.30431,6.64452 -0.29514,16.16789 -1.33213,21.16303 -1.69344,8.15726 -2.8779,9.98683 -11.63177,17.96701 -26.1789,23.86517 -35.27726,36.82432 -31.201,44.44086 0.98498,1.84047 6.19479,5.56939 11.57732,8.28649 5.38255,2.7171 17.28486,9.94519 26.44959,16.06241 37.26406,24.87284 43.6695,32.27947 56.84231,65.72707 9.57225,24.30523 11.02848,33.68397 7.42763,47.83739 -3.26541,12.83503 -13.52903,33.77576 -22.58134,46.07246 -11.06401,15.0294 -31.85554,34.74623 -50.49779,47.8876 -9.49238,6.6914 -17.25887,12.93078 -17.25887,13.86529 0,0.93452 20.66896,12.11838 45.93103,24.85304 25.26208,12.73466 50.18862,26.3217 55.39231,30.19342 13.03478,9.69831 32.06017,29.75493 44.3675,46.77239 13.65186,18.87652 23.12411,38.53515 29.82485,61.89825 5.33122,18.58809 12.02684,49.81266 12.02684,56.08636 0,3.04347 -2.97855,3.08494 -221.56923,3.08494 -133.6781,0 -221.56924,-0.57708 -221.56924,-1.45481 z"
     id="path7"
     transform="translate(-10)" />
  <path
     style="fill:#ffffff;fill-opacity:1;stroke-width:0.418075"
     d="m 283.25181,832.49248 c 0.005,-16.81056 0.42367,-31.42996 1.07076,-37.41774 l 0.25978,-2.40394 h 222.94812 222.94812 l 0.27195,2.82201 c 0.58498,6.06988 1.07057,23.64229 1.08019,39.09004 l 0.0101,16.20042 H 507.54344 283.24603 Z m 448.13379,12.54226 c -0.0204,-2.01199 -0.34964,-13.91146 -0.73163,-26.44327 l -0.69447,-22.7851 -11.28803,-0.0768 c -6.20842,-0.0423 -84.28398,-0.27602 -173.50126,-0.51946 -89.21727,-0.24345 -184.27192,-0.56152 -211.23255,-0.70684 l -49.01933,-0.2642 v 27.22693 27.22693 h 223.25222 223.25222 z"
     id="path8"
     transform="translate(-10)" />
  <path
     style="fill:#ffffff;fill-opacity:1;stroke-width:0.743154"
     d="m 283.68593,830.2888 0.17267,-19.87937 0.21145,19.13621 c 0.13148,11.89958 0.48773,19.13622 0.94205,19.13622 0.46522,0 0.73061,-9.74587 0.73061,-26.82984 v -26.82984 l 210.49837,0.46014 c 115.7741,0.25307 215.59826,0.65703 221.83146,0.89769 10.9558,0.42299 11.33316,0.49062 11.33494,2.03141 0.008,6.87715 1.57718,48.76806 1.87619,50.08465 l 0.37975,1.6721 H 507.58833 283.51325 Z"
     id="path9"
     transform="translate(-10)" />
  <path
     style="fill:#ffffff;fill-opacity:1;stroke-width:0.743154"
     d="m 283.68593,830.2888 0.17267,-19.87937 0.21145,19.13621 c 0.13148,11.89958 0.48773,19.13622 0.94205,19.13622 0.46522,0 0.73061,-9.74459 0.73061,-26.82611 v -26.82612 l 214.21414,0.46023 c 117.81777,0.25313 217.64193,0.65239 221.83146,0.88724 7.1855,0.4028 7.61733,0.51828 7.61733,2.03696 0,6.10103 1.55046,48.06631 1.83661,49.71043 l 0.3557,2.04368 H 507.5556 283.51325 Z"
     id="path10"
     transform="translate(-10)" />
  <path
     style="fill:#ffffff;fill-opacity:1;stroke-width:0.743154"
     d="m 283.68569,830.2888 0.17244,-19.87937 0.2119,18.76464 c 0.13158,11.65203 0.48874,18.76463 0.94229,18.76463 0.46474,0 0.73039,-9.62125 0.73039,-26.45312 v -26.45313 l 216.4436,0.46249 c 119.04398,0.25437 218.86814,0.64935 221.83147,0.87772 4.36399,0.33632 5.38799,0.65032 5.38853,1.65234 0.003,5.8972 1.56913,48.51756 1.84074,50.09949 l 0.3509,2.04368 H 507.5556 283.51325 Z"
     id="path11"
     transform="translate(-10)" />
  <path
     style="fill:#ffffff;fill-opacity:1;stroke-width:0.743154"
     d="m 283.68493,830.2888 0.17168,-19.87937 0.21373,17.81237 c 0.12422,10.35286 0.51916,18.1178 0.94305,18.54169 0.47699,0.47699 0.72932,-8.32114 0.72932,-25.4297 v -26.15902 l 92.70846,0.10143 c 147.64903,0.16153 350.05185,0.9769 350.48645,1.41191 0.21903,0.21924 0.75204,11.42229 1.18448,24.89566 0.43244,13.47338 0.94141,25.4167 1.13105,26.54072 l 0.3448,2.04368 H 507.5556 283.51325 Z"
     id="path12"
     transform="translate(-10)" />
  <path
     style="fill:#ffffff;fill-opacity:1;stroke-width:0.743154"
     d="m 283.68437,830.2888 0.17112,-19.87937 0.21483,17.06975 c 0.12404,9.85616 0.5228,17.37774 0.94361,17.79854 0.47627,0.47628 0.72878,-8.07726 0.72878,-24.68708 v -25.41587 l 98.65369,0.10143 c 148.72819,0.1529 344.08975,0.95997 344.55272,1.42339 0.22533,0.22555 0.75584,11.26139 1.1789,24.52408 0.42307,13.2627 0.91421,25.20086 1.09142,26.52925 l 0.32222,2.41525 H 507.52745 283.51325 Z"
     id="path13"
     transform="translate(-10)" />
  <path
     style="fill:#ffffff;fill-opacity:1;stroke-width:0.743154"
     d="m 283.68408,830.2888 0.17082,-19.87937 0.21497,16.53517 c 0.13218,10.1669 0.49571,16.53518 0.9439,16.53518 0.46153,0 0.72894,-8.86033 0.72894,-24.1525 v -24.15251 l 107.57154,0.10143 c 148.2203,0.13975 335.14098,0.92896 335.62858,1.41708 0.22185,0.22207 0.74937,10.92349 1.17229,23.78093 0.42291,12.85743 0.93152,24.79843 1.13024,26.53555 l 0.36131,3.15841 H 507.55996 283.51325 Z"
     id="path14"
     transform="translate(-10)" />
  <path
     style="fill:#ffffff;fill-opacity:1;stroke-width:0.743154"
     d="m 285.44874,789.04375 c 3.25794,-22.04571 11.29532,-57.04518 16.54514,-72.04723 9.18621,-26.25078 25.49493,-51.62904 48.14003,-74.91147 17.40869,-17.89865 27.5617,-24.4119 73.09229,-46.88939 49.17641,-24.27736 51.54433,-25.48495 51.59268,-26.31128 0.0239,-0.40873 -6.23183,-5.30117 -13.90167,-10.87207 -41.12386,-29.86991 -53.28092,-43.19353 -69.41597,-76.07695 -8.10906,-16.52634 -9.28262,-20.65994 -9.71057,-34.20344 -0.42029,-13.30081 -0.0174,-15.2566 6.52455,-31.67544 4.88936,-12.27116 10.99199,-24.91905 15.18968,-31.48109 l 2.6103,-4.08055 h 101.6643 101.66432 l 2.35614,3.90156 c 2.99202,4.95448 7.44837,14.61098 12.44138,26.95931 8.95995,22.15901 10.89115,30.78553 9.38963,41.94266 -2.15209,15.99126 -14.42358,41.65392 -28.08606,58.73473 -6.75021,8.4391 -24.1988,25.82047 -32.94476,32.81784 -3.88298,3.10665 -10.90578,8.25029 -15.60623,11.43032 -4.70045,3.18003 -10.31083,7.11334 -12.4675,8.74068 -3.81276,2.87696 -3.8847,2.99922 -2.60104,4.42 0.7261,0.80366 14.19533,7.77581 29.93162,15.49365 50.47367,24.75477 60.03881,29.90204 71.65627,38.56032 20.64664,15.38755 45.58423,45.07411 59.31441,70.60992 10.06031,18.71045 20.43118,54.68323 25.76352,89.36427 l 1.34259,8.73206 h -222.4759 -222.4759 z"
     id="path15"
     transform="translate(-10)" />
  <path
     style="fill:#ffffff;fill-opacity:1;stroke-width:0.743154"
     d="m 285.44659,789.04375 c 3.7089,-25.21362 12.10515,-60.40976 18.48184,-77.4738 5.88005,-15.73503 17.93514,-36.12403 31.20281,-52.77386 7.99596,-10.03429 26.87663,-28.71712 34.46463,-34.10351 13.58232,-9.64149 33.4491,-20.16563 86.70068,-45.92845 8.99216,-4.35036 16.99815,-8.39496 17.79107,-8.98799 1.35721,-1.01508 0.96911,-1.42117 -6.62296,-6.93024 -47.29792,-34.32098 -58.08907,-45.63457 -74.47656,-78.08226 -9.47385,-18.75849 -10.75378,-22.99141 -11.19743,-37.03172 -0.42021,-13.29841 -0.0181,-15.25129 6.52137,-31.67544 4.987,-12.52493 10.83898,-24.67488 15.07104,-31.29066 l 2.73212,-4.27098 101.63553,10e-4 101.63554,0.001 1.96527,3.15708 c 3.11137,4.99821 6.24802,11.59174 11.31446,23.78411 10.20073,24.54798 12.48604,33.9912 11.00418,45.47075 -1.09146,8.45525 -4.9284,19.69823 -10.54898,30.91058 -9.31937,18.59097 -16.50239,28.40426 -32.66323,44.62382 -11.93613,11.9795 -20.65369,19.17263 -35.70055,29.45761 -5.51405,3.76902 -11.01905,7.65897 -12.23334,8.64434 l -2.2078,1.79158 3.6941,2.38356 c 2.03177,1.31096 15.566,8.19241 30.07608,15.29211 61.68999,30.18455 68.12402,34.13306 87.69217,53.81589 19.94625,20.06316 36.91538,43.76533 45.50911,63.56632 8.31956,19.16927 16.98816,51.70406 21.28673,79.89287 l 1.35932,8.91404 h -222.4759 -222.4759 z"
     id="path16"
     transform="translate(-10)" />
  <path
     style="fill:#ffffff;fill-opacity:1;stroke-width:0.743154"
     d="m 284.99956,791.62601 c 0,-1.35826 3.83568,-22.25116 5.96554,-32.49421 5.8073,-27.92885 11.08795,-44.92702 18.93701,-60.95736 10.20063,-20.83303 23.91391,-39.6088 42.32302,-57.94728 19.69045,-19.61491 24.99414,-22.74653 105.04978,-62.02765 9.53026,-4.67624 17.47849,-8.74614 17.66272,-9.04423 0.18423,-0.2981 -6.27558,-5.38899 -14.35514,-11.3131 -32.89379,-24.11845 -44.78433,-35.30706 -56.46206,-53.12895 -6.28813,-9.59658 -16.68821,-30.15639 -19.63468,-38.81559 -2.16037,-6.34899 -2.41288,-8.03855 -2.7149,-18.16572 -0.25853,-8.66861 -0.0671,-12.20364 0.85605,-15.80699 2.81152,-10.97443 15.53775,-39.74375 21.25967,-48.06027 l 2.31849,-3.36982 h 101.61937 101.61939 l 2.35707,3.90156 c 5.15566,8.5339 17.1337,37.02739 20.1557,47.94657 4.42419,15.98568 1.80137,30.48417 -9.56824,52.8914 -9.28308,18.29509 -15.68691,26.93356 -32.29435,43.56363 -11.6382,11.65406 -19.77678,18.38021 -34.58639,28.58402 -5.51792,3.80184 -11.15705,7.76274 -12.53141,8.80198 l -2.49881,1.88955 2.12724,1.7198 c 1.16998,0.94591 10.48773,5.85398 20.7061,10.90685 10.21836,5.05288 27.44096,13.56658 38.27243,18.91936 33.05427,16.335 42.95103,22.92089 59.85397,39.83035 20.58386,20.59181 38.05587,45.25016 46.6964,65.90293 7.99627,19.11284 16.29721,50.76189 20.44094,77.93528 l 1.35932,8.91404 H 507.46667 c -122.35691,0 -222.46711,-0.25927 -222.46711,-0.57615 z"
     id="path17"
     transform="translate(-10)" />
  <path
     style="fill:#ffffff;fill-opacity:1;stroke-width:0.176202"
     d="m 342.27147,792.55448 c 0,-0.11727 34.91727,-0.1762 104.39941,-0.1762 69.48213,0 104.3994,0.0589 104.3994,0.1762 0,0.11727 -34.91727,0.1762 -104.3994,0.1762 -69.48214,0 -104.39941,-0.0589 -104.39941,-0.1762 z"
     id="path18"
     transform="translate(-10)" />
  <path
     style="fill:#ffffff;fill-opacity:1;stroke-width:0.176202"
     d="m 530.98331,795.07686 c -4.60327,-0.0198 -37.66748,-0.11963 -73.47604,-0.22176 -35.80856,-0.10212 -76.38557,-0.23808 -90.17113,-0.30212 l -25.06467,-0.11646 v -0.85292 -0.85292 l 40.8347,-0.0295 c 22.45909,-0.0163 40.00216,-0.0858 38.98459,-0.15461 -1.01756,-0.0688 -19.39318,-0.13478 -40.8347,-0.14665 l -38.98459,-0.0216 V 741.80844 691.2386 h 104.39941 104.3994 v 50.56984 50.56984 l -38.98459,0.0216 c -21.44152,0.0119 -39.81714,0.0779 -40.8347,0.14665 -1.01756,0.0688 16.5255,0.13835 38.98459,0.15461 l 40.8347,0.0295 v 1.23341 1.23341 l -5.8587,-0.0423 c -3.22228,-0.0233 -9.62501,-0.0585 -14.22827,-0.0784 z"
     id="path19"
     transform="translate(-10)" />
  <path
     style="fill:#ffffff;fill-opacity:1;stroke-width:0.176202"
     d="m 434.47535,795.0671 c 0.56078,-0.0351 1.43298,-0.0348 1.93822,7.2e-4 0.50524,0.0355 0.0464,0.0642 -1.01959,0.0638 -1.06602,-4e-4 -1.4794,-0.0294 -0.91863,-0.0645 z"
     id="path20"
     transform="translate(-10)" />
  <path
     style="fill:#ffffff;fill-opacity:1;stroke-width:0.176202"
     d=""
     id="path21"
     transform="translate(-10)" />
  <path
     style="fill:#ffffff;fill-opacity:1;stroke-width:0.176202"
     d="m 433.59435,794.8909 c 0.56077,-0.0351 1.43297,-0.0348 1.93821,7.2e-4 0.50525,0.0355 0.0464,0.0642 -1.01959,0.0638 -1.06602,-4e-4 -1.4794,-0.0294 -0.91862,-0.0645 z"
     id="path22"
     transform="translate(-10)" />
  <path
     style="fill:#ffffff;fill-opacity:1;stroke-width:0.0881052"
     d="m 446.91377,794.88215 c -9.76426,-0.0328 -27.00095,-0.0904 -38.30375,-0.12784 l -20.55054,-0.0681 V 768.70666 742.7271 h 52.20234 52.20235 v 26.1232 26.1232 l -13.8986,-0.0158 c -7.64423,-0.009 -21.88754,-0.0427 -31.6518,-0.0755 z"
     id="path23"
     transform="translate(-10)" />
  <path
     style="fill:#ffffff;fill-opacity:1;stroke-width:0.0881052"
     d="m 433.14733,794.82163 c 0.15749,-0.0195 0.41519,-0.0195 0.57268,0 0.15749,0.0195 0.0286,0.0355 -0.28634,0.0355 -0.31498,0 -0.44383,-0.016 -0.28634,-0.0355 z"
     id="path24"
     transform="translate(-10)" />
  <path
     style="fill:#ffffff;fill-opacity:1;stroke-width:0.0881052"
     d=""
     id="path25"
     transform="translate(-10)" />
  <path
     style="fill:#ffffff;fill-opacity:1;stroke-width:0.0881052"
     d=""
     id="path26"
     transform="translate(-10)" />
  <path
     style="fill:#ffffff;fill-opacity:1;stroke-width:0.0881052"
     d=""
     id="path27"
     transform="translate(-10)" />
  <path
     style="fill:#ffffff;fill-opacity:1;stroke-width:0.0881052"
     d="m 388.05948,804.48884 v -9.51537 l 5.57265,0.002 c 3.06496,10e-4 22.58137,0.0597 43.3698,0.13011 20.78843,0.0704 41.77144,0.12899 46.6289,0.13012 l 8.83176,0.002 0.0228,9.38321 0.0228,9.38321 h -52.22438 l -52.22437,-10e-6 z"
     id="path28"
     transform="translate(-10)" />
  <path
     style="fill:#ffffff;fill-opacity:1;stroke-width:0.0881052"
     d="m 388.05948,804.48884 v -9.51537 l 5.57265,0.002 c 3.06496,10e-4 22.58137,0.0597 43.3698,0.13011 20.78843,0.0704 41.77144,0.12899 46.6289,0.13012 l 8.83176,0.002 0.0228,9.38321 0.0228,9.38321 h -52.22438 l -52.22437,-10e-6 z"
     id="path29"
     transform="translate(-10)" />
  <path
     style="fill:#ffffff;fill-opacity:1;stroke-width:0.0881052"
     d="m 446.86972,794.88213 c -9.74004,-0.0329 -26.9569,-0.0904 -38.2597,-0.12785 l -20.55054,-0.0681 v -25.97955 -25.97956 h 52.20234 52.20235 v 26.1232 26.1232 l -13.94265,-0.0158 c -7.66846,-0.009 -21.91177,-0.0427 -31.6518,-0.0756 z"
     id="path30"
     transform="translate(-10)" />
  <path
     style="fill:#ffffff;fill-opacity:1;stroke-width:0.0881052"
     d="m 446.82566,794.88217 c -9.76426,-0.0328 -26.98112,-0.0903 -38.25969,-0.12779 l -20.50649,-0.0681 v -25.9796 -25.9796 h 52.20234 52.20235 v 26.1232 26.1232 l -13.94265,-0.0158 c -7.66846,-0.009 -21.93159,-0.0427 -31.69586,-0.0755 z"
     id="path31"
     transform="translate(-10)" />
  <path
     style="fill:#ffffff;fill-opacity:1;stroke-width:0.0881052"
     d="m 463.82263,794.94164 c -0.0202,-0.0175 -10.20626,-0.0572 -22.6357,-0.0882 -12.42945,-0.031 -29.4679,-0.0827 -37.86322,-0.11493 l -15.26423,-0.0586 v -25.97645 -25.97645 h 52.20234 52.20235 v 26.1232 26.1232 h -14.30241 c -7.86633,0 -14.31894,-0.0143 -14.33913,-0.0318 z"
     id="path32"
     transform="translate(-10)" />
  <path
     style="fill:#ffffff;fill-opacity:1;stroke-width:0.0881052"
     d="m 462.50105,794.94163 c -0.0202,-0.0175 -10.08731,-0.0572 -22.37138,-0.0881 -12.28407,-0.031 -29.02517,-0.0827 -37.20244,-0.11488 l -14.86775,-0.0586 v -25.97648 -25.97648 h 52.20234 52.20235 v 26.1232 26.1232 h -14.9632 c -8.22976,0 -14.97973,-0.0143 -14.99992,-0.0318 z"
     id="path33"
     transform="translate(-10)" />
  <path
     style="fill:#ffffff;fill-opacity:1;stroke-width:0.0881052"
     d="m 442.20014,794.87983 c -10.27307,-0.035 -26.65734,-0.0926 -36.40949,-0.12805 l -17.73117,-0.0644 v -25.98016 -25.98017 h 52.20234 52.20235 v 26.1232 26.1232 l -15.79286,-0.015 c -8.68607,-0.008 -24.1981,-0.0436 -34.47117,-0.0787 z"
     id="path34"
     transform="translate(-10)" />
  <path
     style="fill:#ffffff;fill-opacity:1;stroke-width:0.0881052"
     d="m 440.52614,794.87957 c -10.51536,-0.0352 -26.6221,-0.0929 -35.79275,-0.12809 l -16.67391,-0.0641 v -25.98017 -25.98018 h 52.20234 52.20235 v 26.1232 26.1232 l -16.4096,-0.0149 c -9.02528,-0.008 -25.01307,-0.0437 -35.52843,-0.079 z"
     id="path35"
     transform="translate(-10)" />
  <path
     style="fill:#ffffff;fill-opacity:1;stroke-width:0.0881052"
     d="m 439.60104,794.87935 c -10.68497,-0.0354 -26.65294,-0.0931 -35.48439,-0.12814 l -16.05717,-0.0638 v -25.98018 -25.98018 h 52.20234 52.20235 v 26.1232 26.1232 l -16.71796,-0.0149 c -9.19489,-0.008 -25.46021,-0.0438 -36.14517,-0.0792 z"
     id="path36"
     transform="translate(-10)" />
  <path
     style="fill:#ffffff;fill-opacity:1;stroke-width:0.0881052"
     d="m 437.57462,794.87833 c -10.92726,-0.0362 -26.5384,-0.0939 -34.69144,-0.1283 l -14.8237,-0.0626 v -25.9802 -25.98019 h 52.20234 52.20235 v 26.1232 26.1232 l -17.51091,-0.0147 c -9.631,-0.008 -26.45139,-0.0443 -37.37864,-0.0804 z"
     id="path37"
     transform="translate(-10)" />
  <path
     style="fill:#ffffff;fill-opacity:1;stroke-width:0.0881052"
     d="m 436.16493,794.87834 c -11.02417,-0.0361 -26.35778,-0.0939 -34.0747,-0.12829 l -14.03075,-0.0626 v -25.98021 -25.9802 h 52.20234 52.20235 v 26.1232 26.1232 l -18.12765,-0.0147 c -9.97021,-0.008 -27.14742,-0.0443 -38.17159,-0.0804 z"
     id="path38"
     transform="translate(-10)" />
  <path
     style="fill:#ffffff;fill-opacity:1;stroke-width:0.0881052"
     d="m 434.75525,794.87761 c -11.31492,-0.0366 -26.45029,-0.0944 -33.63417,-0.12835 l -13.0616,-0.0618 v -25.98021 -25.98022 h 52.20234 52.20235 v 26.1232 26.1232 l -18.56817,-0.0146 c -10.2125,-0.008 -27.82584,-0.0446 -39.14075,-0.0812 z"
     id="path39"
     transform="translate(-10)" />
  <path
     style="fill:#ffffff;fill-opacity:1;stroke-width:0.0881052"
     d="m 397.00216,794.88537 -8.98674,-0.0453 9.91184,-0.009 c 5.45151,-0.005 15.66071,0.0173 22.6871,0.049 l 12.77526,0.0576 -13.70037,-0.004 c -7.5352,-0.002 -17.74439,-0.0241 -22.68709,-0.049 z"
     id="path40"
     transform="translate(-10)" />
  <path
     style="fill:#ffffff;fill-opacity:1;stroke-width:0.0881052"
     d=""
     id="path41"
     transform="translate(-10)" />
  <path
     style="fill:#ffffff;fill-opacity:1;stroke-width:0.0255378"
     d=""
     id="path42"
     transform="translate(-10)" />
  <path
     style="fill:#ffffff;fill-opacity:1;stroke-width:0.0255378"
     d="m 433.43972,795.05023 c -12.17645,-0.0356 -14.50545,-0.0497 -14.50545,-0.0882 0,-0.0129 3.05843,-0.0251 7.16972,-0.0287 3.94335,-0.003 6.49745,-0.009 5.67577,-0.0134 -0.82168,-0.004 -3.29245,-0.0166 -5.49062,-0.0279 l -3.99666,-0.0206 2.98792,-0.004 c 3.58162,-0.005 8.08516,0.0222 8.06869,0.0488 -0.0245,0.0397 0.38999,0.0533 1.36208,0.0449 0.73691,-0.006 1.00826,-0.0167 1.02196,-0.0389 0.0143,-0.0232 1.36164,-0.0249 5.82805,-0.007 3.19516,0.0126 6.22023,0.0233 6.72236,0.0238 l 0.91298,9.4e-4 v 0.0766 0.0766 l -1.98556,-0.004 c -1.09206,-0.002 -7.28912,-0.0195 -13.77124,-0.0385 z"
     id="path43"
     transform="translate(-10)" />
  <path
     style="fill:#ffffff;fill-opacity:1;stroke-width:0.0255378"
     d="m 418.93427,797.72003 v -2.71014 l 2.16432,0.0159 c 1.19038,0.009 4.88218,0.0204 8.20401,0.026 5.8451,0.01 5.90845,0.009 1.96641,-0.0119 -2.2403,-0.0122 -5.75685,-0.031 -7.81456,-0.0418 -3.67467,-0.0194 -3.70854,-0.02 -1.90256,-0.0352 2.19818,-0.0184 11.35239,-0.0233 12.87103,-0.007 0.71,0.008 1.14597,0.002 1.28966,-0.017 0.15831,-0.0208 2.01271,-0.0235 6.8505,-0.01 l 6.63344,0.0186 v 0.0716 0.0716 l -1.0279,-0.0116 c -0.56534,-0.006 -3.63083,-0.015 -6.8122,-0.0191 -3.18136,-0.004 -5.29014,-5e-5 -4.68618,0.009 0.60397,0.009 2.40918,0.0181 4.01159,0.0201 1.6024,0.002 4.17373,0.0113 5.71407,0.0206 l 2.80062,0.017 v 2.65171 2.65171 h -15.13113 -15.13112 z"
     id="path44"
     transform="translate(-10)" />
  <path
     style="fill:#ffffff;fill-opacity:1;stroke-width:0.0255378"
     d="m 433.58017,794.91401 c 0.0421,-0.0107 0.27198,-0.0232 0.51076,-0.0276 0.59584,-0.0112 -5.41362,-0.0407 -9.20854,-0.0453 -1.70776,-0.002 -3.74472,-0.0113 -4.52657,-0.0207 l -1.42155,-0.017 v -7.51669 -7.51669 h 15.13112 15.13113 v 7.5741 7.5741 l -5.663,-0.015 c -3.11465,-0.008 -6.36401,-0.019 -7.2208,-0.024 -0.8568,-0.005 -1.38348,-0.002 -1.17041,0.006 0.72533,0.0289 0.42824,0.0538 -0.6066,0.0507 -0.56768,-0.002 -0.99767,-0.0118 -0.95554,-0.0225 z"
     id="path45"
     transform="translate(-10)" />
  <path
     style="fill:#ffffff;fill-opacity:1;stroke-width:0.00419092"
     d="m 429.65147,795.50031 v -0.45262 l 0.33423,2e-5 c 0.18382,10e-6 0.88491,0.002 1.55797,0.004 0.67307,0.002 1.50098,0.005 1.83982,0.006 0.33884,10e-4 0.60192,3.7e-4 0.58463,-0.002 -0.0408,-0.005 -1.49848,-0.0118 -2.92317,-0.0147 -0.61774,-10e-4 -1.18398,-0.003 -1.25832,-0.005 l -0.13516,-0.003 v -0.0568 -0.0568 l 0.24203,0.003 c 0.34816,0.004 2.03045,0.003 2.03463,-7.5e-4 0.004,-0.004 -0.53651,-0.008 -1.58515,-0.0113 -0.34691,-10e-4 -0.64441,-0.003 -0.66112,-0.005 l -0.0304,-0.002 v -0.0147 -0.0147 l 0.27975,0.002 c 0.15386,0.001 0.47776,0.003 0.71979,0.005 1.2663,0.006 2.44855,0.0204 2.6382,0.0311 0.0357,0.002 0.0734,0.002 0.0838,1.8e-4 0.0491,-0.009 0.20422,-0.0204 0.45051,-0.0328 0.0372,-0.002 -0.20806,-0.004 -0.6014,-0.006 -0.80977,-0.004 -3.04985,-0.0113 -3.35169,-0.0113 h -0.21898 v -1.15041 -1.15041 h 2.48313 2.48312 v 1.19442 1.19441 l -0.0283,5.2e-4 c -0.0951,0.002 -0.62075,-0.002 -0.78266,-0.005 -0.2593,-0.005 -0.42872,-0.0143 -0.45359,-0.0238 -0.004,-0.002 -0.006,-9e-4 -0.004,0.002 0.005,0.007 0.0291,0.0129 0.0865,0.0199 0.0495,0.006 0.21751,0.008 1.1598,0.0143 l 0.022,1.4e-4 0.001,0.49663 10e-4,0.49662 h -2.48417 -2.48417 z"
     id="path46"
     transform="translate(-10)" />
  <path
     style="fill:#ffffff;fill-opacity:1;stroke-width:0.00419092"
     d="m 429.65147,795.50031 v -0.45262 l 0.33004,10e-6 c 0.31584,2e-5 2.14639,0.006 3.3936,0.0102 0.34558,10e-4 0.58729,6.8e-4 0.58217,-10e-4 -0.0107,-0.005 -1.46297,-0.012 -2.94166,-0.015 -0.60161,-0.001 -1.15465,-0.003 -1.22899,-0.005 l -0.13516,-0.003 v -0.0551 -0.0551 l 1.12003,10e-4 c 0.61601,7e-4 1.12851,-3.4e-4 1.13888,-0.002 0.0204,-0.004 -0.52081,-0.008 -1.5674,-0.0116 -0.34691,-10e-4 -0.64441,-0.003 -0.66112,-0.005 l -0.0304,-0.002 v -0.0147 -0.0147 l 0.35728,0.003 c 0.1965,10e-4 0.64111,0.004 0.98801,0.007 1.12395,0.007 1.84269,0.0155 2.19604,0.0254 0.14303,0.004 0.17296,0.004 0.22003,-0.002 0.03,-0.004 0.12332,-0.0105 0.20745,-0.0153 0.16996,-0.01 0.20674,-0.0125 0.20446,-0.0148 -8.5e-4,-8.5e-4 -0.5663,-0.003 -1.25656,-0.006 -0.69025,-0.002 -1.62889,-0.006 -2.08586,-0.007 l -0.83085,-0.003 v -1.14978 -1.14979 h 2.48313 2.48312 v 1.19407 1.19407 l -0.0304,10e-4 c -0.0581,0.003 -0.82746,-0.004 -0.94819,-0.009 -0.13398,-0.005 -0.24128,-0.0116 -0.27031,-0.017 -0.0224,-0.004 -0.0269,-0.002 -0.01,0.004 0.0447,0.0174 0.23762,0.0241 0.70188,0.0246 0.1189,1.3e-4 0.29286,10e-4 0.38657,0.003 l 0.17039,0.003 10e-4,0.49594 10e-4,0.49594 h -2.48417 -2.48417 z"
     id="path47"
     transform="translate(-10)" />
  <path
     style="fill:#ffffff;fill-opacity:1;stroke-width:0.00419092"
     d="m 429.65147,795.50031 v -0.45262 h 0.31747 c 0.28536,-10e-6 1.99435,0.005 3.42922,0.01 0.2985,10e-4 0.53518,3.6e-4 0.52596,-10e-4 -0.0203,-0.004 -1.55027,-0.0117 -2.96717,-0.0147 -0.56934,-0.001 -1.09598,-0.003 -1.17032,-0.005 l -0.13516,-0.003 v -0.0552 -0.0552 l 1.10745,10e-4 c 0.61312,8e-4 1.11587,-1.7e-4 1.12632,-0.002 0.0207,-0.004 -0.5136,-0.008 -1.53807,-0.0117 -0.34921,-10e-4 -0.6486,-0.003 -0.66531,-0.005 l -0.0304,-0.002 v -0.0148 -0.0148 l 0.36566,0.003 c 0.20111,10e-4 0.65232,0.005 1.00268,0.007 1.07116,0.007 1.83554,0.0158 2.17339,0.0254 0.1404,0.004 0.16944,0.004 0.22003,-0.002 0.0608,-0.007 0.20213,-0.0169 0.32999,-0.0234 0.0411,-0.002 0.0756,-0.005 0.0767,-0.006 0.001,-10e-4 -0.30416,-0.003 -0.67824,-0.005 -1.09993,-0.004 -2.9864,-0.0108 -3.24815,-0.0108 l -0.24203,-3e-5 v -1.15041 -1.15041 h 2.48313 2.48312 v 1.19442 1.19441 l -0.0283,5.2e-4 c -0.0951,0.002 -0.62075,-0.002 -0.78266,-0.005 -0.258,-0.005 -0.42669,-0.0142 -0.45395,-0.0237 -0.005,-0.002 -0.006,-10e-4 -0.003,0.002 0.008,0.009 0.0611,0.0168 0.14012,0.0213 0.0426,0.002 0.31327,0.006 0.6014,0.009 0.28812,0.002 0.52433,0.004 0.52491,0.004 5.8e-4,4e-5 10e-4,0.22355 10e-4,0.4967 v 0.49662 h -2.48312 -2.48313 z"
     id="path48"
     transform="translate(-10)" />
  <path
     style="fill:#ffffff;fill-opacity:1;stroke-width:0.00419092"
     d="m 433.15299,794.90494 c -0.28206,-0.009 -1.16427,-0.0184 -2.25472,-0.0249 -0.8881,-0.005 -1.24798,-0.009 -1.24501,-0.0116 0.003,-0.003 3.0779,0.006 3.65689,0.0103 0.2667,0.002 0.38824,0.004 0.34994,0.006 -0.0831,0.004 -0.22971,0.0159 -0.26193,0.0204 -0.0303,0.004 -0.0953,0.004 -0.24517,-4.4e-4 z"
     id="path49"
     transform="translate(-10)" />
  <path
     style="fill:#ffffff;fill-opacity:1;stroke-width:0.00419092"
     d="m 429.65147,795.4997 v -0.45322 l 1.11584,0.003 c 2.62721,0.008 3.04964,0.008 3.07731,0.006 0.0497,-0.004 -0.75102,-0.008 -2.37429,-0.0125 -0.85631,-0.002 -1.61586,-0.006 -1.68789,-0.007 l -0.13097,-0.002 v -0.0553 -0.0553 l 1.07812,0.002 c 0.59296,8.6e-4 1.0932,-10e-6 1.11164,-0.002 0.038,-0.004 -0.50137,-0.008 -1.49197,-0.0117 -0.35036,-0.001 -0.65069,-0.003 -0.6674,-0.005 l -0.0304,-0.002 v -0.0149 -0.0149 l 0.39709,0.003 c 0.2184,0.002 0.66866,0.005 1.00059,0.007 1.10237,0.007 1.8315,0.016 2.14825,0.0254 0.13718,0.004 0.16537,0.004 0.21793,-0.002 0.072,-0.008 0.1452,-0.0133 0.28811,-0.0212 0.0584,-0.003 0.10706,-0.007 0.1081,-0.008 10e-4,-0.001 -0.3023,-0.003 -0.67408,-0.005 -1.08003,-0.004 -2.98025,-0.0108 -3.24396,-0.0108 l -0.24203,-3e-5 v -1.15041 -1.15041 h 2.48313 2.48312 v 1.19442 1.19441 l -0.0283,5.2e-4 c -0.0951,0.002 -0.62075,-0.002 -0.78266,-0.005 -0.2538,-0.005 -0.42266,-0.014 -0.45395,-0.0234 -0.004,-10e-4 -0.002,6.3e-4 0.003,0.004 0.0302,0.0176 0.14492,0.0226 0.58463,0.0257 0.18671,10e-4 0.41538,0.004 0.50815,0.005 l 0.16869,0.003 v 0.49613 0.49613 h -2.48312 -2.48313 z"
     id="path50"
     transform="translate(-10)" />
  <path
     style="fill:#ffffff;fill-opacity:1;stroke-width:0.00419092"
     d="m 429.65147,795.49962 v -0.45332 l 0.92515,0.003 c 0.50883,0.002 1.44943,0.004 2.09022,0.004 0.71287,10e-4 1.02681,4.4e-4 0.80885,-0.002 -0.19592,-0.002 -1.07759,-0.005 -1.95926,-0.008 -0.88166,-0.003 -1.66196,-0.006 -1.73399,-0.007 l -0.13097,-0.003 v -0.0555 -0.0555 l 1.06555,0.002 c 0.63153,10e-4 1.07237,3e-4 1.0823,-0.002 0.0181,-0.004 -0.46319,-0.008 -1.48987,-0.0118 -0.32847,-10e-4 -0.61088,-0.003 -0.62759,-0.005 l -0.0304,-0.002 v -0.0149 -0.0149 l 0.40128,0.003 c 0.22071,0.002 0.67097,0.005 1.00059,0.007 1.11432,0.008 1.83365,0.0161 2.14411,0.0254 0.13338,0.004 0.16159,0.004 0.21584,-0.002 0.0703,-0.008 0.21136,-0.0176 0.30547,-0.0219 0.0346,-0.002 0.0666,-0.004 0.0713,-0.006 0.005,-0.002 -0.31317,-0.004 -0.70617,-0.006 -1.31504,-0.005 -2.90374,-0.0107 -3.16939,-0.0108 l -0.26298,-7e-5 v -1.15041 -1.15041 h 2.48313 2.48312 v 1.19442 1.19441 l -0.0283,4.8e-4 c -0.0156,2.6e-4 -0.16879,5.4e-4 -0.34051,6.1e-4 l -0.31223,1.4e-4 0.29127,0.003 c 0.1602,0.002 0.31343,0.003 0.34051,0.004 l 0.0493,6e-4 v 0.49663 0.49662 h -2.48312 -2.48313 z m 4.19931,-0.55118 c -0.19739,-0.003 -0.43771,-0.0141 -0.48091,-0.0221 -0.0202,-0.004 -0.0231,-0.002 -0.007,0.004 0.0361,0.0137 0.15202,0.0195 0.38496,0.0191 0.0922,-1.4e-4 0.13841,-7.1e-4 0.10268,-10e-4 z"
     id="path51"
     transform="translate(-10)" />
  <path
     style="fill:#ffffff;fill-opacity:1;stroke-width:0.00419092"
     d="m 429.65147,795.49963 v -0.4533 l 1.04669,0.003 c 0.57567,0.002 1.45215,0.004 1.94773,0.005 0.5452,10e-4 0.81415,4.1e-4 0.68102,-0.002 -0.12101,-0.002 -0.93855,-0.005 -1.81676,-0.008 -0.87821,-0.003 -1.65568,-0.006 -1.72771,-0.007 l -0.13097,-0.003 v -0.0558 -0.0559 l 1.00478,0.002 c 0.86627,0.002 1.13366,9.1e-4 1.12758,-0.005 -7.2e-4,-7.3e-4 -0.46713,-0.003 -1.03645,-0.006 -0.56933,-0.003 -1.04881,-0.006 -1.06552,-0.007 l -0.0304,-0.002 v -0.0149 -0.0149 l 0.43481,0.003 c 1.96628,0.0128 2.73596,0.0208 3.11733,0.0322 0.12562,0.004 0.1558,0.003 0.20745,-0.002 0.0672,-0.007 0.20765,-0.0173 0.30287,-0.0217 0.0342,-0.002 0.0597,-0.004 0.0566,-0.006 -0.003,-0.002 -0.57896,-0.005 -1.27969,-0.008 -0.70072,-0.002 -1.62623,-0.006 -2.05669,-0.007 l -0.78266,-0.003 v -1.14978 -1.14979 h 2.48313 2.48312 v 1.19442 1.19441 l -0.022,5.1e-4 c -0.0121,2.9e-4 -0.0418,0.002 -0.066,0.003 l -0.044,0.003 0.066,7e-4 0.066,7e-4 v 0.49663 0.49662 h -2.48312 -2.48313 z m 4.72003,-0.54728 c -0.0628,-6.5e-4 -0.16559,-6.5e-4 -0.2284,0 -0.0628,6.5e-4 -0.0114,10e-4 0.1142,10e-4 0.12562,0 0.17701,-5.4e-4 0.1142,-10e-4 z m -0.54587,-0.004 c -0.3043,-0.009 -0.36567,-0.0122 -0.44843,-0.0202 -0.0159,-0.002 -0.0204,-10e-4 -0.0143,0.002 0.0301,0.0133 0.15848,0.0202 0.37054,0.0199 0.0703,-1e-4 0.1118,-6.7e-4 0.0922,-10e-4 z"
     id="path52"
     transform="translate(-10)" />
  <path
     style="fill:#ffffff;fill-opacity:1;stroke-width:0.00419092"
     d="m 429.65147,795.49965 v -0.45327 l 1.1326,0.003 c 0.62293,0.002 1.45792,0.004 1.85553,0.005 0.43981,10e-4 0.65975,4.1e-4 0.56159,-0.002 -0.0888,-0.002 -0.87046,-0.005 -1.73714,-0.008 -0.86669,-0.003 -1.62907,-0.006 -1.69418,-0.007 l -0.1184,-0.003 v -0.0563 -0.0563 l 0.95658,0.003 c 0.81336,0.002 1.16909,9.8e-4 1.1632,-0.005 -6.9e-4,-6.8e-4 -0.46614,-0.003 -1.03433,-0.006 -0.56818,-0.003 -1.04485,-0.006 -1.05925,-0.007 l -0.0262,-0.002 v -0.015 -0.015 l 0.44948,0.003 c 1.82314,0.0115 2.74192,0.0211 3.1053,0.0322 0.11905,0.004 0.15102,0.003 0.20326,-0.002 0.0672,-0.007 0.20198,-0.0168 0.29878,-0.0219 l 0.0608,-0.003 -0.0335,-0.003 c -0.0184,-0.002 -0.60402,-0.005 -1.30128,-0.007 -0.69727,-0.003 -1.60864,-0.006 -2.02527,-0.007 l -0.75751,-0.003 v -1.14978 -1.14979 h 2.48313 2.48312 v 1.19381 1.19381 l -0.0534,0.004 -0.0534,0.004 0.0534,7e-4 0.0534,6.9e-4 0.001,0.49663 10e-4,0.49662 h -2.48417 -2.48417 z m 4.65507,-0.54729 c -0.0294,-7.2e-4 -0.0775,-7.2e-4 -0.10687,0 -0.0294,7.2e-4 -0.005,10e-4 0.0534,10e-4 0.0588,0 0.0828,-5.9e-4 0.0534,-10e-4 z m -0.62968,-0.008 c -0.14482,-0.005 -0.27286,-0.0123 -0.30385,-0.0169 -0.0105,-0.002 -0.0129,-10e-4 -0.008,0.002 0.0188,0.0121 0.15928,0.0201 0.35615,0.0203 l 0.10687,9e-5 z"
     id="path53"
     transform="translate(-10)" />
  <path
     style="fill:#ffffff;fill-opacity:1;stroke-width:0.00419092"
     d="m 429.65147,795.49967 v -0.45327 l 1.23109,0.003 c 0.67709,0.002 1.48096,0.004 1.78638,0.004 0.34166,10e-4 0.50692,4.3e-4 0.42957,-0.002 -0.0691,-0.002 -0.82729,-0.005 -1.68475,-0.008 -0.85747,-0.003 -1.60476,-0.006 -1.66066,-0.007 l -0.10163,-0.003 v -0.0565 -0.0565 l 0.91048,0.003 c 0.76624,0.003 1.19834,9.7e-4 1.19253,-0.004 -6.9e-4,-6.4e-4 -0.46237,-0.003 -1.02594,-0.006 -0.56357,-0.003 -1.03647,-0.006 -1.05087,-0.007 l -0.0262,-0.002 v -0.015 -0.015 l 0.45996,0.003 c 1.78393,0.011 2.72811,0.0208 3.09604,0.0321 0.12237,0.004 0.14236,0.003 0.22841,-0.005 0.0519,-0.005 0.1471,-0.012 0.21164,-0.016 l 0.11734,-0.007 -0.0943,-0.003 c -0.0519,-0.002 -0.65913,-0.005 -1.34948,-0.007 -0.69035,-0.002 -1.57343,-0.005 -1.9624,-0.007 l -0.70722,-0.003 v -1.14982 -1.14982 h 2.48313 2.48312 v 1.19396 1.19395 l -0.0472,0.004 -0.0471,0.004 0.0471,6.3e-4 0.0471,6.3e-4 10e-4,0.49663 0.001,0.49662 h -2.48417 -2.48417 z m 4.62166,-0.54722 c -0.009,-9e-4 -0.0237,-9.2e-4 -0.0335,-3e-5 -0.01,8.8e-4 -0.003,0.002 0.0156,0.002 0.0184,10e-6 0.0265,-7.1e-4 0.0179,-0.002 z m -0.60256,-0.008 c -0.13963,-0.005 -0.26716,-0.0124 -0.29756,-0.0169 -0.0105,-0.002 -0.0129,-10e-4 -0.008,0.002 0.0181,0.0117 0.16816,0.0201 0.36034,0.0203 0.0881,8e-5 0.0869,-4e-5 -0.0545,-0.005 z"
     id="path54"
     transform="translate(-10)" />
  <path
     style="fill:#ffffff;fill-opacity:1;stroke-width:0.00390625"
     d="m 429.77539,795.46424 v -0.41858 l 0.86426,0.003 c 0.47534,10e-4 1.22812,0.004 1.67285,0.005 0.44473,10e-4 0.80752,10e-4 0.8062,-1.1e-4 -0.002,-0.002 -0.88658,-0.007 -2.55327,-0.0124 l -0.79004,-0.003 v -0.0583 -0.0583 l 0.89551,0.002 c 0.49253,10e-4 0.93594,9.3e-4 0.98535,-7.9e-4 0.0956,-0.003 -0.23445,-0.006 -1.34277,-0.0115 l -0.53809,-0.003 v -0.0175 -0.0175 l 0.28809,0.003 c 0.15844,10e-4 0.55175,0.004 0.87402,0.006 1.04877,0.007 1.6913,0.0138 2.18491,0.024 0.21019,0.004 0.23876,0.004 0.30664,-0.002 0.0412,-0.004 0.11704,-0.009 0.16861,-0.0126 0.0516,-0.003 0.10957,-0.007 0.1289,-0.009 0.0581,-0.005 -0.40086,-0.008 -1.65429,-0.0124 -0.64346,-0.002 -1.42349,-0.005 -1.7334,-0.006 l -0.56348,-0.003 v -1.06983 -1.06983 h 2.31444 2.31445 l 9.8e-4,1.58007 9.9e-4,1.58008 h -2.31543 -2.31543 z m 3.95508,-0.51764 c -0.19314,-0.006 -0.32973,-0.0137 -0.35938,-0.0191 -0.008,-0.002 -0.0101,-10e-4 -0.006,0.002 0.0165,0.0113 0.13626,0.019 0.29127,0.0187 0.058,-1.1e-4 0.0914,-6.6e-4 0.0742,-0.001 z"
     id="path55"
     transform="translate(-10)" />
  <path
     style="fill:#ffffff;fill-opacity:1;stroke-width:0.00390625"
     d="m 429.77539,795.46424 v -0.41858 l 0.89356,0.003 c 0.49145,10e-4 1.2416,0.004 1.66699,0.005 0.42539,10e-4 0.77245,10e-4 0.77124,7e-5 -0.002,-0.002 -0.88641,-0.007 -2.59644,-0.0127 l -0.73535,-0.003 v -0.0585 -0.0585 l 0.88184,0.002 c 0.48501,10e-4 0.91172,10e-4 0.94824,-6e-4 0.0697,-0.003 -0.29288,-0.006 -1.30957,-0.0113 l -0.52051,-0.003 v -0.017 -0.017 l 0.0518,10e-6 c 0.0285,10e-6 0.42265,0.003 0.87597,0.006 1.3265,0.009 1.90589,0.0154 2.42969,0.026 0.20582,0.004 0.23757,0.004 0.29688,-0.002 0.0365,-0.003 0.11123,-0.009 0.16601,-0.0125 0.0548,-0.003 0.1084,-0.007 0.11914,-0.009 0.0324,-0.005 -0.4281,-0.008 -1.66015,-0.0123 -0.64239,-0.002 -1.41802,-0.005 -1.72364,-0.006 l -0.55566,-0.003 v -1.06983 -1.06983 h 2.31444 2.31445 l 9.8e-4,1.58007 9.9e-4,1.58008 h -2.31543 -2.31543 z m 3.83984,-0.52115 c -0.11935,-0.005 -0.22778,-0.0121 -0.24609,-0.0158 -0.007,-10e-4 -0.008,-10e-4 -0.004,0.002 0.0171,0.011 0.13442,0.0189 0.28125,0.019 l 0.0879,7e-5 z"
     id="path56"
     transform="translate(-10)" />
  <path
     style="fill:#ffffff;fill-opacity:1;stroke-width:0.00390625"
     d="m 429.77539,795.46424 v -0.41857 l 0.94238,0.003 c 0.51831,10e-4 1.26407,0.004 1.65723,0.005 0.39316,10e-4 0.7139,10e-4 0.71274,1.8e-4 -0.002,-0.002 -0.78349,-0.006 -2.61801,-0.0128 l -0.69434,-0.003 v -0.0587 -0.0587 l 0.85254,0.002 c 0.4689,10e-4 0.88242,10e-4 0.91894,-3.9e-4 0.0699,-0.003 -0.33828,-0.006 -1.26269,-0.0111 l -0.50879,-0.003 v -0.0165 -0.0165 l 0.36231,-0.003 c 0.54031,-0.004 3.58914,0.007 3.47167,0.0128 -0.0107,5.4e-4 -0.0643,0.005 -0.11914,0.01 -0.11777,0.0104 -0.19209,0.0109 -0.5332,0.004 -0.33496,-0.007 -0.80118,-0.0121 -1.26367,-0.0138 -0.22022,-8e-4 -0.35381,-9.3e-4 -0.29688,-3e-4 0.0569,6.2e-4 0.31094,0.003 0.56446,0.005 0.50752,0.005 0.83363,0.009 1.17187,0.0161 0.21416,0.004 0.22631,0.004 0.31836,-0.004 0.0526,-0.004 0.12998,-0.0102 0.17188,-0.0126 0.0419,-0.002 0.0806,-0.006 0.0859,-0.007 0.0159,-0.005 -0.43551,-0.008 -1.70898,-0.0119 -0.65957,-0.002 -1.42993,-0.005 -1.71191,-0.006 l -0.5127,-0.002 v -1.06983 -1.06983 h 2.31444 2.31445 l 9.8e-4,1.58007 9.9e-4,1.58008 h -2.31543 -2.31543 z m 3.87891,-0.51924 c -0.11727,-0.005 -0.23522,-0.0119 -0.26243,-0.0148 -0.0144,-0.002 -0.0254,-0.002 -0.0244,-1.1e-4 0.006,0.009 0.14326,0.0179 0.2771,0.018 l 0.0781,2e-5 z m -2.5085,-0.0651 c -0.0767,-5.9e-4 -0.20322,-5.9e-4 -0.28125,0 -0.078,6e-4 -0.0153,10e-4 0.13936,10e-4 0.15468,0 0.21853,-4.8e-4 0.14189,-10e-4 z m -0.58428,-0.004 c -0.0757,-5.9e-4 -0.19965,-5.9e-4 -0.27539,0 -0.0757,5.9e-4 -0.0138,10e-4 0.1377,10e-4 0.15146,0 0.21343,-4.9e-4 0.13769,-10e-4 z"
     id="path57"
     transform="translate(-10)" />
  <path
     style="fill:#ffffff;fill-opacity:1;stroke-width:0.00390625"
     d="m 429.77539,795.46424 v -0.41858 l 0.97559,0.003 c 0.53657,10e-4 1.27705,0.004 1.6455,0.005 0.36846,10e-4 0.66902,10e-4 0.66791,2.6e-4 -10e-4,-10e-4 -0.4555,-0.004 -1.00977,-0.006 -0.55426,-0.002 -1.29383,-0.005 -1.64349,-0.007 l -0.63574,-0.003 v -0.0587 -0.0587 l 0.78027,0.002 c 0.42915,8.7e-4 0.8295,6.9e-4 0.88965,-4e-4 0.11892,-0.002 -0.31259,-0.006 -1.1709,-0.0104 l -0.49902,-0.003 v -0.0165 -0.0165 l 0.3584,-0.003 c 0.3606,-0.003 2.85192,0.004 3.27051,0.009 0.21724,0.003 0.22249,0.003 0.16015,0.007 -0.0966,0.007 -0.17833,0.0144 -0.17305,0.0162 0.003,8.7e-4 0.0509,-0.002 0.10742,-0.006 0.0565,-0.004 0.12384,-0.009 0.14962,-0.0106 0.0258,-10e-4 0.0504,-0.004 0.0546,-0.005 0.0126,-0.005 -0.44634,-0.008 -1.73629,-0.0117 -0.66709,-0.002 -1.43306,-0.005 -1.70215,-0.006 l -0.48926,-0.002 v -1.06983 -1.06983 h 2.31444 2.31445 l 9.8e-4,1.58007 9.9e-4,1.58008 h -2.31543 -2.31543 z m 3.86914,-0.51932 c -0.10648,-0.005 -0.22046,-0.0114 -0.25,-0.014 -0.015,-10e-4 -0.0264,-10e-4 -0.0253,-1.4e-4 0.007,0.008 0.15108,0.0172 0.27338,0.0172 l 0.0684,3e-5 z m -0.30197,-0.0377 c -0.0243,-6.9e-4 -0.063,-6.9e-4 -0.0859,0 -0.023,6.9e-4 -0.003,10e-4 0.0442,10e-4 0.0473,0 0.0661,-5.7e-4 0.0418,-10e-4 z m -0.23904,-0.005 c -0.20183,-0.006 -0.64226,-0.0113 -0.97071,-0.0128 -0.18047,-7.8e-4 -0.2956,-9.1e-4 -0.25586,-2.8e-4 0.0397,6.3e-4 0.25508,0.003 0.47852,0.006 0.22344,0.003 0.46777,0.006 0.54297,0.007 0.0752,0.002 0.17627,0.003 0.22461,0.003 l 0.0879,4e-5 z m -1.40528,-0.0183 c -0.0564,-6.1e-4 -0.14868,-6.1e-4 -0.20508,0 -0.0564,6.1e-4 -0.0102,10e-4 0.10254,10e-4 0.1128,0 0.15894,-5e-4 0.10254,-10e-4 z m -0.6013,-0.004 c -0.0455,-6.3e-4 -0.12109,-6.3e-4 -0.16796,0 -0.0469,6.2e-4 -0.01,10e-4 0.0827,10e-4 0.0924,0 0.13073,-5.1e-4 0.0852,-10e-4 z m -0.58789,-0.004 c -0.0444,-6.2e-4 -0.11826,-6.3e-4 -0.16406,0 -0.0458,6.3e-4 -0.009,0.001 0.0808,0.001 0.0902,0 0.12771,-5.1e-4 0.0833,-0.001 z"
     id="path58"
     transform="translate(-10)" />
  <path
     style="fill:#ffffff;fill-opacity:1;stroke-width:0.00390625"
     d="m 429.77539,795.46424 v -0.41857 l 1.02441,0.003 c 0.56343,10e-4 1.29424,0.004 1.62403,0.005 0.32978,10e-4 0.59873,10e-4 0.59765,3.3e-4 -10e-4,-10e-4 -0.46337,-0.004 -1.02734,-0.006 -0.56396,-0.002 -1.2939,-0.005 -1.62207,-0.007 l -0.59668,-0.003 v -0.0581 -0.0581 l 0.84473,-6.3e-4 c 0.66337,-5e-4 0.78308,-10e-4 0.55761,-0.004 -0.15791,-0.002 -0.53803,-0.004 -0.84472,-0.006 l -0.55762,-0.003 v -0.0165 -0.0165 l 0.26074,-0.003 c 0.14341,-10e-4 0.5042,-0.003 0.80176,-0.003 l 0.54102,-7.9e-4 -0.64258,-0.003 c -0.35342,-10e-4 -0.71421,-0.003 -0.80176,-0.003 l -0.15918,-5.7e-4 v -1.07031 -1.07031 h 2.31445 2.31446 v 1.58007 1.58008 h -2.31446 -2.31445 z m 3.86328,-0.51927 c -0.0311,-0.002 -0.0935,-0.005 -0.13867,-0.007 -0.0451,-0.002 -0.0926,-0.005 -0.10547,-0.006 -0.019,-10e-4 -0.0212,-10e-4 -0.0118,0.002 0.0219,0.007 0.14117,0.0139 0.2559,0.0143 l 0.0566,2.4e-4 z m -0.31136,-0.0377 c -0.0133,-7.6e-4 -0.0362,-7.7e-4 -0.0508,-1e-5 -0.0146,7.5e-4 -0.004,0.001 0.0242,0.001 0.0279,10e-6 0.0399,-6.1e-4 0.0265,-0.001 z m -0.23161,-0.005 c -0.17401,-0.005 -0.62756,-0.0115 -0.75781,-0.0108 -0.0908,4.7e-4 -0.0581,10e-4 0.125,0.004 0.13643,0.002 0.32275,0.005 0.41406,0.007 0.0913,0.002 0.20117,0.003 0.24414,0.003 l 0.0781,10e-6 z m 0.47071,-0.008 c 0.0687,-0.005 0.12763,-0.01 0.13086,-0.0109 0.01,-0.004 -0.32915,-0.007 -0.7461,-0.007 l -0.39648,2.4e-4 0.4414,0.003 c 0.49395,0.003 0.63922,0.004 0.61914,0.006 -0.008,7.2e-4 -0.0515,0.004 -0.0976,0.007 -0.0462,0.003 -0.0937,0.008 -0.10547,0.01 l -0.0215,0.003 0.0254,-0.002 c 0.014,-8.7e-4 0.0816,-0.005 0.15039,-0.01 z m -1.45437,-0.007 c -0.0436,-6.3e-4 -0.11396,-6.3e-4 -0.15625,0 -0.0423,6.3e-4 -0.007,0.001 0.0794,0.001 0.0859,0 0.12053,-5.1e-4 0.0769,-0.001 z m -0.45481,-0.004 c -0.0338,-6.5e-4 -0.0892,-6.5e-4 -0.12305,0 -0.0338,6.5e-4 -0.006,10e-4 0.0615,10e-4 0.0677,0 0.0954,-5.3e-4 0.0615,-10e-4 z m -0.59744,-0.004 c -0.0251,-6.8e-4 -0.0673,-6.8e-4 -0.0937,-10e-6 -0.0264,6.8e-4 -0.006,10e-4 0.0457,10e-4 0.0516,0 0.0732,-5.5e-4 0.0481,-10e-4 z m -0.58008,-0.004 c -0.024,-6.8e-4 -0.0645,-6.8e-4 -0.0898,0 -0.0254,6.8e-4 -0.006,10e-4 0.0437,10e-4 0.0494,0 0.0702,-5.5e-4 0.0461,-10e-4 z m 1.73806,-0.004 c -0.15307,-5.7e-4 -0.40356,-5.7e-4 -0.55664,0 -0.15307,5.7e-4 -0.0278,10e-4 0.27832,10e-4 0.30616,0 0.4314,-4.6e-4 0.27832,-10e-4 z"
     id="path59"
     transform="translate(-10)" />
  <path
     style="fill:#ffffff;fill-opacity:1;stroke-width:0.00390625"
     d="m 429.77539,795.46425 v -0.41857 l 1.05566,0.003 c 0.58062,10e-4 1.30088,0.004 1.60059,0.005 0.29971,10e-4 0.54404,0.002 0.54297,3.8e-4 -10e-4,-0.001 -0.47481,-0.004 -1.05274,-0.006 -0.57792,-0.002 -1.29731,-0.005 -1.59863,-0.007 l -0.54785,-0.003 v -0.0581 -0.0581 l 0.75488,-6.3e-4 c 0.57546,-4.9e-4 0.70429,-0.001 0.542,-0.004 -0.11709,-0.002 -0.45679,-0.004 -0.75489,-0.006 l -0.54199,-0.003 v -0.0165 -0.0165 l 0.21973,-0.003 c 0.12085,-10e-4 0.45439,-0.003 0.74121,-0.003 l 0.52148,-7.9e-4 -0.57422,-0.003 c -0.31582,-0.001 -0.64936,-0.003 -0.74121,-0.003 l -0.16699,-5.7e-4 v -1.07031 -1.07031 h 2.31444 2.31445 l 9.8e-4,1.58007 9.9e-4,1.58008 h -2.31543 -2.31543 z m 3.85547,-0.51932 c -0.029,-0.002 -0.0897,-0.005 -0.13477,-0.007 -0.0451,-0.002 -0.0908,-0.005 -0.10156,-0.006 -0.0163,-0.002 -0.0177,-10e-4 -0.008,0.002 0.0219,0.007 0.1364,0.0138 0.24829,0.0144 l 0.0488,2.5e-4 z m -0.31928,-0.0375 c -0.005,-9.3e-4 -0.0136,-9.5e-4 -0.0195,-6e-5 -0.006,9e-4 -0.002,0.002 0.009,0.002 0.0107,3e-5 0.0156,-7.1e-4 0.0108,-0.002 z m -0.16607,-0.004 c -0.0188,-7.1e-4 -0.0496,-7.1e-4 -0.0684,0 -0.0188,7.2e-4 -0.003,0.001 0.0342,0.001 0.0376,0 0.053,-5.8e-4 0.0342,-0.001 z m 0.26953,2.2e-4 c -0.004,-9.9e-4 -0.01,-9.9e-4 -0.0137,0 -0.004,9.8e-4 -6.9e-4,0.002 0.007,0.002 0.008,0 0.0106,-8e-4 0.007,-0.002 z m -0.49707,-0.005 c -0.0666,-10e-4 -0.17559,-0.002 -0.24219,-0.002 l -0.12109,3.8e-4 0.13476,0.002 c 0.0741,10e-4 0.18311,0.002 0.24219,0.002 l 0.10742,1.7e-4 z m 0.67281,-0.006 c 0.0564,-0.004 0.10111,-0.008 0.0994,-0.01 -0.002,-0.002 -0.22889,-0.004 -0.50485,-0.005 -0.47443,-10e-4 -0.48165,-10e-4 -0.13261,10e-4 0.20303,0.002 0.41573,0.003 0.47266,0.004 l 0.10352,10e-4 -0.067,0.005 c -0.0369,0.003 -0.0826,0.007 -0.10157,0.009 l -0.0345,0.004 0.0312,-0.002 c 0.0172,-8.6e-4 0.0774,-0.005 0.13375,-0.008 z m -1.10543,-3.3e-4 c -0.036,-6.5e-4 -0.0949,-6.5e-4 -0.13086,0 -0.036,6.4e-4 -0.007,10e-4 0.0654,10e-4 0.072,0 0.10142,-5.3e-4 0.0654,-10e-4 z m -0.40798,-0.004 c -0.024,-6.8e-4 -0.0645,-6.9e-4 -0.0898,0 -0.0254,6.8e-4 -0.006,10e-4 0.0437,10e-4 0.0494,0 0.0702,-5.5e-4 0.0461,-10e-4 z m -0.45317,-0.004 c -0.0155,-7.4e-4 -0.0418,-7.4e-4 -0.0586,-10e-6 -0.0168,7.4e-4 -0.004,10e-4 0.0281,10e-4 0.0322,0 0.0459,-6e-4 0.0304,-10e-4 z m -0.59588,-0.004 c -0.008,-8.5e-4 -0.0212,-8.5e-4 -0.0293,0 -0.008,8.4e-4 -10e-4,0.002 0.0147,0.002 0.0161,0 0.0227,-6.9e-4 0.0147,-0.002 z m -0.57821,-0.004 c -0.008,-8.5e-4 -0.0204,-8.4e-4 -0.0274,3e-5 -0.007,8.6e-4 -3e-4,0.002 0.0147,0.002 0.015,-10e-6 0.0207,-7.2e-4 0.0126,-0.002 z m 1.65077,-0.004 c -0.0863,-5.8e-4 -0.2287,-5.8e-4 -0.31641,0 -0.0877,5.9e-4 -0.0171,0.001 0.15694,0.001 0.17402,0 0.24578,-4.8e-4 0.15947,-0.001 z"
     id="path60"
     transform="translate(-10)" />
  <path
     style="fill:#ffffff;fill-opacity:1;stroke-width:0.00390625"
     d="m 429.77539,795.46435 v -0.41846 l 1.26074,0.002 c 0.98832,0.002 1.1067,10e-4 0.54785,-0.001 -0.39209,-0.002 -0.95942,-0.004 -1.26074,-0.006 l -0.54785,-0.003 v -0.0581 -0.0581 l 0.68262,-7.2e-4 c 0.37544,-4e-4 0.64658,-0.002 0.60254,-0.003 -0.044,-10e-4 -0.17427,-0.003 -0.2894,-0.003 -0.11512,-3e-4 -0.38626,-0.002 -0.60253,-0.003 l -0.39323,-0.003 v -0.0163 -0.0163 l 0.17285,-0.003 c 0.0951,-10e-4 0.40313,-0.003 0.68457,-0.003 l 0.51172,-7.9e-4 -0.51172,-0.003 c -0.28144,-10e-4 -0.5895,-0.003 -0.68457,-0.003 l -0.17285,-5.7e-4 v -1.07031 -1.07031 h 2.31444 2.31445 l 9.8e-4,1.58007 9.9e-4,1.58008 h -2.31543 -2.31543 z m 3.0247,-0.41259 c -0.0734,-5.9e-4 -0.19472,-5.9e-4 -0.26953,0 -0.0748,5.9e-4 -0.0147,0.001 0.1335,0.001 0.14824,0 0.20946,-4.9e-4 0.13603,-0.001 z m 0.86397,-0.1049 c -0.004,-7.1e-4 -0.0641,-0.004 -0.13281,-0.007 -0.0688,-0.003 -0.13115,-0.007 -0.13867,-0.008 -0.0113,-0.002 -0.0122,-10e-4 -0.005,0.002 0.01,0.004 0.10178,0.0116 0.16515,0.0132 0.0633,0.002 0.12,0.002 0.11133,3.2e-4 z m -0.53418,-0.0435 c -0.0102,-8.1e-4 -0.0269,-8.1e-4 -0.0371,0 -0.0102,8e-4 -0.002,10e-4 0.0186,10e-4 0.0204,0 0.0288,-6.6e-4 0.0186,-10e-4 z m 0.28321,2.8e-4 c -0.003,-10e-4 -0.007,-10e-4 -0.01,0 -0.003,10e-4 -4.9e-4,0.002 0.005,0.002 0.005,0 0.008,-8.8e-4 0.005,-0.002 z m -0.45313,-0.004 c -0.0242,-6.9e-4 -0.0637,-6.9e-4 -0.0879,0 -0.0242,6.8e-4 -0.004,10e-4 0.0439,10e-4 0.0483,0 0.0681,-5.6e-4 0.0439,-10e-4 z m 0.5,1.6e-4 c -0.005,-9.3e-4 -0.0127,-9.3e-4 -0.0176,0 -0.005,9.3e-4 -8.8e-4,0.002 0.009,0.002 0.01,0 0.0136,-7.6e-4 0.009,-0.002 z m -0.70875,-0.004 c -0.0294,-6.6e-4 -0.0786,-6.7e-4 -0.10937,0 -0.0308,6.6e-4 -0.007,10e-4 0.0535,10e-4 0.0602,0 0.0853,-5.4e-4 0.0559,-10e-4 z m 0.86126,-0.005 c 0.0416,-0.003 0.0712,-0.006 0.0684,-0.008 -0.003,-0.002 -0.0806,-0.003 -0.17302,-0.002 l -0.16797,8.4e-4 0.14453,0.002 c 0.0795,10e-4 0.13311,0.003 0.11915,0.003 -0.014,6.8e-4 -0.05,0.004 -0.0801,0.007 -0.0634,0.006 -0.0304,0.005 0.089,-0.002 z m -1.15837,10e-4 c -0.0209,-7e-4 -0.0552,-7e-4 -0.0762,0 -0.0209,7e-4 -0.004,10e-4 0.0381,10e-4 0.0419,0 0.059,-5.8e-4 0.0381,-10e-4 z m -0.40418,-0.004 c -0.009,-8.2e-4 -0.0249,-8.3e-4 -0.0351,-2e-5 -0.0103,8.1e-4 -0.003,10e-4 0.0165,10e-4 0.0193,10e-6 0.0277,-6.5e-4 0.0187,-10e-4 z m -1.03137,-0.008 c -0.003,-0.001 -0.007,-0.001 -0.01,0 -0.003,10e-4 -4.9e-4,0.002 0.005,0.002 0.005,0 0.008,-8.9e-4 0.005,-0.002 z m 2.1504,-0.004 c -0.0575,-6.1e-4 -0.15152,-6.1e-4 -0.20899,0 -0.0575,6.1e-4 -0.0105,10e-4 0.10449,10e-4 0.11494,0 0.16197,-5e-4 0.1045,-10e-4 z m -1.15013,-0.004 c -0.0434,-6.3e-4 -0.11544,-6.3e-4 -0.16016,-10e-6 -0.0447,6.3e-4 -0.009,10e-4 0.0788,10e-4 0.0881,0 0.12468,-5.2e-4 0.0813,-10e-4 z"
     id="path61"
     transform="translate(-10)" />
  <path
     style="fill:#ffffff;fill-opacity:1;stroke-width:0.00390625"
     d="m 429.77539,795.4642 v -0.4186 l 1.07129,0.002 c 0.81216,0.002 0.93523,10e-4 0.50879,-10e-4 -0.30938,-0.002 -0.79146,-0.004 -1.07129,-0.006 l -0.50879,-0.003 v -0.0581 -0.0581 l 0.64551,-6.9e-4 c 0.35503,-3.8e-4 0.61914,-0.002 0.58691,-0.003 -0.0322,-0.001 -0.1563,-0.003 -0.27572,-0.003 -0.11942,-2.8e-4 -0.38353,-0.002 -0.58691,-0.003 l -0.36979,-0.003 v -0.0163 -0.0163 l 0.16113,-0.003 c 0.0886,-10e-4 0.37032,-0.003 0.62598,-0.003 l 0.46484,-7.9e-4 -0.46289,-0.003 c -0.25459,-10e-4 -0.53628,-0.003 -0.62597,-0.003 l -0.16309,-5.7e-4 v -1.07031 -1.07031 h 2.31444 2.31445 l 9.8e-4,1.58007 9.9e-4,1.58008 h -2.31543 -2.31543 z m 2.96607,-0.41243 c -0.0348,-6.5e-4 -0.0928,-6.5e-4 -0.12891,-1e-5 -0.0361,6.5e-4 -0.008,0.001 0.0632,0.001 0.0709,0 0.10045,-5.3e-4 0.0657,-0.001 z m 0.87963,-0.10667 c -0.0236,-0.002 -0.0816,-0.005 -0.1289,-0.007 -0.0473,-0.002 -0.0921,-0.005 -0.0996,-0.006 -0.011,-10e-4 -0.012,-10e-4 -0.005,0.002 0.0139,0.006 0.14155,0.0138 0.24357,0.0146 0.0321,2.6e-4 0.0317,1.7e-4 -0.01,-0.003 z m -0.50097,-0.0416 c -0.005,-9.3e-4 -0.0127,-9.3e-4 -0.0176,0 -0.005,9.3e-4 -8.8e-4,0.002 0.009,0.002 0.01,0 0.0136,-7.7e-4 0.009,-0.002 z m -0.17562,-0.004 c -0.0133,-7.6e-4 -0.0362,-7.7e-4 -0.0508,-2e-5 -0.0146,7.6e-4 -0.004,10e-4 0.0243,10e-4 0.0279,0 0.0399,-6.1e-4 0.0265,-10e-4 z m 0.51163,3.2e-4 c -0.003,-10e-4 -0.008,-10e-4 -0.0117,-1.4e-4 -0.004,9.9e-4 -0.002,0.002 0.005,0.002 0.006,8e-5 0.01,-7.3e-4 0.007,-0.002 z m -0.72841,-0.004 c -0.0165,-7.3e-4 -0.0447,-7.4e-4 -0.0625,-10e-6 -0.0178,7.2e-4 -0.004,10e-4 0.0301,10e-4 0.0344,0 0.049,-5.9e-4 0.0324,-10e-4 z m 0.78502,2.1e-4 c -0.004,-9.7e-4 -0.0108,-10e-4 -0.0156,-8e-5 -0.005,9.4e-4 -0.002,0.002 0.007,0.002 0.009,5e-5 0.0126,-7.2e-4 0.009,-0.002 z m -1.08012,-0.004 c -0.0113,-7.9e-4 -0.0297,-7.9e-4 -0.041,0 -0.0113,7.9e-4 -0.002,10e-4 0.0205,10e-4 0.0226,0 0.0318,-6.5e-4 0.0205,-10e-4 z m 1.21386,-0.004 c 0.0708,-0.005 0.0195,-0.008 -0.12109,-0.008 l -0.13867,5e-4 0.12109,0.002 c 0.0666,10e-4 0.10967,0.003 0.0957,0.004 -0.014,7.6e-4 -0.0368,0.003 -0.0508,0.004 -0.0201,0.002 -0.0169,0.003 0.0156,10e-4 0.0226,-8.9e-4 0.0577,-0.003 0.0781,-0.004 z m -1.61043,4e-4 c -10e-4,-10e-4 -0.005,-10e-4 -0.007,-3e-4 -0.003,10e-4 -0.002,0.002 0.002,0.002 0.004,1.7e-4 0.006,-7.6e-4 0.005,-0.002 z m 1.07821,-0.0123 c -0.0295,-6.7e-4 -0.0779,-6.7e-4 -0.10742,0 -0.0296,6.6e-4 -0.005,10e-4 0.0537,10e-4 0.0591,0 0.0833,-5.4e-4 0.0537,-10e-4 z m -1.16602,-0.004 c -0.003,-10e-4 -0.007,-10e-4 -0.01,0 -0.003,10e-4 -4.9e-4,0.002 0.005,0.002 0.005,0 0.008,-8.8e-4 0.005,-0.002 z"
     id="path62"
     transform="translate(-10)" />
  <path
     style="fill:#ffffff;fill-opacity:1;stroke-width:0.00390625"
     d="m 429.77539,795.46425 v -0.41855 l 0.91113,0.002 c 0.50113,8.6e-4 0.80567,5e-4 0.67676,-8e-4 -0.12891,-0.001 -0.37251,-0.003 -0.54134,-0.003 -0.16884,-3.1e-4 -0.47338,-0.002 -0.67676,-0.003 l -0.36979,-0.003 v -0.058 -0.058 l 0.6084,-6e-4 c 0.33462,-3.3e-4 0.59346,-0.002 0.57519,-0.004 -0.0183,-0.002 -0.13515,-0.003 -0.25976,-0.003 -0.12461,-2.2e-4 -0.38345,-0.002 -0.5752,-0.003 l -0.34863,-0.003 v -0.0163 -0.0163 l 0.1377,-0.003 c 0.0757,-10e-4 0.33369,-0.003 0.57324,-0.003 l 0.43554,-7.9e-4 -0.41601,-0.003 c -0.22881,-10e-4 -0.48677,-0.003 -0.57324,-0.003 l -0.15723,-5.7e-4 v -1.07031 -1.07031 h 2.31444 2.31445 l 9.8e-4,1.58007 9.9e-4,1.58008 h -2.31543 -2.31543 z m 2.90137,-0.41236 c -0.006,-9e-4 -0.0156,-9e-4 -0.0215,0 -0.006,8.9e-4 -10e-4,0.002 0.0108,0.002 0.0118,0 0.0166,-7.4e-4 0.0107,-0.002 z m 0.93847,-0.10675 c -0.0204,-0.002 -0.0775,-0.005 -0.12695,-0.008 -0.0494,-0.002 -0.0934,-0.005 -0.0977,-0.006 -0.006,-0.002 -0.007,-10e-4 -0.002,0.002 0.009,0.006 0.13278,0.0136 0.23821,0.0148 0.0193,2.2e-4 0.0165,-4.3e-4 -0.0117,-0.003 z m -0.68261,-0.0456 c -0.007,-8.7e-4 -0.0184,-8.7e-4 -0.0254,0 -0.007,8.6e-4 -10e-4,0.002 0.0127,0.002 0.014,0 0.0197,-7.1e-4 0.0127,-0.002 z m 0.5214,4.6e-4 c -0.001,-10e-4 -0.005,-10e-4 -0.007,-3e-4 -0.003,10e-4 -0.002,0.002 0.002,0.002 0.004,1.6e-4 0.006,-7.6e-4 0.005,-0.002 z m -0.74591,-0.004 c -0.008,-8.4e-4 -0.0221,-8.5e-4 -0.0312,-3e-5 -0.009,8.3e-4 -0.003,0.002 0.0146,0.002 0.0172,10e-6 0.0247,-6.6e-4 0.0167,-0.002 z m 0.80271,2.8e-4 c -0.003,-0.001 -0.008,-0.001 -0.0117,-1.5e-4 -0.004,9.9e-4 -0.002,0.002 0.005,0.002 0.006,8e-5 0.01,-7.3e-4 0.007,-0.002 z m -1.09773,-0.004 c -0.003,-10e-4 -0.007,-10e-4 -0.01,0 -0.003,10e-4 -4.9e-4,0.002 0.005,0.002 0.005,0 0.008,-8.8e-4 0.005,-0.002 z m 1.15043,-9e-5 c -0.004,-9.8e-4 -0.0108,-10e-4 -0.0156,-8e-5 -0.005,9.3e-4 -0.002,0.002 0.007,0.002 0.009,4e-5 0.0126,-7.2e-4 0.009,-0.002 z m 0.0794,-0.004 c 0.0633,-0.005 0.0144,-0.008 -0.10389,-0.008 l -0.10547,5.8e-4 0.0977,0.002 c 0.0593,10e-4 0.0869,0.003 0.0703,0.004 -0.0181,0.001 -0.022,0.002 -0.0113,0.003 0.009,4.2e-4 0.0325,-4.8e-4 0.0527,-0.002 z m -0.57166,-0.0116 c -0.004,-9.8e-4 -0.01,-9.8e-4 -0.0137,0 -0.004,9.9e-4 -6.9e-4,0.002 0.007,0.002 0.008,0 0.0106,-8e-4 0.007,-0.002 z"
     id="path63"
     transform="translate(-10)" />
  <path
     style="fill:#ffffff;fill-opacity:1;stroke-width:0.00390625"
     d="m 429.77539,795.46484 v -0.41797 l 0.67871,-7.8e-4 0.67871,-7.8e-4 -0.51367,-0.003 c -0.28252,-0.001 -0.58794,-0.003 -0.67871,-0.003 l -0.16504,-5.7e-4 v -0.0586 -0.0586 l 0.57715,-2.7e-4 c 0.32557,-1.5e-4 0.57374,-0.002 0.56933,-0.004 -0.004,-0.002 -0.1124,-0.003 -0.24023,-0.004 -0.12783,-1.5e-4 -0.38403,-10e-4 -0.56934,-0.003 l -0.33691,-0.003 v -0.0163 -0.0163 l 0.12012,-0.003 c 0.0661,-10e-4 0.29765,-0.003 0.51465,-0.003 l 0.39453,-7.8e-4 -0.35157,-0.003 c -0.19335,-10e-4 -0.42495,-0.003 -0.51464,-0.003 l -0.16309,-5.6e-4 v -1.07031 -1.07031 h 2.31444 2.31445 l 9.8e-4,1.58007 9.9e-4,1.58008 h -2.31543 -2.31543 z m 1.58887,-0.41696 c -0.0145,-7.5e-4 -0.0382,-7.5e-4 -0.0527,0 -0.0145,7.6e-4 -0.003,0.001 0.0264,0.001 0.029,0 0.0409,-6.1e-4 0.0264,-0.001 z m 2.26562,-0.10135 c -0.004,-9.9e-4 -0.01,-9.9e-4 -0.0137,0 -0.004,9.8e-4 -6.8e-4,0.002 0.007,0.002 0.008,0 0.0106,-8e-4 0.007,-0.002 z m -0.11621,-0.007 c -0.0835,-0.005 -0.12449,-0.006 -0.11328,-0.003 0.0139,0.004 0.0922,0.008 0.14258,0.008 l 0.0547,10e-6 z m -0.58691,-0.0396 c -0.004,-9.8e-4 -0.01,-9.8e-4 -0.0137,0 -0.004,9.8e-4 -6.9e-4,0.002 0.007,0.002 0.008,0 0.0106,-8.1e-4 0.007,-0.002 z m -0.22656,-0.004 c -0.004,-9.8e-4 -0.01,-9.8e-4 -0.0137,0 -0.004,9.9e-4 -6.8e-4,0.002 0.007,0.002 0.008,0 0.0106,-8e-4 0.007,-0.002 z m 0.80851,3.4e-4 c -0.001,-10e-4 -0.005,-10e-4 -0.007,-3.1e-4 -0.003,0.001 -0.002,0.002 0.002,0.002 0.004,1.7e-4 0.006,-7.5e-4 0.005,-0.002 z m 0.0529,-0.004 c -0.003,-0.001 -0.008,-0.001 -0.0117,-1.5e-4 -0.004,9.9e-4 -0.002,0.002 0.005,0.002 0.006,8e-5 0.01,-7.3e-4 0.007,-0.002 z m 0.0849,-0.005 0.0254,-0.003 -0.0332,-0.003 c -0.0183,-0.002 -0.0648,-0.002 -0.10351,-0.002 l -0.0703,10e-4 0.082,0.002 c 0.0555,0.001 0.0745,0.002 0.0586,0.004 l -0.0234,0.003 0.0195,2e-4 c 0.0107,1.1e-4 0.031,-9.8e-4 0.0449,-0.002 z"
     id="path64"
     transform="translate(-10)" />
  <path
     style="fill:#ffffff;fill-opacity:1;stroke-width:0.00390625"
     d="m 429.77539,795.46484 v -0.41797 l 0.62402,-7.7e-4 0.62403,-7.8e-4 -0.45508,-0.003 c -0.25029,-10e-4 -0.5311,-0.003 -0.62402,-0.003 l -0.16895,-5.6e-4 v -0.0586 -0.0586 l 0.53613,-5.1e-4 c 0.29488,-2.8e-4 0.54932,-0.002 0.56543,-0.003 0.0161,-0.002 -0.0762,-0.003 -0.20508,-0.003 -0.1289,-3.5e-4 -0.38334,-0.002 -0.56542,-0.003 l -0.33106,-0.003 v -0.0163 -0.0163 l 0.0885,-0.003 c 0.0487,-0.001 0.25743,-0.003 0.46387,-0.003 l 0.37534,-7.8e-4 -0.29296,-0.003 c -0.16114,-10e-4 -0.36988,-0.003 -0.46387,-0.003 l -0.1709,-5.7e-4 v -1.07031 -1.07031 h 2.31444 2.31445 l 9.8e-4,1.58007 9.9e-4,1.58008 h -2.31543 -2.31543 z m 3.73438,-0.52557 c -0.0849,-0.005 -0.11394,-0.006 -0.10719,-0.003 0.008,0.003 0.0903,0.008 0.13844,0.008 0.046,0 0.0442,-2.9e-4 -0.0312,-0.005 z m 0.0497,-0.0471 c -10e-4,-10e-4 -0.005,-10e-4 -0.007,-3.1e-4 -0.003,0.001 -0.002,0.002 0.002,0.002 0.004,1.7e-4 0.006,-7.5e-4 0.005,-0.002 z m 0.087,-0.005 c 0.0253,-0.003 0.0253,-0.003 -0.0195,-0.006 -0.0247,-0.002 -0.0643,-0.002 -0.0879,-0.002 -0.0384,10e-4 -0.0359,0.002 0.0234,0.003 0.0475,10e-4 0.0603,0.002 0.0449,0.004 -0.0211,0.003 -0.0212,0.003 -0.004,0.003 0.01,10e-5 0.029,-0.001 0.043,-0.002 z"
     id="path65"
     transform="translate(-10)" />
  <path
     style="fill:#ffffff;fill-opacity:1;stroke-width:0.00390625"
     d="m 429.77539,795.46484 v -0.41797 l 0.5752,-7.8e-4 0.57519,-7.8e-4 -0.41601,-0.003 c -0.22881,-0.001 -0.48765,-0.003 -0.5752,-0.003 l -0.15918,-5.7e-4 v -0.0586 -0.0586 l 0.50098,-5.2e-4 c 0.27553,-3e-4 0.52207,-0.002 0.54785,-0.003 0.0271,-0.002 -0.0543,-0.003 -0.19336,-0.003 -0.13213,-3.7e-4 -0.37866,-0.002 -0.54785,-0.003 l -0.30762,-0.003 v -0.0163 -0.0163 l 0.0791,-0.003 c 0.0435,-10e-4 0.22412,-0.003 0.40137,-0.003 l 0.32226,-7.8e-4 -0.23828,-0.003 c -0.13105,-10e-4 -0.31167,-0.003 -0.40136,-0.003 l -0.16309,-5.6e-4 v -1.07031 -1.07031 h 2.31444 2.31445 l 9.8e-4,1.58007 9.9e-4,1.58008 h -2.31543 -2.31543 z m 3.75586,-0.52363 c -0.0704,-0.005 -0.13311,-0.007 -0.12845,-0.005 0.007,0.003 0.0896,0.008 0.13236,0.008 l 0.0391,-10e-6 z m 0.085,-0.0533 c -0.005,-9.3e-4 -0.0127,-9.3e-4 -0.0176,0 -0.005,9.3e-4 -8.8e-4,0.002 0.009,0.002 0.01,0 0.0136,-7.6e-4 0.009,-0.002 z m 0.041,-0.004 c -0.006,-8.9e-4 -0.0156,-8.9e-4 -0.0215,0 -0.006,9e-4 -10e-4,0.002 0.0107,0.002 0.0118,0 0.0167,-7.3e-4 0.0108,-0.002 z m -0.0607,-0.004 c -0.0157,-7.4e-4 -0.0403,-7.4e-4 -0.0547,10e-6 -0.0144,7.5e-4 -0.002,10e-4 0.0285,10e-4 0.0301,0 0.0419,-6.2e-4 0.0262,-10e-4 z"
     id="path66"
     transform="translate(-10)" />
  <path
     style="fill:#ffffff;fill-opacity:1;stroke-width:0.00390625"
     d="m 429.77539,795.46484 v -0.41797 l 0.53613,-7.7e-4 0.53614,-7.8e-4 -0.38086,-0.003 c -0.20948,-10e-4 -0.45074,-0.003 -0.53614,-0.003 l -0.15527,-5.7e-4 v -0.0586 -0.0586 l 0.45801,-4.7e-4 c 0.2519,-2.6e-4 0.48877,-0.002 0.52637,-0.003 0.0472,-0.002 -0.005,-0.003 -0.16797,-0.003 -0.12998,-3.8e-4 -0.36685,-0.002 -0.52637,-0.003 l -0.29004,-0.003 v -0.0169 c 0,-0.0157 7.6e-4,-0.017 0.0107,-0.0175 0.006,-3.1e-4 0.16455,-0.002 0.35254,-0.003 l 0.3418,-0.002 -0.35254,-0.003 -0.35254,-0.003 v -1.06982 -1.06982 h 2.31444 2.31445 l 9.8e-4,1.58007 9.9e-4,1.58008 h -2.31543 -2.31543 z m 3.75586,-0.5235 c -0.0615,-0.005 -0.12933,-0.007 -0.12455,-0.005 0.007,0.003 0.0897,0.008 0.12846,0.008 h 0.0351 z m 0.085,-0.0533 c -0.003,-0.001 -0.008,-0.001 -0.0117,-1.4e-4 -0.004,9.9e-4 -0.002,0.002 0.005,0.002 0.006,8e-5 0.01,-7.3e-4 0.007,-0.002 z m 0.037,-0.004 c -0.004,-9.9e-4 -0.01,-9.9e-4 -0.0137,0 -0.004,9.8e-4 -6.9e-4,0.002 0.007,0.002 0.008,0 0.0106,-8e-4 0.007,-0.002 z m -0.0743,-0.004 c -0.008,-8.4e-4 -0.0204,-8.3e-4 -0.0273,3e-5 -0.007,8.7e-4 -3e-4,0.002 0.0147,0.002 0.015,-2e-5 0.0207,-7.2e-4 0.0126,-0.002 z"
     id="path67"
     transform="translate(-10)" />
  <path
     style="fill:#ffffff;fill-opacity:1;stroke-width:0.114268"
     d="m 372.912,808.82543 v -13.9006 l 28.33834,0.0842 c 17.28658,0.0514 28.33834,0.0431 28.33834,-0.0212 0,-0.0635 -6.61727,-0.13561 -16.65449,-0.18144 -9.15997,-0.0418 -21.91222,-0.11016 -28.33834,-0.15186 L 372.912,794.5787 v -1.0659 -1.0659 l 6.99888,-0.0303 6.99889,-0.0303 -6.99889,-0.0277 -6.99888,-0.0277 v -31.02362 -31.02363 h 67.7035 67.70349 v 31.01901 31.019 l -0.9427,0.0385 -0.94271,0.0385 0.94271,0.0232 0.9427,0.0233 v 1.29652 1.29652 l -29.05251,-0.0452 c -16.36039,-0.0255 -29.90115,-3.7e-4 -30.99506,0.0575 -1.47033,0.0777 0.32132,0.10689 7.37025,0.11996 5.12204,0.009 19.06982,0.0515 30.99506,0.0933 l 21.68226,0.0761 v 13.69315 13.69316 H 440.6155 372.912 Z m 65.46576,-13.93868 c 0.0262,-0.0231 -0.79654,-0.032 -1.82828,-0.0199 -1.75669,0.0207 -1.80328,0.0267 -0.73322,0.0932 1.05505,0.0656 2.44918,0.0257 2.5615,-0.0734 z"
     id="path68"
     transform="translate(-10)" />
  <path
     style="fill:#ffffff;fill-opacity:1;stroke-width:0.114268"
     d="M 372.912,808.82422 V 794.9224 l 28.25264,0.0716 c 15.53895,0.0394 28.1498,0.0295 28.02411,-0.022 -0.1257,-0.0515 -7.68449,-0.12696 -16.79733,-0.16769 -9.11283,-0.0407 -21.72368,-0.10819 -28.0241,-0.1499 l -11.45532,-0.0758 v -1.06495 -1.06495 l 3.28519,-0.0322 3.28519,-0.0321 -3.28519,-0.0267 -3.28519,-0.0267 v -31.02362 -31.02363 h 67.7035 67.70349 v 31.01673 31.01673 l -0.4285,0.0448 -0.4285,0.0448 0.4285,0.0192 0.4285,0.0192 v 1.29609 1.29608 l -29.45245,-0.0467 c -18.49998,-0.0293 -29.64366,-0.006 -29.96665,0.0626 -0.34443,0.0732 2.58263,0.11346 8.86533,0.12184 5.15874,0.007 18.64332,0.0468 29.96574,0.0886 l 20.5862,0.0761 0.0295,13.69317 0.0295,13.69317 h -67.73207 l -67.73206,-10e-6 z m 64.64684,-13.94993 c -0.42422,-0.022 -1.11839,-0.022 -1.54261,0 -0.42422,0.022 -0.0771,0.04 0.77131,0.04 0.84843,0 1.19552,-0.018 0.7713,-0.04 z"
     id="path69"
     transform="translate(-10)" />
  <path
     style="fill:#ffffff;fill-opacity:1;stroke-width:0.114268"
     d="M 372.912,808.82357 V 794.9211 l 27.65274,0.0764 c 15.209,0.042 27.65273,0.0334 27.65273,-0.0193 0,-0.0526 -7.31455,-0.13004 -16.25455,-0.17201 -8.94,-0.042 -21.38374,-0.11036 -27.65274,-0.152 l -11.39818,-0.0757 v -1.06284 -1.06283 l 1.22838,-0.0367 1.22837,-0.0367 -1.22837,-0.0243 -1.22838,-0.0243 V 761.3072 730.28357 h 67.7035 67.70349 v 31.01525 c 0,29.44225 -0.0101,31.0179 -0.19997,31.0675 -0.19044,0.0498 -0.19044,0.0529 0,0.0655 0.17794,0.0118 0.19997,0.15633 0.19997,1.31204 v 1.29878 l -29.61218,-0.0583 c -22.20688,-0.0437 -29.59198,-0.0256 -29.5314,0.0724 0.0597,0.0965 2.80422,0.1307 10.50094,0.13073 5.73109,2e-5 19.01981,0.0343 29.53049,0.0761 l 19.11032,0.076 0.0295,13.69317 0.0295,13.69318 h -67.73207 l -67.73206,-10e-6 z m 63.9041,-13.94022 c -0.0786,-0.0317 -0.20711,-0.0317 -0.28567,0 -0.0786,0.0317 -0.0143,0.0576 0.14284,0.0576 0.15712,0 0.22139,-0.0259 0.14283,-0.0576 z"
     id="path70"
     transform="translate(-10)" />
  <path
     style="fill:#ffffff;fill-opacity:1;stroke-width:1.20184"
     d="m 283.83508,850.10309 c -0.44068,-0.44067 -0.71308,-4.90251 -0.60533,-9.9152 l 0.19589,-9.11397 0.81005,6.61013 c 0.50103,4.08845 0.88479,-2.6886 1.00595,-17.76488 0.15907,-19.79281 0.51606,-24.4979 1.89901,-25.02859 0.93671,-0.35944 20.81218,-1.06635 44.1677,-1.57091 l 42.46459,-0.91737 -44.1677,-0.19412 c -35.77045,-0.15722 -44.1677,-0.49691 -44.1677,-1.78671 0,-3.31254 5.07212,-29.64406 8.49043,-44.07743 7.55295,-31.89129 17.15575,-54.06157 33.31494,-76.91515 10.72468,-15.16768 36.52559,-41.07909 48.93372,-49.14328 5.2881,-3.4368 29.62541,-16.28257 54.0829,-28.54616 24.45749,-12.26359 44.62261,-22.44492 44.81137,-22.6252 0.18877,-0.18026 -5.76034,-4.83972 -13.22026,-10.35432 -42.89773,-31.71142 -53.70624,-43.58736 -70.00851,-76.92262 -8.94513,-18.29119 -10.76005,-25.71056 -9.97099,-40.7612 0.4411,-8.41358 1.41358,-12.4023 5.51282,-22.61137 12.42553,-30.9455 21.40551,-44.3856 38.12195,-57.05613 13.65688,-10.35147 35.4408,-23.47882 55.00329,-33.14589 8.3879,-4.145 15.25073,-7.9741 15.25073,-8.50914 0,-1.86366 -15.3869,-17.5571 -26.57557,-27.10499 -19.11892,-16.31521 -23.2885,-20.89646 -26.25232,-28.84421 -3.32329,-8.91172 -4.42994,-22.96575 -2.52865,-32.1126 3.60096,-17.32378 16.5854,-33.78498 32.97735,-41.80752 28.87085,-14.12996 59.93076,-12.17737 79.49158,4.99724 5.80927,5.10062 14.45839,18.52807 18.00644,27.9544 3.62971,9.64322 4.09803,26.05557 1.11745,39.16021 l -1.88347,8.28096 -14.35377,12.84003 c -15.5561,13.91558 -24.28663,24.41324 -26.52952,31.89932 -1.26257,4.21408 -1.15013,5.13185 0.9827,8.02115 1.32462,1.79443 7.71189,6.11478 14.19396,9.60076 6.48205,3.48599 18.60471,11.00429 26.93923,16.70736 33.15929,22.68989 38.71735,28.75904 49.33317,53.86949 17.21398,40.71753 17.35307,49.86609 1.247,82.02418 -13.41971,26.79439 -31.75964,46.97797 -63.62674,70.0229 -9.27787,6.70936 -16.86883,12.68829 -16.86883,13.28653 0,0.59823 19.33463,10.78307 42.96586,22.63299 23.63122,11.84992 47.18035,24.30139 52.33137,27.66993 22.2443,14.54678 53.65239,50.68977 66.92563,77.01496 8.63388,17.12381 18.03151,48.5975 22.88911,76.65823 1.34064,7.74447 2.70358,15.29492 3.02874,16.77878 l 0.59119,2.6979 -111.49221,0.313 -111.4922,0.313 111.47087,0.29415 c 73.31659,0.19347 111.47087,0.70553 111.47087,1.496 0,0.66101 -2.83935,1.29933 -6.30967,1.41848 l -6.30967,0.21663 5.64459,0.44752 c 5.64197,0.44731 5.64488,0.44986 6.25657,5.49211 0.33658,2.77453 0.92952,14.91473 1.31765,26.97823 l 0.70567,21.93362 h -223.394 c -122.8667,0 -223.75455,-0.36055 -224.19523,-0.80123 z m 75.81622,-55.38102 c -7.76691,-0.20933 -20.47639,-0.20933 -28.2433,0 -7.7669,0.20935 -1.41216,0.38063 14.12165,0.38063 15.53381,0 21.88855,-0.17128 14.12165,-0.38063 z m 269.21266,-0.003 c -22.3092,-0.18313 -58.81515,-0.18313 -81.12435,0 -22.3092,0.18314 -4.05622,0.33299 40.56217,0.33299 44.6184,0 62.87138,-0.14985 40.56218,-0.33299 z"
     id="path71"
     transform="translate(-10)" />
  <path
     style="fill:#ffffff;fill-opacity:1;stroke-width:1.20184"
     d="m 591.00593,794.75875 c 1.81779,-0.27537 4.79235,-0.27537 6.61013,0 1.81779,0.27537 0.33051,0.50067 -3.30506,0.50067 -3.63558,0 -5.12286,-0.2253 -3.30507,-0.50067 z"
     id="path72"
     transform="translate(-10)" />
  <path
     style="fill:#ffffff;fill-opacity:1;stroke-width:1.20184"
     d="m 283.83508,850.10309 c -0.44068,-0.44067 -0.73003,-4.90251 -0.64302,-9.9152 0.12459,-7.17696 0.34639,-8.21997 1.04363,-4.90752 0.51736,2.45785 0.95119,-4.92689 1.04363,-17.76489 0.12419,-17.24605 0.50783,-22.10551 1.78384,-22.59515 0.89409,-0.3431 19.41748,-1.05132 41.1631,-1.57385 l 39.53747,-0.95002 -41.1631,-0.19121 c -39.94055,-0.18552 -41.16309,-0.26079 -41.16309,-2.53411 0,-3.42484 6.77522,-36.9658 10.18066,-50.39966 6.8627,-27.07223 16.78736,-49.01845 31.58465,-69.84259 10.3977,-14.63262 36.59482,-41.07824 48.3321,-48.79057 4.93518,-3.24279 29.44716,-16.211 54.47105,-28.81821 l 45.498,-22.92221 -20.81948,-15.52187 c -23.29822,-17.36989 -41.04274,-34.2136 -49.30244,-46.79952 -5.98473,-9.11939 -18.87374,-34.30978 -21.52286,-42.06448 -1.0334,-3.02502 -1.63813,-10.15441 -1.63111,-19.22947 0.0107,-13.79671 0.20289,-14.90196 4.43234,-25.48759 11.80023,-29.5341 22.24357,-45.64072 37.072,-57.17565 12.4706,-9.70079 33.50047,-22.53632 53.86274,-32.87498 9.50929,-4.82821 17.56348,-9.05242 17.8982,-9.38715 1.18767,-1.18766 -10.87147,-13.99028 -24.08853,-25.57366 -22.39076,-19.62317 -25.49927,-23.00531 -28.47282,-30.97915 -7.85329,-21.05938 -2.81751,-44.01508 13.47665,-61.4336 8.04349,-8.59852 20.61938,-15.64554 34.54387,-19.35703 11.61528,-3.09597 33.15466,-2.74865 42.56838,0.68641 17.57407,6.41277 29.92653,19.39259 37.43219,39.33331 3.55441,9.44321 3.99473,25.98522 1.03773,38.98615 l -1.88881,8.30448 -12.83376,11.4423 c -18.66718,16.64326 -29.05862,29.78996 -29.05862,36.76341 0,3.76593 4.68266,8.03855 14.28528,13.03438 11.45771,5.96096 31.4505,18.99313 46.82173,30.52044 16.33217,12.24796 22.64984,20.52434 31.31852,41.02854 13.47515,31.87298 15.19766,40.2971 11.5719,56.59415 -2.438,10.95834 -14.57498,36.06911 -22.89854,47.37588 -12.32657,16.74443 -31.99582,35.01787 -55.55974,51.61695 -6.77539,4.77276 -12.31888,9.17166 -12.31888,9.77531 0,0.60366 19.33463,10.81079 42.96586,22.6825 23.63122,11.87172 47.18035,24.33746 52.33137,27.70166 22.6921,14.82046 53.61475,50.62852 67.53858,78.20889 9.66393,19.14232 18.051,49.60671 25.22731,91.63324 l 0.56312,3.29784 -95.2145,0.31503 -95.21451,0.31503 95.246,0.29312 c 62.50069,0.19234 95.246,0.70631 95.246,1.49496 0,0.66101 -1.75769,1.28287 -3.90599,1.38192 -3.57658,0.16489 -3.63065,0.22196 -0.64113,0.67687 4.10591,0.62477 4.2141,1.2792 5.17291,31.29233 l 0.73908,23.13547 H 508.06017 c -122.88312,0 -223.78441,-0.36055 -224.22509,-0.80123 z m 328.20309,-55.3834 c -13.05501,-0.19402 -34.41776,-0.19402 -47.47277,0 -13.05501,0.19403 -2.37364,0.35278 23.73638,0.35278 26.11003,0 36.7914,-0.15875 23.73639,-0.35278 z"
     id="path73"
     transform="translate(-10)" />
  <path
     style="fill:#ffffff;fill-opacity:1;stroke-width:1.20184"
     d="m 283.83508,850.10309 c -0.44068,-0.44067 -0.76322,-4.90251 -0.71676,-9.9152 0.0575,-6.20818 0.41379,-8.3476 1.11737,-6.71029 0.63432,1.47613 1.0655,-5.3792 1.11737,-17.76488 0.0627,-14.97315 0.47147,-20.312 1.58678,-20.72534 0.82627,-0.3062 16.10469,-1.01663 33.95204,-1.5787 l 32.44974,-1.02198 -33.95204,-0.18632 c -33.0514,-0.18139 -33.95204,-0.24989 -33.95204,-2.58216 0,-7.94074 11.00804,-56.15457 16.46585,-72.11839 4.02831,-11.78258 13.54249,-30.70528 21.13692,-42.03911 13.83418,-20.64593 36.53617,-44.19511 53.13632,-55.11923 5.2881,-3.47997 29.52477,-16.33545 53.85926,-28.56774 24.33448,-12.23229 44.07474,-22.70441 43.86724,-23.27139 -0.20751,-0.56697 -9.30096,-7.69448 -20.20768,-15.83892 -22.41714,-16.7397 -40.14631,-33.65468 -48.37324,-46.15174 -6.07046,-9.22132 -18.89683,-34.29019 -21.48892,-41.99967 -0.99243,-2.9517 -1.62235,-10.37436 -1.6319,-19.22947 -0.015,-13.91783 0.14424,-14.82075 4.55438,-25.82294 11.87713,-29.63047 21.99838,-45.18879 36.97668,-56.8403 12.13291,-9.43811 33.02813,-22.24648 53.99985,-33.10087 9.58469,-4.96077 17.626,-9.17551 17.86958,-9.36609 1.10038,-0.86097 -11.79334,-14.31814 -24.13026,-25.18473 -22.42541,-19.75274 -25.56143,-23.17705 -28.53958,-31.16325 -1.479,-3.96608 -2.97447,-11.26728 -3.32329,-16.22488 -2.08225,-29.5948 16.47004,-53.80524 48.94013,-63.86606 12.52852,-3.88195 34.42107,-3.89453 44.97206,-0.0258 17.60046,6.45348 29.92937,19.41269 37.43219,39.34587 3.551,9.43414 3.99538,25.98237 1.04595,38.95003 -1.65927,7.29525 -2.54331,8.86458 -7.51151,13.33422 -30.22852,27.19509 -39.47803,39.91022 -34.52796,47.46498 1.04287,1.59162 5.74257,4.92707 10.44379,7.41211 11.71559,6.19282 45.52654,28.70595 55.35959,36.86137 11.26029,9.33915 16.8944,17.37357 24.48512,34.91651 13.39329,30.95332 15.57451,41.48359 11.95899,57.73463 -2.438,10.95834 -14.57498,36.06911 -22.89854,47.37588 -12.27145,16.66957 -31.75431,34.79029 -55.55974,51.67528 -6.77539,4.80573 -12.31888,9.17818 -12.31888,9.71657 0,0.53839 19.39653,10.76059 43.10341,22.71601 23.70688,11.95542 47.256,24.44796 52.33138,27.76121 22.54731,14.71904 53.51392,50.60862 67.40102,78.11624 9.64054,19.096 18.81155,52.37844 25.2493,91.63208 l 0.54068,3.29668 -81.3931,0.31739 -81.39308,0.31739 81.42481,0.29192 c 53.28736,0.19104 81.42481,0.70723 81.42481,1.49376 0,0.66101 -1.21686,1.26458 -2.70414,1.34126 -1.97241,0.10169 -2.14567,0.2861 -0.64027,0.68147 2.71503,0.71307 3.09331,3.67832 3.99651,31.32839 l 0.75573,23.13547 H 508.08165 c -122.89494,0 -223.80589,-0.36055 -224.24657,-0.80123 z m 317.98743,-55.3807 c -7.4364,-0.21085 -19.60505,-0.21085 -27.04145,0 -7.4364,0.21086 -1.35207,0.38338 13.52072,0.38338 14.8728,0 20.95713,-0.17252 13.52073,-0.38338 z"
     id="path74"
     transform="translate(-10)" />
  <path
     style="fill:#ffffff;fill-opacity:1;stroke-width:1.20184"
     d="m 283.83508,850.10309 c -0.44068,-0.44067 -0.79295,-4.90251 -0.78282,-9.9152 0.0128,-6.32815 0.37451,-8.56292 1.18343,-7.31121 0.77864,1.20486 1.17114,-4.68706 1.18344,-17.76488 0.0137,-14.56125 0.40277,-19.70107 1.52071,-20.08906 0.82627,-0.28677 13.94137,-0.99654 29.14467,-1.57727 l 27.64238,-1.05588 -29.14468,-0.18777 -29.14467,-0.18777 0.009,-2.70415 c 0.0154,-4.76773 8.16438,-43.04755 12.60048,-59.19073 6.9182,-25.17563 20.04592,-50.14484 37.91258,-72.11053 10.97876,-13.49755 31.1823,-32.17029 42.18951,-38.99288 5.52542,-3.4248 29.38085,-15.9362 53.01207,-27.8031 23.63122,-11.8669 42.93806,-21.97354 42.90409,-22.45919 -0.034,-0.48565 -8.77142,-7.37295 -19.41654,-15.30511 -22.23979,-16.57189 -41.32681,-34.7302 -49.26913,-46.87185 -6.52937,-9.98162 -16.79589,-29.6944 -20.32169,-39.01974 -1.66366,-4.40018 -2.7305,-10.73185 -3.15312,-18.71364 -0.74948,-14.15513 0.3739,-18.9423 9.35883,-39.88203 10.46509,-24.38926 19.38934,-36.70992 35.0887,-48.44283 12.06616,-9.01764 38.97282,-25.10705 56.48808,-33.77824 7.10589,-3.51787 12.9198,-6.7538 12.9198,-7.19093 0,-1.46328 -19.68895,-20.75834 -33.98487,-33.30498 -15.1449,-13.29176 -18.66188,-18.28201 -21.15039,-30.01041 -8.12764,-38.30576 21.10364,-72.12563 65.27439,-75.52086 17.70109,-1.36061 34.90364,3.605 45.99015,13.27533 6.84176,5.96781 16.3147,20.42538 19.4326,29.65801 3.13645,9.28751 3.45225,26.13664 0.71542,38.16956 l -1.84245,8.10061 -16.30968,15.4781 c -18.16849,17.24212 -24.63896,25.72741 -24.83279,32.56536 -0.15159,5.34785 1.10212,6.5024 16.41066,15.11278 14.08211,7.92058 39.89487,25.37241 50.4062,34.0793 11.19457,9.27283 17.49996,18.33518 24.84783,35.71229 12.96339,30.65738 15.34276,42.45947 11.58535,57.46542 -2.47788,9.89585 -14.85107,35.41191 -22.12463,45.6255 -11.62759,16.32754 -31.56944,35.01458 -56.4289,52.87816 -6.77539,4.86868 -12.31888,9.23754 -12.31888,9.70861 0,0.47105 19.43019,10.67264 43.17821,22.67021 23.74802,11.99757 47.40929,24.56683 52.5806,27.93167 11.06672,7.20086 30.9179,26.25437 42.37019,40.66764 22.05877,27.76204 30.71809,45.41575 40.38179,82.32619 3.1475,12.02182 10.17844,46.10725 10.17844,49.34422 0,0.28027 -26.63583,0.6551 -59.19073,0.83296 l -59.19073,0.32337 59.19073,0.28887 c 38.46668,0.18773 59.19073,0.70967 59.19073,1.49072 0,0.66101 -0.94645,1.21012 -2.10322,1.22024 -1.77583,0.0155 -1.82583,0.19381 -0.3212,1.1452 1.75403,1.10909 3.25632,20.43038 3.53058,45.40779 l 0.0957,8.71336 H 507.97866 c -122.83829,0 -223.7029,-0.36055 -224.14358,-0.80123 z m 304.18777,-55.34227 c -1.80595,-0.27422 -5.05092,-0.27974 -7.21105,-0.0123 -2.16014,0.26748 -0.68254,0.49186 3.28354,0.4986 3.96608,0.007 5.73346,-0.2121 3.92751,-0.48634 z"
     id="path75"
     transform="translate(-10)" />
  <path
     style="fill:#ffffff;fill-opacity:1;stroke-width:1.20184"
     d="m 283.83508,850.10309 c -1.33692,-1.33692 -0.94762,-18.66059 0.40061,-17.82733 0.7816,0.48306 1.20185,-5.80899 1.20185,-17.99442 0,-13.89063 0.38858,-18.88168 1.5023,-19.29577 0.82627,-0.30722 13.13013,-1.01918 27.34191,-1.58213 l 25.83961,-1.02358 -27.34191,-0.1829 -27.34191,-0.18291 0.009,-2.70415 c 0.0154,-4.76773 8.16438,-43.04755 12.60048,-59.19073 6.93233,-25.22706 20.16683,-50.4182 37.88424,-72.11053 11.09931,-13.58948 31.24429,-32.19187 42.21785,-38.98508 5.52542,-3.42051 29.38085,-15.94618 53.01207,-27.83482 23.63122,-11.88865 42.94041,-21.99878 42.90929,-22.467 -0.0311,-0.4682 -8.78191,-7.34122 -19.4462,-15.27338 -22.87361,-17.0135 -41.35305,-34.74283 -49.89456,-47.86928 -8.52151,-13.0957 -19.0755,-34.76902 -21.43022,-44.00839 -1.39758,-5.48376 -1.82968,-11.10452 -1.47829,-19.22947 0.44502,-10.29005 1.09379,-12.97656 6.25533,-25.90288 14.52519,-36.37622 24.28418,-48.04748 57.86494,-69.20352 6.56105,-4.13349 20.17736,-11.79265 30.25846,-17.02037 10.0811,-5.22771 18.58445,-9.9178 18.89633,-10.42245 0.62608,-1.01302 -24.98835,-26.38236 -38.73747,-38.36681 -9.47078,-8.25523 -13.51385,-14.72861 -15.73385,-25.19148 -8.12764,-38.30576 21.10364,-72.12563 65.27439,-75.52086 17.84918,-1.372 34.89263,3.60006 46.24055,13.48967 6.85603,5.97497 16.00882,20.04675 19.21568,29.54282 3.10557,9.19608 3.404,26.10239 0.67276,38.11079 l -1.85163,8.141 -15.06957,14.2078 c -21.76297,20.51845 -28.40291,30.16643 -25.68357,37.31883 0.68402,1.7991 4.52351,4.80144 10.27064,8.03125 12.79934,7.19304 39.83265,24.89158 50.96988,33.36963 16.66615,12.68687 21.66091,19.65924 32.02184,44.70051 11.36093,27.45818 13.28367,38.28516 9.4706,53.32931 -2.3889,9.42525 -14.94271,35.12283 -21.98375,45.00065 -11.72992,16.45581 -33.07888,36.43564 -57.1313,53.46741 -11.57664,8.19754 -11.77254,8.41539 -9.33942,10.38562 1.36689,1.10683 20.96067,11.33868 43.54172,22.73745 22.58107,11.39875 45.71282,23.84322 51.4039,27.65439 6.45213,4.3208 15.56799,12.28922 24.21525,21.16718 32.32061,33.1829 46.49324,58.39542 57.62385,102.51054 2.73352,10.83401 9.63268,44.9269 9.63268,47.60081 0,0.27845 -20.14588,0.65486 -44.76862,0.83644 l -44.76863,0.33017 44.76863,0.28539 c 28.85426,0.18393 44.76862,0.71261 44.76862,1.48722 0,0.66101 -0.94645,1.21012 -2.10322,1.22024 -1.77152,0.0155 -1.82298,0.19562 -0.32636,1.14201 1.81999,1.15087 3.26361,19.02911 3.52121,43.60822 l 0.11021,10.51612 H 507.97866 c -122.83829,0 -223.7029,-0.36055 -224.14358,-0.80123 z"
     id="path76"
     transform="translate(-10)" />
  <path
     style="fill:#ffffff;fill-opacity:1;stroke-width:1.20184"
     d="m 284.57944,801.02786 c 0.009,-3.30506 0.24242,-4.51449 0.51867,-2.68762 0.27625,1.82688 0.26887,4.53102 -0.0164,6.00922 -0.28527,1.47819 -0.5113,-0.0165 -0.50227,-3.3216 z"
     id="path77"
     transform="translate(-10)" />
  <path
     style="fill:#ffffff;fill-opacity:1;stroke-width:1.20184"
     d="m 283.83508,850.10309 c -1.30215,-1.30215 -0.92984,-18.42825 0.40061,-18.42825 0.74793,0 1.20185,-6.82301 1.20185,-18.06535 0,-13.35084 0.39205,-18.21226 1.5023,-18.62826 0.82627,-0.30961 11.77805,-1.02252 24.3373,-1.58425 l 22.83501,-1.02132 -24.33731,-0.18081 -24.3373,-0.1808 v -2.90754 c 0,-8.31412 12.23493,-60.93366 17.29217,-74.36951 7.10842,-18.88532 19.2839,-39.68858 33.20128,-56.72836 11.11345,-13.60678 31.24361,-32.19211 42.21785,-38.97796 5.52542,-3.41661 29.38811,-15.95964 53.02821,-27.87338 23.64011,-11.91375 42.67146,-22.16383 42.29192,-22.77796 -0.37956,-0.61412 -9.4457,-7.73041 -20.147,-15.81397 -33.90639,-25.61226 -47.16004,-40.81232 -62.10663,-71.22755 -7.32937,-14.91473 -9.63042,-23.55971 -9.63042,-36.18117 0,-11.37054 2.13829,-19.26319 10.23354,-37.77302 6.49306,-14.84641 9.97136,-21.01208 17.15669,-30.41207 9.84171,-12.87511 33.11135,-29.05689 67.25484,-46.76923 10.08046,-5.22936 18.3281,-10.1683 18.3281,-10.97542 0,-1.61631 -22.88185,-24.26591 -37.59918,-37.21756 -10.10182,-8.88988 -14.08515,-15.17562 -16.33424,-25.77564 -5.89101,-27.76449 8.34858,-55.17191 35.06824,-67.49706 11.64681,-5.3724 18.23893,-7.10006 30.78196,-8.06731 17.28624,-1.33301 35.08601,3.94236 45.80096,13.57418 6.86024,6.16675 15.94077,20.20763 19.07946,29.50182 3.09392,9.16158 3.39416,26.60332 0.65779,38.21307 -1.82469,7.74177 -1.89321,7.82948 -19.71348,25.23868 -18.12825,17.71009 -22.88809,24.20747 -22.88809,31.24323 0,4.71077 2.33596,6.93805 13.93373,13.28543 11.51091,6.29982 41.63941,26.45706 51.53756,34.48078 10.73103,8.69887 17.84527,18.32407 24.15616,32.68196 14.25054,32.42146 17.16177,45.89024 13.27507,61.41709 -2.81122,11.23044 -15.99453,37.44777 -24.4966,48.71579 -10.19514,13.5119 -30.96473,33.17419 -48.11877,45.55338 -15.83141,11.42472 -18.02159,13.4408 -16.35493,15.05497 0.59994,0.58106 20.57704,10.98979 44.39353,23.13051 23.81649,12.14074 47.40675,24.91117 52.42279,28.37876 11.85459,8.19507 34.10195,31.00448 46.37718,47.54882 16.37089,22.06438 25.89005,43.15799 33.93189,75.18989 3.00222,11.9583 9.65005,44.45923 9.65005,47.17859 0,0.50552 -14.73759,1.07209 -32.7502,1.25903 l -32.7502,0.33992 32.7502,0.28032 c 20.84535,0.17843 32.7502,0.7172 32.7502,1.48217 0,0.66101 -0.52744,1.20184 -1.1721,1.20184 -0.72533,0 -0.77282,1.05017 -0.12455,2.75522 0.57613,1.51536 1.4456,13.95443 1.93213,27.64237 l 0.8846,24.88716 H 508.13778 c -122.92581,0 -223.86202,-0.36055 -224.3027,-0.80123 z"
     id="path78"
     transform="translate(-10)" />
  <path
     style="fill:#ffffff;fill-opacity:1;stroke-width:1.03189"
     d="m 359.87178,850.53578 -76.61786,-0.2713 0.15498,-14.18188 c 0.10531,-9.63619 0.38638,-12.6935 0.87691,-9.53838 0.44431,2.85789 0.78152,-2.3998 0.87691,-13.67254 l 0.15498,-18.31606 5.41742,-0.12967 c 2.97959,-0.0713 12.15051,-0.45423 20.37984,-0.85093 l 14.96241,-0.72129 -20.37983,-0.18094 -20.37984,-0.18095 v -2.60738 c 0,-7.57626 10.66433,-54.89037 16.04194,-71.17278 9.87217,-29.89114 31.85064,-61.96145 59.27711,-86.49536 11.70999,-10.47498 23.11533,-17.16704 68.02111,-39.91122 24.09164,-12.2021 43.97648,-22.72435 44.18853,-23.38277 0.21204,-0.65843 -8.11366,-7.61388 -18.50155,-15.45656 -22.88933,-17.28106 -41.39245,-35.11872 -49.62416,-47.83947 -7.17118,-11.08189 -18.52211,-33.69098 -20.98288,-41.79431 -1.39921,-4.60757 -1.87045,-9.48385 -1.8446,-19.08722 0.0312,-11.57627 0.33209,-13.68806 2.93521,-20.59885 9.68725,-25.71772 20.18133,-44.1781 31.20588,-54.89492 11.24908,-10.93509 30.67751,-23.61164 58.6353,-38.258 9.64818,-5.05443 18.22642,-9.85773 19.06276,-10.67401 1.33238,-1.30041 0.11883,-2.90054 -9.80296,-12.92565 -6.22797,-6.29283 -16.43144,-15.88615 -22.67437,-21.3185 -6.24294,-5.43234 -12.62421,-11.53982 -14.18061,-13.57218 -3.16377,-4.13129 -6.3512,-13.31213 -7.4628,-21.49532 l -0.7359,-5.41742 h 67.68565 67.68566 l -0.006,2.32175 c -0.003,1.27697 -0.43344,4.93126 -0.95591,8.12064 -1.95814,11.95358 -2.87388,13.86674 -9.63462,20.12864 -24.25637,22.46657 -34.80667,35.33646 -34.80667,42.45923 0,3.53896 4.32077,7.33285 15.47835,13.59092 12.41608,6.96392 43.99544,28.24319 52.04068,35.06681 9.13999,7.75215 14.6126,14.91662 20.15673,26.38828 6.70318,13.86987 13.85985,32.38495 16.06552,41.56317 3.44615,14.34013 0.4101,29.13434 -10.30772,50.22805 -13.56939,26.70586 -30.4835,45.22379 -64.28266,70.37802 -8.65498,6.44127 -15.73633,12.11384 -15.73633,12.60572 0,0.49188 18.22577,10.17971 40.5017,21.5285 57.40661,29.24663 60.21194,31.03646 79.93574,50.99994 24.84941,25.15136 40.81985,49.61726 50.23717,76.96079 5.68475,16.50588 17.12945,65.3657 17.12945,73.12922 0,1.10373 -4.0646,1.44985 -19.86389,1.69156 l -19.86389,0.3039 19.86389,0.23433 c 12.39844,0.14627 19.86389,0.62216 19.86389,1.26623 0,0.56754 -0.41497,1.03189 -0.92217,1.03189 -0.54073,0 -0.54283,1.60057 -0.005,3.86959 0.9271,3.91169 2.90902,49.64741 2.21345,51.07858 -0.34078,0.70118 -173.46983,0.70122 -371.47692,1e-4 z"
     id="path80"
     transform="translate(-10)" />
  <path
     style="fill:#ffffff;fill-opacity:1;stroke-width:1.03189"
     d="m 359.87178,850.53578 -76.61786,-0.2713 0.12209,-14.18188 c 0.0755,-8.77565 0.42237,-13.00179 0.9098,-11.08621 0.46868,1.84187 0.83716,-3.69573 0.9098,-13.67255 l 0.12209,-16.76822 4.90148,-0.11763 c 2.69581,-0.0647 10.93804,-0.45044 18.31605,-0.85716 l 13.41458,-0.73953 -18.45813,-0.17473 -18.45812,-0.17473 0.66038,-5.61884 c 1.6286,-13.8568 10.28121,-51.64525 15.60724,-68.16132 5.68426,-17.62692 20.27507,-43.52394 33.66194,-59.7461 8.54543,-10.35533 25.70798,-27.40341 33.42176,-33.19884 10.72492,-8.05776 19.84614,-13.15908 55.98016,-31.3087 36.84662,-18.50755 48.75672,-24.84884 48.75672,-25.95954 0,-0.41873 -8.4744,-7.18582 -18.832,-15.03798 -23.00917,-17.44338 -41.40094,-35.21663 -49.70599,-48.03434 -7.26932,-11.21921 -18.39563,-33.40193 -20.86126,-41.59144 -1.37269,-4.55935 -1.86026,-9.59132 -1.84974,-19.08997 0.0138,-12.43405 0.15505,-13.26476 3.9223,-23.06389 17.90491,-46.57317 31.62337,-60.57318 88.87452,-90.69846 9.64818,-5.07682 18.20413,-9.86461 19.01322,-10.63953 1.26095,-1.2077 0.008,-2.90738 -8.77107,-11.89963 -5.63318,-5.76988 -15.81436,-15.39961 -22.62483,-21.39939 -6.81048,-5.99979 -13.6614,-12.50739 -15.22426,-14.46134 -3.11506,-3.89457 -6.3034,-13.12673 -7.45104,-21.57519 l -0.7359,-5.41742 h 67.81894 67.81894 l -0.70501,6.44931 c -1.74787,15.98899 -2.78922,17.85533 -17.44709,31.26904 -14.56158,13.32558 -24.82323,25.46237 -26.63154,31.49795 -1.82166,6.08019 -0.0163,8.71731 9.83579,14.36682 12.71448,7.29095 50.03113,32.30844 56.79713,38.07741 9.16813,7.81715 14.62329,14.96622 20.15673,26.41574 6.69586,13.85473 14.14452,33.01106 16.15165,41.53849 3.33901,14.18604 0.51379,28.25018 -9.89698,49.26787 -13.35719,26.96605 -30.49939,45.85035 -64.77953,71.36277 -8.65498,6.44132 -15.73633,12.11592 -15.73633,12.61021 0,0.49429 16.35442,9.19926 36.34316,19.3444 60.15802,30.53274 64.1141,33.02632 83.58027,52.68214 25.39937,25.64681 41.22163,49.78804 50.73387,77.40858 5.83138,16.93247 17.14676,65.23959 17.14676,73.2022 0,1.03213 -3.34679,1.42593 -14.18849,1.66947 l -14.1885,0.31873 14.1885,0.22634 c 8.62017,0.13752 14.18849,0.63131 14.18849,1.25823 0,0.56754 -0.41497,1.03189 -0.92217,1.03189 -0.54055,0 -0.538,1.60138 0.006,3.86959 0.93377,3.89237 2.90659,49.6338 2.203,51.07858 -0.34146,0.70118 -173.47056,0.70122 -371.47766,1e-4 z"
     id="path81"
     transform="translate(-10)" />
  <path
     style="fill:#ffffff;fill-opacity:1;stroke-width:0.774965"
     d="m 288.8683,850.33712 -5.6185,-0.26813 0.0944,-12.17175 c 0.0519,-6.69446 0.33889,-18.2746 0.63771,-25.73364 0.53375,-13.32363 0.54851,-13.41213 0.83983,-5.03728 l 0.29654,8.52462 0.42194,-10.46203 0.42194,-10.46203 6.58721,-0.43685 6.5872,-0.43684 -7.36217,-0.28876 -7.36217,-0.28876 6.58721,-0.48621 6.5872,-0.4862 -6.42858,-0.14439 -6.42858,-0.14437 0.41245,-2.51864 c 6.31295,-38.55061 14.57372,-70.00427 23.27662,-88.62797 13.05906,-27.94563 37.90725,-58.83528 61.39437,-76.32149 9.14481,-6.80833 23.21244,-14.58912 55.64299,-30.77607 25.4674,-12.71144 46.56528,-23.62549 47.57705,-24.61184 0.65436,-0.63791 -2.1425,-3.01173 -16.07164,-13.64068 -39.48104,-30.12692 -48.84072,-40.51457 -64.47112,-71.552 -9.83409,-19.52762 -10.43235,-21.7497 -10.43235,-38.74827 v -13.94937 l 2.99943,-7.74965 c 3.94891,-10.20284 10.55976,-25.05001 14.06248,-31.58259 l 2.80631,-5.23377 105.91099,0.19649 105.911,0.1965 4.76502,10.47482 c 5.37149,11.80804 12.04013,29.19607 14.01621,36.54633 2.06533,7.68222 1.72436,20.25998 -0.77361,28.53796 -2.81475,9.32767 -6.80081,18.50912 -12.38374,28.52454 -8.19199,14.69589 -13.86526,21.9955 -28.45073,36.60663 -12.8268,12.84935 -17.4756,16.74353 -39.52708,33.11085 -4.47192,3.3192 -8.23246,6.56297 -8.35676,7.20837 -0.26675,1.38517 10.71867,7.32437 50.7736,27.45045 41.47151,20.83785 50.61302,26.73318 67.26317,43.37781 21.80292,21.79569 39.40312,47.06366 48.32979,69.38534 7.64638,19.12022 15.1364,48.76612 20.59926,81.53296 l 0.34995,2.09902 -5.98018,0.26366 -5.98018,0.26366 6.00598,0.15596 c 4.64053,0.1205 6.00598,0.40984 6.00598,1.27266 0,0.61419 -0.26155,1.27728 -0.58122,1.47352 -0.31968,0.19624 -0.42695,3.26825 -0.23838,6.82668 0.30479,5.75161 0.39872,6.08272 0.84609,2.98254 0.27754,-1.92338 0.47134,1.55209 0.43211,7.74965 -0.0391,6.18035 0.0786,17.16548 0.26164,24.41141 l 0.33275,13.17441 -218.48547,0.0404 c -120.16702,0.0222 -221.0138,-0.0802 -224.10398,-0.22769 z"
     id="path82"
     transform="translate(-10)" />
  <path
     style="fill:#ffffff;fill-opacity:1;stroke-width:0.774965"
     d="m 288.48082,850.33786 -5.23102,-0.27178 0.10257,-13.72023 c 0.0564,-7.54612 0.34276,-19.12561 0.63633,-25.73219 0.46619,-10.49156 0.57069,-11.17819 0.82558,-5.42475 l 0.29183,6.5872 0.42804,-8.52462 0.42803,-8.52461 5.42476,-0.44438 5.42476,-0.44438 -6.19973,-0.26316 -6.19972,-0.26316 4.26231,-0.52234 4.26231,-0.52233 -4.07773,-0.12631 -4.07772,-0.12632 0.48448,-3.2936 c 3.58335,-24.36011 12.40846,-60.93834 18.65058,-77.30279 12.49101,-32.74663 40.94177,-69.43642 69.22929,-89.27736 8.75889,-6.14351 20.54088,-12.49942 58.24217,-31.41932 20.1801,-10.12713 37.83892,-19.23088 39.24183,-20.23058 2.02153,-1.44051 2.36635,-2.03982 1.66196,-2.88855 -0.48883,-0.58901 -8.08826,-6.56408 -16.88761,-13.27793 -38.2228,-29.16376 -48.32185,-40.56558 -63.69218,-71.90849 -9.46993,-19.31094 -9.61236,-19.85553 -9.62764,-36.81085 l -0.0129,-14.33686 2.80218,-7.36217 c 3.76167,-9.88303 10.97109,-26.0697 14.34551,-32.2087 l 2.74265,-4.98963 H 507.66222 613.3627 l 2.25519,4.4675 c 7.60225,15.05996 16.68595,39.96671 17.99876,49.35108 1.73785,12.42272 -1.54659,25.7802 -10.85967,44.16514 -9.58402,18.9198 -17.33127,29.26673 -34.29104,45.79778 -10.78729,10.5146 -15.96216,14.81 -33.39706,27.72125 -6.71314,4.97134 -12.2057,9.38887 -12.2057,9.81672 0,1.39356 6.04303,4.68468 44.17302,24.05725 20.67219,10.50285 40.89879,21.11565 44.94798,23.584 13.20323,8.04858 23.98026,17.18635 36.6085,31.04012 17.39182,19.07963 32.00834,40.67342 39.50481,58.36263 8.0227,18.93093 15.90205,49.19209 21.87069,83.99579 l 0.49127,2.86467 -4.09591,0.28558 -4.09591,0.28558 3.91976,0.14335 3.91975,0.14335 -0.18896,7.16843 c -0.13344,5.06202 -0.002,6.37141 0.44583,4.45605 0.41945,-1.7922 0.59977,0.83688 0.53152,7.74966 -0.0568,5.75411 0.0438,16.73925 0.22346,24.4114 l 0.32674,13.94938 -218.86694,0.0426 c -120.37682,0.0235 -221.2209,-0.0797 -224.09796,-0.22915 z"
     id="path83"
     transform="translate(-10)" />
  <path
     style="fill:#ffffff;fill-opacity:1;stroke-width:0.774965"
     d="m 286.54341,850.34442 -3.29361,-0.29665 v -10.29285 c 0,-17.38261 1.09397,-41.92411 1.60992,-36.11594 0.43659,4.91483 0.45071,4.86393 0.58122,-2.09418 l 0.13376,-7.13145 4.84353,-0.27514 4.84354,-0.27514 -5.42476,-0.25134 c -4.61149,-0.21365 -5.01812,-0.33693 -2.71238,-0.82227 l 2.71238,-0.57093 -2.51864,-0.10202 c -1.38525,-0.0561 -2.51864,-0.37237 -2.51864,-0.70282 0,-1.44443 3.98641,-23.08572 5.81353,-31.56025 5.1413,-23.84647 10.48086,-42.28048 15.86799,-54.78187 13.17221,-30.56743 41.95253,-66.27317 67.21708,-83.39158 8.93077,-6.05118 20.635,-12.34712 56.40739,-30.34264 20.03285,-10.07765 37.97822,-19.31601 39.8786,-20.52968 l 3.45523,-2.20667 -2.68027,-2.26365 c -1.47414,-1.24499 -8.25859,-6.51291 -15.07656,-11.70646 -38.3945,-29.24685 -49.42318,-41.83992 -65.08501,-74.31718 -7.69669,-15.96031 -8.34125,-18.34701 -8.75214,-32.40787 -0.27244,-9.32291 -0.0773,-13.10716 0.86559,-16.7877 1.75508,-6.85075 8.56727,-23.62886 14.03986,-34.57956 l 4.71935,-9.44343 105.94477,-0.1965 105.94477,-0.1965 2.25658,4.47027 c 7.49395,14.84542 16.68572,39.95489 18.03018,49.25364 1.77106,12.24929 -1.58771,25.90226 -10.8897,44.26533 -9.58402,18.9198 -17.33127,29.26673 -34.29104,45.79778 -10.67504,10.40519 -15.66443,14.5508 -33.44147,27.78604 -6.73757,5.0162 -12.11693,9.51993 -11.95415,10.00829 0.48688,1.46061 6.21852,4.55431 44.74084,24.14923 37.51279,19.0814 47.07882,24.41518 56.36925,31.43012 22.27866,16.82197 50.5979,51.78615 61.84281,76.35387 8.4593,18.48177 16.1872,46.18994 22.429,80.41863 1.0739,5.88905 1.95255,10.83746 1.95255,10.99648 0,0.15901 -1.30775,0.4259 -2.90612,0.59309 l -2.90612,0.30399 2.77796,0.13028 2.77796,0.13027 -0.23874,6.39347 c -0.14136,3.78553 0.005,5.60318 0.35846,4.45605 0.32847,-1.06558 0.66782,7.99786 0.7541,20.14097 0.0863,12.14312 0.37019,23.21544 0.6309,24.60515 l 0.47402,2.52676 -221.14508,-0.1354 C 389.3523,850.702 288.35489,850.50758 286.54341,850.34442 Z"
     id="path84"
     transform="translate(-10)" />
  <path
     style="fill:#ffffff;fill-opacity:1;stroke-width:0.774965"
     d="m 285.38096,850.35679 -2.13116,-0.32284 v -11.44878 c 0,-17.22186 1.0532,-40.77247 1.6148,-36.10864 0.42383,3.51964 0.47776,3.32818 0.58835,-2.08869 l 0.12175,-5.96352 3.68108,-0.29026 3.68109,-0.29026 -4.26231,-0.21693 c -3.41102,-0.17361 -3.87536,-0.34086 -2.3249,-0.83741 1.91331,-0.61275 1.91513,-0.62143 0.14626,-0.69771 -1.68364,-0.0726 -1.76114,-0.29822 -1.29114,-3.75834 2.14844,-15.81677 10.97544,-54.18974 15.99943,-69.55313 6.02662,-18.42942 19.29492,-42.00422 33.78134,-60.02189 8.2321,-10.23877 27.20026,-28.95718 34.83996,-34.38122 10.35834,-7.35422 24.7454,-15.39192 49.81818,-27.8322 28.58756,-14.1842 51.15774,-25.90217 52.59033,-27.30381 0.8844,-0.86531 -0.79949,-2.45598 -10.40638,-9.83035 -45.57252,-34.98199 -53.93142,-44.1506 -70.19519,-76.99493 -9.09004,-18.35714 -9.57458,-20.2592 -9.57458,-37.58582 V 430.4932 l 4.86571,-12.01196 c 2.67613,-6.60658 7.03531,-16.37114 9.68706,-21.69903 l 4.82137,-9.68706 105.96646,-0.1965 105.96646,-0.1965 3.00516,6.00874 c 1.65285,3.30481 5.10824,11.23975 7.67867,17.63322 11.61375,28.88709 12.57639,37.67452 6.23678,56.93192 -2.89461,8.79276 -11.82742,26.70468 -17.59888,35.28894 -10.74134,15.97633 -29.26964,34.39965 -51.29445,51.00385 -20.91888,15.77044 -19.12714,14.20302 -17.75408,15.53135 1.4886,1.44012 22.37311,12.39963 53.86009,28.26403 39.16262,19.73168 46.51204,24.55647 63.94433,41.97857 23.4868,23.47306 41.37059,49.93361 50.02272,74.01275 6.2521,17.39978 12.82713,43.35961 16.97334,67.01492 1.08138,6.16958 1.96615,11.29025 1.96615,11.37926 0,0.089 -0.95902,0.30713 -2.13115,0.48469 l -2.13116,0.32285 2.0714,0.11611 2.07139,0.11611 -0.33983,6.00598 c -0.23332,4.12352 -0.11021,5.52019 0.39277,4.45605 0.48164,-1.01897 0.75127,5.64729 0.78707,19.45972 0.03,11.55529 0.27625,22.62761 0.54729,24.60514 l 0.49283,3.59551 -222.32664,-0.11611 c -122.27963,-0.0639 -223.28564,-0.2614 -224.45777,-0.43896 z"
     id="path85"
     transform="translate(-10)" />
</svg>
