<?xml version="1.0" standalone="no"?>
<!DOCTYPE svg PUBLIC "-//W3C//DTD SVG 1.1//EN" "http://www.w3.org/Graphics/SVG/1.1/DTD/svg11.dtd" >
<svg xmlns="http://www.w3.org/2000/svg" xmlns:xlink="http://www.w3.org/1999/xlink" version="1.1" viewBox="-10 0 1010 1000">
   <path fill="currentColor"
d="M565 134q6 15 6 29q0 16 -9 28l-24 18q-4 7 -4 18q0 17 16.5 70.5t18.5 63.5t4.5 82t10.5 72q3 0 13.5 -20.5t23.5 -72.5t18 -66.5t24.5 -43t19.5 -45.5q0 -10 -3 -17.5t-13 -16.5t-15 -21.5t-5 -27.5q0 -16 12.5 -37.5t49.5 -21.5q36 0 49.5 22.5t13.5 38.5
q0 10 -1.5 15.5t-6 16.5t-17 18.5t-18.5 23t-8.5 28t-2.5 31.5v25t1 27q0 31 -1 60t-2 56q0 48 10 48q6 0 16.5 -15t25 -46.5t21.5 -43t36.5 -42.5t27.5 -38q-2 -8 -10.5 -18t-11 -17.5t-4 -15t-1.5 -14.5q0 -14 13 -37.5t47 -23.5t47 22.5t13 37.5q0 16 -6.5 29t-23.5 24.5
t-25.5 21.5t-13.5 34q-6 42 -12.5 84.5t-10 70.5t-19.5 54q-29 40 -44.5 63t-19.5 45t-6 34t-2 22q0 16 4 29.5t15 26t11 23.5q0 17 -7 26.5t-20 24t-40 18t-53 6.5q-99 21 -174 21q-74 0 -175 -21q-36 -4 -58 -7t-36 -18.5t-20 -25.5t-6 -24q0 -9 12 -25t15 -27t3 -27
q0 -9 -2 -23t-6 -34.5t-24 -49t-38 -56t-23 -61t-10.5 -73.5t-9 -68t-15.5 -42.5t-27 -23.5t-21.5 -22t-6.5 -29q0 -15 13 -37.5t47 -22.5t44.5 18t13 25.5t2.5 17.5q0 15 -6 32q-11 17 -21 33q-1 6 30.5 42.5t44.5 61.5t36 67q10 14 16 14q10 0 10 -48q0 -39 -1 -66t-2 -50
v-27t1 -25q0 -18 -2 -30.5t-9 -29t-19 -24t-15 -14.5t-6 -18t-3 -18q0 -15 13.5 -37.5t49.5 -22.5q37 0 49.5 21.5t12.5 38.5q0 14 -5 26.5t-15.5 23t-13 16.5t-2.5 17q0 15 19 42.5t33.5 73.5t38.5 122q5 9 8 9q6 0 7.5 -72t5.5 -93t20 -65t16 -60q0 -8 -2 -13.5t-12 -11
t-16 -13.5t-6 -25q0 -13 7 -30t25 -27t40 -10q24 0 41.5 9.5t25.5 29.5zM634 550q17 0 26.5 3.5t21.5 8.5q13 5 13 -12q0 -10 -4.5 -35.5t-4.5 -32.5q0 -22 2.5 -67t2.5 -49q0 -27 -5 -27q-3 0 -12 13t-15.5 50t-9.5 45.5t-18.5 41.5t-15.5 45q0 16 19 16zM84 271
q-5 8 -5 19q0 4 1 7q3 3 7.5 9t22.5 6q9 0 16 -2t11 -8t4 -14q0 -9 -4 -15t-11.5 -8.5l-13.5 -4.5q-13 1 -18 2.5t-10 8.5zM261 171q-5 8 -5 19q0 4 1 7q3 3 7.5 9t22.5 6q9 0 16 -2t11 -8t4 -14q0 -9 -4 -15t-11.5 -8.5l-13.5 -4.5q-13 1 -18 2.5t-10 8.5zM471 145
q-5 8 -5 20q0 6 7 15.5t27 9.5q12 0 18 -2.5t11 -9t5 -14.5q0 -11 -4.5 -17.5t-15.5 -10t-12 -4.5q-16 3 -20.5 4.5t-10.5 8.5zM684 173q-5 8 -5 19q0 4 1 7q3 3 7.5 9t22.5 6q9 0 16 -2t11 -8t4 -14q0 -9 -4 -15t-11.5 -8.5l-13.5 -4.5q-13 1 -18 2.5t-10 8.5zM862 271
q-5 8 -5 19q0 4 1 7q3 3 7.5 9t22.5 6q9 0 16 -2t11 -8t4 -14q0 -9 -4 -15t-11.5 -8.5l-13.5 -4.5q-13 1 -18 2.5t-10 8.5zM363 579q-54 14 -91.5 28.5t-37.5 33.5q0 7 4 11t10 18t12 14q11 0 26.5 -9t40 -14.5t70.5 -9t102 -3.5q66 0 101 2.5t64 9t44.5 15.5t26.5 9
q4 0 9 -9t11 -21q6 -6 6 -13q0 -23 -44.5 -38t-80.5 -23.5t-69.5 -11.5t-66.5 -6q-50 4 -77.5 6.5t-59.5 10.5zM638 738l84 13l4 -2q-3 -11 1 -16.5t4 -10.5q0 -13 -20.5 -17.5t-61 -10t-69 -6.5t-31.5 -1h-51q-46 0 -69.5 1t-69.5 8t-67.5 12t-21.5 17q0 5 4.5 10.5
t1.5 12.5l2 6q13 0 35.5 -4t49.5 -10q26 -4 52.5 -6t44.5 -2h40h33.5t28.5 -1q19 0 32.5 1t43.5 6zM637 795l101 15v-4q-13 -11 -10 -14q5 -5 5 -8q0 -10 -23.5 -14.5t-67.5 -10.5t-74 -6q-20 0 -37 0.5t-31 0.5h-27t-25 -1q-38 0 -63 6t-72 11t-47 16q0 5 5 10q3 3 -3.5 9
t-6.5 8q13 -1 58.5 -10t64 -11.5t36 -3.5t41.5 -1h39h53.5t83.5 8zM230 538q-21 -42 -40 -77.5t-28 -35.5q-5 0 -6 5t-1 12q0 16 13.5 66.5t15 59.5t9.5 23.5t19 14.5q2 0 9.5 -3.5t14.5 -9.5t14 -10t7 -9q0 -6 -12.5 -19.5t-14.5 -16.5zM747 858q-5 -6 -9 -11
q-42 -14 -83 -14q-37 0 -91 -3t-63 -3q-43 0 -76 1.5t-79 4.5q-41 0 -80 13l-12 12q46 17 105 22.5t142 5.5q82 0 140 -5.5t106 -22.5zM352 450q-4 -11 -10.5 -48t-21.5 -58q-5 -6 -8 -3.5t-3 26.5q0 23 2.5 67t2.5 48q0 12 -4.5 37t-4.5 31q0 17 13 12q11 -5 20 -8.5
t28 -3.5t19 -16q0 -12 -15.5 -45t-17.5 -39zM746 584q9 5 16.5 11t15.5 11q14 7 24.5 -8.5t12.5 -30.5t15 -61t13 -62q0 -7 -1 -12t-6 -5q-11 0 -37 52t-31 61q-12 12 -19.5 20.5t-7.5 15.5q0 5 5 8zM545 430q1 -17 1 -24q0 -22 -4 -42t-12 -44t-32 -24q-12 0 -19 6
t-15 24.5t-10.5 38.5t-2.5 59q0 16 -7.5 51.5t-7.5 41.5q0 24 21 20q3 -1 14 -3t18 -2q3 0 19 2.5t30 2.5q18 0 18 -20q0 -12 -5.5 -45.5t-5.5 -41.5z" />
</svg>
