<?xml version="1.0" encoding="UTF-8" standalone="no"?>
<svg
   version="1.1"
   viewBox="-10 0 1010 1000"
   id="svg1"
   sodipodi:docname="wq.svg"
   inkscape:version="1.4.2 (ebf0e940, 2025-05-08)"
   xmlns:inkscape="http://www.inkscape.org/namespaces/inkscape"
   xmlns:sodipodi="http://sodipodi.sourceforge.net/DTD/sodipodi-0.dtd"
   xmlns="http://www.w3.org/2000/svg"
   xmlns:svg="http://www.w3.org/2000/svg">
  <defs
     id="defs1" />
  <sodipodi:namedview
     id="namedview1"
     pagecolor="#505050"
     bordercolor="#eeeeee"
     borderopacity="1"
     inkscape:showpageshadow="0"
     inkscape:pageopacity="0"
     inkscape:pagecheckerboard="0"
     inkscape:deskcolor="#d1d1d1"
     inkscape:zoom="0.50376368"
     inkscape:cx="479.39145"
     inkscape:cy="535.9656"
     inkscape:window-width="1296"
     inkscape:window-height="679"
     inkscape:window-x="0"
     inkscape:window-y="25"
     inkscape:window-maximized="0"
     inkscape:current-layer="svg1" />
  <path
     fill="currentColor"
     d="M565 134q6 15 6 29q0 16 -9 28l-24 18q-4 7 -4 18q0 17 16.5 70.5t18.5 63.5t4.5 82t10.5 72q3 0 13.5 -20.5t23.5 -72.5t18 -66.5t24.5 -43t19.5 -45.5q0 -10 -3 -17.5t-13 -16.5t-15 -21.5t-5 -27.5q0 -16 12.5 -37.5t49.5 -21.5q36 0 49.5 22.5t13.5 38.5 q0 10 -1.5 15.5t-6 16.5t-17 18.5t-18.5 23t-8.5 28t-2.5 31.5v25t1 27q0 31 -1 60t-2 56q0 48 10 48q6 0 16.5 -15t25 -46.5t21.5 -43t36.5 -42.5t27.5 -38q-2 -8 -10.5 -18t-11 -17.5t-4 -15t-1.5 -14.5q0 -14 13 -37.5t47 -23.5t47 22.5t13 37.5q0 16 -6.5 29t-23.5 24.5 t-25.5 21.5t-13.5 34q-6 42 -12.5 84.5t-10 70.5t-19.5 54q-29 40 -44.5 63t-19.5 45t-6 34t-2 22q0 16 4 29.5t15 26t11 23.5q0 17 -7 26.5t-20 24t-40 18t-53 6.5q-99 21 -174 21q-74 0 -175 -21q-36 -4 -58 -7t-36 -18.5t-20 -25.5t-6 -24q0 -9 12 -25t15 -27t3 -27 q0 -9 -2 -23t-6 -34.5t-24 -49t-38 -56t-23 -61t-10.5 -73.5t-9 -68t-15.5 -42.5t-27 -23.5t-21.5 -22t-6.5 -29q0 -15 13 -37.5t47 -22.5t44.5 18t13 25.5t2.5 17.5q0 15 -6 32q-11 17 -21 33q-1 6 30.5 42.5t44.5 61.5t36 67q10 14 16 14q10 0 10 -48q0 -39 -1 -66t-2 -50 v-27t1 -25q0 -18 -2 -30.5t-9 -29t-19 -24t-15 -14.5t-6 -18t-3 -18q0 -15 13.5 -37.5t49.5 -22.5q37 0 49.5 21.5t12.5 38.5q0 14 -5 26.5t-15.5 23t-13 16.5t-2.5 17q0 15 19 42.5t33.5 73.5t38.5 122q5 9 8 9q6 0 7.5 -72t5.5 -93t20 -65t16 -60q0 -8 -2 -13.5t-12 -11 t-16 -13.5t-6 -25q0 -13 7 -30t25 -27t40 -10q24 0 41.5 9.5t25.5 29.5zM634 550q17 0 26.5 3.5t21.5 8.5q13 5 13 -12q0 -10 -4.5 -35.5t-4.5 -32.5q0 -22 2.5 -67t2.5 -49q0 -27 -5 -27q-3 0 -12 13t-15.5 50t-9.5 45.5t-18.5 41.5t-15.5 45q0 16 19 16zM84 271 q-5 8 -5 19q0 4 1 7q3 3 7.5 9t22.5 6q9 0 16 -2t11 -8t4 -14q0 -9 -4 -15t-11.5 -8.5l-13.5 -4.5q-13 1 -18 2.5t-10 8.5zM261 171q-5 8 -5 19q0 4 1 7q3 3 7.5 9t22.5 6q9 0 16 -2t11 -8t4 -14q0 -9 -4 -15t-11.5 -8.5l-13.5 -4.5q-13 1 -18 2.5t-10 8.5zM471 145 q-5 8 -5 20q0 6 7 15.5t27 9.5q12 0 18 -2.5t11 -9t5 -14.5q0 -11 -4.5 -17.5t-15.5 -10t-12 -4.5q-16 3 -20.5 4.5t-10.5 8.5zM684 173q-5 8 -5 19q0 4 1 7q3 3 7.5 9t22.5 6q9 0 16 -2t11 -8t4 -14q0 -9 -4 -15t-11.5 -8.5l-13.5 -4.5q-13 1 -18 2.5t-10 8.5zM862 271 q-5 8 -5 19q0 4 1 7q3 3 7.5 9t22.5 6q9 0 16 -2t11 -8t4 -14q0 -9 -4 -15t-11.5 -8.5l-13.5 -4.5q-13 1 -18 2.5t-10 8.5zM363 579q-54 14 -91.5 28.5t-37.5 33.5q0 7 4 11t10 18t12 14q11 0 26.5 -9t40 -14.5t70.5 -9t102 -3.5q66 0 101 2.5t64 9t44.5 15.5t26.5 9 q4 0 9 -9t11 -21q6 -6 6 -13q0 -23 -44.5 -38t-80.5 -23.5t-69.5 -11.5t-66.5 -6q-50 4 -77.5 6.5t-59.5 10.5zM638 738l84 13l4 -2q-3 -11 1 -16.5t4 -10.5q0 -13 -20.5 -17.5t-61 -10t-69 -6.5t-31.5 -1h-51q-46 0 -69.5 1t-69.5 8t-67.5 12t-21.5 17q0 5 4.5 10.5 t1.5 12.5l2 6q13 0 35.5 -4t49.5 -10q26 -4 52.5 -6t44.5 -2h40h33.5t28.5 -1q19 0 32.5 1t43.5 6zM637 795l101 15v-4q-13 -11 -10 -14q5 -5 5 -8q0 -10 -23.5 -14.5t-67.5 -10.5t-74 -6q-20 0 -37 0.5t-31 0.5h-27t-25 -1q-38 0 -63 6t-72 11t-47 16q0 5 5 10q3 3 -3.5 9 t-6.5 8q13 -1 58.5 -10t64 -11.5t36 -3.5t41.5 -1h39h53.5t83.5 8zM230 538q-21 -42 -40 -77.5t-28 -35.5q-5 0 -6 5t-1 12q0 16 13.5 66.5t15 59.5t9.5 23.5t19 14.5q2 0 9.5 -3.5t14.5 -9.5t14 -10t7 -9q0 -6 -12.5 -19.5t-14.5 -16.5zM747 858q-5 -6 -9 -11 q-42 -14 -83 -14q-37 0 -91 -3t-63 -3q-43 0 -76 1.5t-79 4.5q-41 0 -80 13l-12 12q46 17 105 22.5t142 5.5q82 0 140 -5.5t106 -22.5zM352 450q-4 -11 -10.5 -48t-21.5 -58q-5 -6 -8 -3.5t-3 26.5q0 23 2.5 67t2.5 48q0 12 -4.5 37t-4.5 31q0 17 13 12q11 -5 20 -8.5 t28 -3.5t19 -16q0 -12 -15.5 -45t-17.5 -39zM746 584q9 5 16.5 11t15.5 11q14 7 24.5 -8.5t12.5 -30.5t15 -61t13 -62q0 -7 -1 -12t-6 -5q-11 0 -37 52t-31 61q-12 12 -19.5 20.5t-7.5 15.5q0 5 5 8zM545 430q1 -17 1 -24q0 -22 -4 -42t-12 -44t-32 -24q-12 0 -19 6 t-15 24.5t-10.5 38.5t-2.5 59q0 16 -7.5 51.5t-7.5 41.5q0 24 21 20q3 -1 14 -3t18 -2q3 0 19 2.5t30 2.5q18 0 18 -20q0 -12 -5.5 -45.5t-5.5 -41.5z"
     id="path1" />
  <path
     style="fill:#ffffff;fill-opacity:0.917647;stroke-width:1.98506"
     d="M 105.79972,310.38846 C 98.80957,308.8363 89.320813,296.62898 89.371195,289.2531 c 0.153003,-22.39936 19.494095,-33.72811 42.736235,-25.03211 11.85603,4.43591 16.33032,9.42783 18.07244,20.16323 1.31051,8.07572 -3.20204,19.06781 -9.42269,22.95267 -4.34208,2.71167 -27.41685,4.72596 -34.95746,3.05157 z"
     id="path2"
     transform="translate(-10)" />
  <path
     style="fill:#ffffff;fill-opacity:0.917647;stroke-width:1.98506"
     d="m 287.22878,210.33237 c -9.96661,-1.16551 -17.78615,-7.70018 -20.36526,-17.01893 -1.70957,-6.17697 2.69924,-20.38878 7.9557,-25.64524 9.78849,-9.78848 32.75106,-8.27496 45.3584,2.9897 5.71733,5.10844 6.36438,6.80853 6.36438,16.72211 0,9.33737 -0.82321,11.85874 -5.34962,16.38515 -6.04902,6.04903 -18.23894,8.40607 -33.9636,6.56721 z"
     id="path3"
     transform="translate(-10)" />
  <path
     style="fill:#ffffff;fill-opacity:0.917647;stroke-width:1.98506"
     d="m 489.15786,184.83731 c -8.8089,-5.37166 -13.46735,-16.27482 -11.77507,-27.55972 1.84377,-12.29517 8.99106,-19.14318 23.32865,-22.35179 10.28913,-2.3026 12.03147,-2.14532 22.27052,2.01041 6.10945,2.47964 12.84653,6.7185 14.97128,9.41969 9.1067,11.57729 6.3342,29.53219 -5.82555,37.72664 -8.95303,6.03345 -33.60335,6.46644 -42.96983,0.75477 z"
     id="path4"
     transform="translate(-10)" />
  <path
     style="fill:#ffffff;fill-opacity:0.917647;stroke-width:1.98506"
     d="m 716.60585,213.08183 c -15.99811,-2.23661 -17.51434,-2.93809 -22.7827,-10.54033 -4.49239,-6.48253 -5.17636,-9.07546 -4.09003,-15.50536 3.66749,-21.70772 21.82754,-29.95794 44.48631,-20.2104 24.34964,10.47493 20.94226,42.19753 -4.88138,45.44549 -5.36504,0.67478 -11.09453,1.03956 -12.7322,0.8106 z"
     id="path5"
     transform="translate(-10)" />
  <path
     style="fill:#ffffff;fill-opacity:0.917647;stroke-width:1.98506"
     d="m 883.94236,310.26565 c -6.90831,-1.33988 -16.47928,-13.58144 -16.42852,-21.01255 0.0574,-8.40845 6.5154,-22.37646 11.60484,-25.10025 7.38593,-3.95283 24.31907,-3.291 34.5712,1.35122 7.25495,3.28507 10.2141,6.01836 12.53852,11.58148 3.66939,8.78207 2.21388,20.38504 -3.2995,26.30296 -6.33829,6.80335 -23.6354,9.85452 -38.98654,6.87714 z"
     id="path6"
     transform="translate(-10)" />
  <path
     style="fill:#ffffff;fill-opacity:0.917647;stroke-width:1.98506"
     d="m 211.61056,601.27667 c -8.37408,-6.58705 -14.18195,-20.50395 -22.75245,-54.51972 -4.38378,-17.39895 -10.29287,-40.56722 -13.13129,-51.48504 -10.67881,-41.07529 -12.82359,-66.58557 -5.82402,-69.27155 4.21637,-1.61798 14.06251,7.956 21.93037,21.32418 3.95446,6.71898 16.15178,29.63521 27.10515,50.92496 11.95757,23.24159 23.55364,42.94291 29.02094,49.30557 12.95881,15.08104 18.03848,22.53096 18.03848,26.4555 0,3.46573 -23.31157,22.17274 -35.1362,28.19601 -8.4325,4.29537 -12.88131,4.08047 -19.25098,-0.92991 z"
     id="path7"
     transform="translate(-10)" />
  <path
     style="fill:#ffffff;fill-opacity:0.917647;stroke-width:1.98506"
     d="m 316.41359,556.70611 c -0.77346,-3.08168 0.6227,-18.45079 3.19114,-35.12863 4.01045,-26.04137 4.4053,-33.79519 3.2442,-63.70881 -3.44938,-88.86768 -3.75197,-102.24747 -2.46724,-109.09567 4.17746,-22.2678 22.52002,11.0984 31.02883,56.4433 6.70212,35.71671 9.24006,43.88395 22.81947,73.43415 15.13946,32.94502 21.41351,51.97203 19.70401,59.75534 -1.64576,7.49309 -9.93709,11.4455 -24.11841,11.49707 -7.41167,0.027 -16.46243,1.87708 -25.40807,5.19381 -7.64247,2.83355 -16.75819,5.58756 -20.25714,6.12001 -5.63279,0.85715 -6.5193,0.34032 -7.73679,-4.51057 z"
     id="path8"
     transform="translate(-10)" />
  <path
     style="fill:#ffffff;fill-opacity:0.917647;stroke-width:1.98506"
     d="m 456.34329,535.91367 c -8.74031,-2.06331 -11.83981,-15.10157 -7.77391,-32.70153 7.95653,-34.44119 12.29408,-66.76212 13.98599,-104.21553 1.15112,-25.48186 3.02246,-45.06547 5.00609,-52.3888 4.04068,-14.9177 13.46994,-34.91574 19.56308,-41.49034 10.19286,-10.99829 31.65058,-10.96013 43.32438,0.077 5.73731,5.42442 12.26412,22.83008 19.54251,52.11589 3.24648,13.06271 4.33177,24.49354 4.80599,50.61897 0.42949,23.66165 2.2044,44.42351 5.93951,69.47702 2.92983,19.65207 4.86406,39.29501 4.29827,43.65099 -1.97806,15.2291 -10.45201,17.37427 -49.52466,12.53704 -16.20133,-2.00574 -22.39438,-1.92012 -36.95945,0.51092 -9.6233,1.60623 -19.61681,2.41996 -22.2078,1.80833 z"
     id="path9"
     transform="translate(-10)" />
  <path
     style="fill:#ffffff;fill-opacity:0.917647;stroke-width:1.98506"
     d="m 679.88228,556.56468 c -7.82086,-3.30872 -17.99609,-5.57124 -29.63468,-6.58944 -14.90561,-1.304 -18.29923,-2.26056 -21.33937,-6.01496 -6.78219,-8.37566 -4.72193,-16.45136 16.24247,-63.66622 14.49138,-32.63671 15.91591,-37.12098 22.63694,-71.25885 7.62773,-38.74325 13.68357,-55.69005 23.13698,-64.74699 5.37214,-5.14683 5.80577,-5.24745 7.2608,-1.68469 1.92348,4.70981 1.44795,42.75448 -1.2011,96.09424 -1.94584,39.18018 -1.82649,42.03737 3.20888,76.82188 7.0861,48.951 5.57836,51.99788 -20.31092,41.04503 z"
     id="path10"
     transform="translate(-10)" />
  <path
     style="fill:#ffffff;fill-opacity:0.917647;stroke-width:1.98506"
     d="m 771.6912,594.12027 c -25.22259,-17.31442 -25.45783,-20.18464 -3.546,-43.26674 9.37438,-9.87505 15.32681,-19.84043 34.83301,-58.31638 17.01499,-33.56205 26.1035,-49.20861 32.83728,-56.53189 8.44091,-9.17987 9.63576,-9.85613 12.78956,-7.23871 6.33495,5.25754 2.99849,32.57236 -9.71968,79.5726 -6.08085,22.47192 -12.3734,47.74299 -13.98345,56.15792 -4.77237,24.94292 -16.79508,42.94434 -28.6652,42.91993 -3.14096,-0.006 -12.83509,-5.25793 -24.54552,-13.29673 z"
     id="path11"
     transform="translate(-10)" />
  <path
     style="fill:#ffffff;fill-opacity:0.917647;stroke-width:1.98506"
     d="m 264.48782,680.37855 c -1.09783,-1.36473 -5.00363,-8.18649 -8.67956,-15.15947 -3.67593,-6.97298 -7.86409,-14.82096 -9.30703,-17.43995 -5.96979,-10.83542 3.1346,-24.13271 23.59476,-34.46096 24.99358,-12.61672 106.59056,-36.54675 141.8035,-41.58685 8.73425,-1.25016 34.45121,-3.81649 57.1488,-5.70297 39.26623,-3.26356 43.16659,-3.25987 80.39484,0.076 66.33471,5.94399 102.37067,13.22434 160.97188,32.52117 34.38847,11.3238 49.97203,19.5289 56.06411,29.51907 5.77574,9.47144 4.43632,16.36544 -6.96666,35.85723 -13.11081,22.41106 -14.61586,22.77411 -42.23995,10.18906 -23.57218,-10.73907 -34.26021,-13.88918 -64.64825,-19.05396 -60.9454,-10.35834 -203.09967,-10.36835 -284.48043,-0.02 -33.70334,4.2857 -49.39273,8.57328 -72.80928,19.89726 -16.48793,7.97338 -27.24337,9.8438 -30.84673,5.36439 z"
     id="path12"
     transform="translate(-10)" />
  <path
     style="fill:#ffffff;fill-opacity:0.917647;stroke-width:1.98506"
     d="m 287.59818,750.88592 c -0.12936,-1.93142 -0.0412,-4.84157 0.19587,-6.467 0.23708,-1.62543 -1.63551,-6.73837 -4.16132,-11.36209 l -4.59239,-8.40676 4.06258,-5.5109 c 5.54237,-7.51823 17.09692,-11.03585 59.90635,-18.23767 58.81084,-9.89372 81.67337,-12.03514 142.33735,-13.33206 84.94162,-1.81595 139.82666,1.61731 211.2193,13.21253 39.78264,6.46129 48.85219,12.85361 41.1508,29.00357 -1.78494,3.74307 -3.24535,9.90174 -3.24535,13.68594 0,3.78419 -0.75118,6.88035 -1.66927,6.88035 -0.91811,0 -27.93971,-4.24306 -60.048,-9.42902 l -58.37872,-9.42903 -89.3276,0.18046 c -98.5676,0.19911 -122.48138,1.92561 -175.87396,12.69756 -16.12304,3.25282 -34.51055,6.43214 -40.86115,7.06515 -6.35059,0.63301 -13.55641,1.55812 -16.01291,2.05579 -3.23788,0.65596 -4.53108,-0.0611 -4.70158,-2.60682 z"
     id="path13"
     transform="translate(-10)" />
  <path
     style="fill:#ffffff;fill-opacity:0.917647;stroke-width:1.98506"
     d="m 276.91307,805.93605 5.70293,-5.95257 -3.46718,-7.27074 c -3.31616,-6.95407 -3.31061,-7.42641 0.12737,-10.8451 4.90484,-4.87731 22.16596,-8.84233 55.20604,-12.68128 15.28495,-1.77596 39.4034,-5.62367 53.59656,-8.55046 l 25.80575,-5.32142 H 519.0926 c 111.94315,0 111.91887,-0.002 178.6552,11.12056 29.46094,4.90987 37.6848,7.28608 42.09951,12.16429 3.28384,3.62859 3.28112,4.12022 -0.0548,9.93283 l -3.5097,6.11528 6.40258,6.6058 c 3.52144,3.63319 6.01701,6.97499 5.54576,7.42623 -0.47128,0.45125 -20.50892,-2.18923 -44.52812,-5.86772 -24.0192,-3.67849 -66.44981,-9.03056 -94.29025,-11.89347 -47.55692,-4.89043 -55.0019,-5.1449 -123.07358,-4.20665 -79.31866,1.09328 -80.19253,1.18258 -160.46359,16.39704 -25.47752,4.82897 -48.19986,8.77995 -50.49409,8.77995 -3.8979,0 -3.7975,-0.39019 1.5316,-5.95257 z"
     id="path14"
     transform="translate(-10)" />
  <path
     style="fill:#ffffff;fill-opacity:0.917647;stroke-width:1.98506"
     d="m 431.75006,884.16686 c -37.8021,-2.22246 -75.75787,-5.48745 -91.88272,-7.90386 -21.03148,-3.15168 -57.65779,-11.79728 -67.8127,-16.00709 l -6.84597,-2.83807 5.85344,-5.84852 c 10.60293,-10.59402 38.9716,-15.76679 109.07645,-19.88909 70.24004,-4.13025 132.38275,-4.49458 197.65298,-1.15881 34.46796,1.76156 72.14424,3.20284 83.72505,3.20284 44.98845,0 90.15294,10.85834 92.39114,22.21247 0.41289,2.09455 -3.56163,4.12729 -13.89541,7.1067 -56.0402,16.15742 -97.11075,20.27641 -210.99443,21.1608 -46.94661,0.36457 -90.71714,0.34776 -97.26783,-0.0374 z"
     id="path15"
     transform="translate(-10)" />
</svg>
