<?xml version="1.0" standalone="no"?>
<!DOCTYPE svg PUBLIC "-//W3C//DTD SVG 1.1//EN" "http://www.w3.org/Graphics/SVG/1.1/DTD/svg11.dtd" >
<svg xmlns="http://www.w3.org/2000/svg" xmlns:xlink="http://www.w3.org/1999/xlink" version="1.1" viewBox="-10 0 1010 1000">
   <path fill="currentColor"
d="M592 173h57v-48h120v168l-96 93v219l75 75v93h75v126h-649v-126h75v-93l75 -75v-219l-96 -93v-168h120v48h54v-48h189zM774 818h-552v42h552v-42zM702 716h-408v57h408v-57zM627 404h-255v177h255v-177zM723 260v-90h-33v45h-138v-45h-111v45h-133v-45h-35v90h450z
M699 680l-63 -60h-276l-63 60h402zM639 365l69 -69h-420l66 69h285z" />
</svg>
